{"glyphs":{"0":{"ha":593,"x_min":40,"x_max":757,"o":"m 757 728 q 749 672 758 716 q 697 559 741 627 q 699 547 698 557 q 695 518 699 537 q 666 447 692 498 q 600 334 640 395 q 506 210 559 273 q 395 97 452 148 q 274 14 338 46 q 157 -18 210 -18 q 74 13 105 -18 q 40 102 42 45 q 69 241 38 160 q 151 404 100 323 q 271 563 203 484 q 409 703 339 642 q 549 800 479 763 q 663 838 618 838 q 731 806 707 838 q 757 728 755 775 m 164 154 q 204 100 165 100 q 301 144 243 100 q 532 397 399 220 q 473 376 495 376 q 439 392 451 376 q 427 437 428 408 q 447 474 427 466 q 586 577 532 507 q 638 709 640 647 q 608 731 637 731 q 510 671 578 731 q 372 527 441 611 q 243 345 302 443 q 166 179 184 248 q 164 154 163 168 z "},"1":{"ha":317,"x_min":-6,"x_max":554,"o":"m 324 404 q 93 -3 113 56 q 73 -11 93 -5 q 47 -17 52 -17 q 39 -11 42 -17 q 16 26 23 18 q 1 39 8 35 q -6 45 -6 43 q 134 295 -6 61 q 359 647 275 528 q 314 614 334 630 q 290 597 294 597 q 283 603 286 597 q 278 617 280 609 q 271 632 276 625 q 267 645 267 640 q 273 662 268 650 q 324 717 277 674 q 424 798 370 760 q 495 836 477 836 q 534 815 513 836 q 554 774 554 793 q 462 624 553 766 q 324 404 371 481 z "},"2":{"ha":522,"x_min":7,"x_max":717,"o":"m 181 111 q 424 146 356 146 q 452 130 449 146 q 459 121 454 124 q 470 94 465 118 q 477 56 476 71 l 477 50 q 459 22 477 26 q 247 -2 394 9 q 73 -17 100 -13 q 27 -1 58 -17 q 14 20 21 5 q 7 47 7 36 q 20 85 7 59 q 104 180 22 90 q 211 278 125 202 q 330 391 296 353 q 448 516 363 429 q 572 652 532 604 q 613 721 613 701 q 593 734 613 734 q 546 722 574 734 q 480 686 517 710 q 312 517 393 630 q 308 503 308 513 q 285 480 302 489 q 256 471 267 471 q 229 478 245 471 q 204 493 212 486 q 196 522 196 500 q 220 582 196 543 q 286 664 243 621 q 381 747 329 708 q 499 812 434 786 q 610 838 564 838 q 677 818 655 838 q 717 736 717 781 q 674 627 717 692 q 559 484 632 562 q 422 342 487 406 q 279 204 358 278 q 181 111 201 131 z "},"3":{"ha":570,"x_min":44,"x_max":700,"o":"m 574 306 q 499 152 566 224 q 332 31 432 79 q 137 -17 232 -17 q 67 12 91 -17 q 44 73 44 41 q 70 135 44 104 q 120 165 96 165 q 132 144 130 165 q 168 103 137 103 q 290 131 220 103 q 411 198 360 159 q 461 268 462 238 q 417 317 460 298 q 292 335 373 335 q 269 351 278 335 q 260 386 260 367 q 270 419 260 404 q 292 443 280 434 q 328 467 303 451 q 363 490 353 483 q 398 515 373 497 q 439 546 423 534 q 482 579 456 558 q 526 616 509 600 q 562 651 544 632 q 598 714 598 688 q 574 729 598 729 q 487 697 549 729 q 357 610 425 665 q 255 498 288 554 q 252 492 254 496 q 248 484 250 487 q 229 478 245 478 q 198 494 213 478 q 181 541 178 517 q 208 600 184 564 q 274 674 232 635 q 366 747 315 713 q 480 804 417 782 q 597 827 543 827 q 675 800 651 827 q 700 736 700 774 q 635 599 700 680 q 427 424 570 517 q 528 390 482 424 q 574 306 574 357 z "},"4":{"ha":610,"x_min":87,"x_max":764,"o":"m 763 790 q 528 406 619 569 q 683 420 669 420 q 697 413 697 420 q 663 357 697 407 q 611 300 629 308 q 460 283 589 295 q 296 -14 382 144 q 224 -45 288 -34 q 189 -54 198 -50 q 173 -46 182 -54 q 163 -29 164 -37 q 330 273 194 36 q 110 258 120 258 q 87 316 87 258 q 92 353 87 343 q 251 530 116 410 q 522 747 385 650 q 696 851 659 845 q 701 849 696 851 q 719 843 706 848 q 743 835 732 839 q 751 823 747 832 q 759 812 755 814 q 764 797 764 802 q 763 790 764 791 m 215 363 q 399 392 297 378 q 611 717 494 551 q 389 521 539 657 q 215 363 239 385 z "},"5":{"ha":539,"x_min":5,"x_max":744,"o":"m 422 790 q 691 823 478 804 q 725 794 706 823 q 744 753 744 765 q 740 726 744 742 q 731 707 736 711 q 711 698 726 703 q 672 689 695 693 q 626 682 648 685 q 571 676 604 679 q 518 671 538 673 q 419 663 458 665 q 305 472 382 604 q 390 479 339 479 q 486 452 440 479 q 536 362 532 425 q 507 234 536 296 q 432 126 478 172 q 330 45 386 80 q 122 -25 218 -25 q 5 82 5 -25 q 21 146 5 119 q 62 174 37 174 q 77 150 77 174 q 145 95 80 95 q 262 126 195 95 q 379 209 329 158 q 430 307 430 260 q 324 355 427 355 q 228 348 262 355 q 190 340 193 340 q 184 341 186 340 q 172 363 180 345 q 163 391 163 381 q 178 435 163 400 q 281 612 193 469 q 384 772 369 755 q 422 790 399 790 z "},"6":{"ha":570,"x_min":51,"x_max":783,"o":"m 295 424 q 499 513 423 513 q 561 489 532 513 q 590 418 589 465 q 567 309 591 370 q 498 190 543 248 q 400 83 454 132 q 278 5 345 35 q 147 -25 211 -25 q 80 6 109 -25 q 51 89 51 37 q 52 100 51 96 q 267 546 69 295 q 403 685 328 622 q 543 784 479 749 q 728 859 677 859 q 783 795 783 859 q 771 761 783 765 q 517 635 631 715 q 295 424 403 556 m 431 414 q 326 380 391 414 q 225 313 262 346 q 154 111 154 180 q 176 77 154 77 q 245 103 198 77 q 347 181 292 130 q 436 286 401 231 q 471 367 472 340 q 458 404 471 394 q 431 414 446 414 z "},"7":{"ha":475,"x_min":100,"x_max":722,"o":"m 657 836 l 681 835 q 708 808 694 835 q 722 766 722 782 q 719 740 722 749 q 711 727 715 731 q 682 685 701 713 q 567 536 662 657 q 429 355 471 414 q 195 -21 277 140 q 169 -35 187 -35 l 142 -31 q 116 -16 133 -31 q 100 7 100 -2 q 101 21 100 16 q 105 33 102 26 q 111 46 108 40 q 127 83 121 69 q 244 271 152 139 q 441 534 337 404 q 600 714 546 665 l 232 677 q 218 688 218 677 q 227 716 218 698 q 237 739 237 734 q 288 779 240 745 q 299 792 289 780 q 325 810 310 804 q 463 826 340 817 q 657 836 587 835 z "},"8":{"ha":556,"x_min":14,"x_max":869,"o":"m 793 818 l 826 820 q 860 816 850 820 q 869 793 869 812 q 849 756 869 774 q 783 706 829 739 q 701 645 737 673 q 568 541 665 616 q 439 439 472 465 l 437 433 q 465 397 444 425 q 495 357 486 370 q 522 271 522 313 l 522 258 q 483 143 517 197 q 398 54 448 90 q 172 -21 291 -21 q 38 28 82 -21 q 14 95 14 55 q 47 199 16 146 q 122 297 79 253 q 290 439 200 376 q 257 564 257 497 q 258 582 257 570 q 310 710 269 648 q 412 811 351 772 q 536 850 473 850 q 650 793 622 850 q 657 769 657 777 q 639 711 657 762 q 701 758 643 715 q 793 818 785 818 m 355 353 q 338 367 346 366 q 168 198 215 270 q 167 104 125 132 q 220 92 186 92 q 299 111 253 92 q 379 166 345 130 q 414 244 414 202 q 355 353 414 287 l 355 353 m 591 675 q 511 731 561 731 q 414 688 460 731 q 368 585 368 646 q 385 507 368 553 q 591 675 473 582 z "},"9":{"ha":555,"x_min":17,"x_max":742,"o":"m 439 391 q 267 329 322 329 q 189 378 211 329 q 180 418 182 395 q 205 538 180 478 q 270 646 230 598 q 359 735 309 693 q 460 804 410 777 q 628 863 569 863 q 742 749 742 863 q 682 560 742 668 q 538 353 621 452 q 366 166 455 254 q 196 25 276 79 q 74 -29 116 -29 q 47 -18 56 -29 q 28 16 37 -7 q 17 53 17 37 q 39 75 17 68 q 230 187 123 104 q 443 387 337 271 l 439 391 m 606 765 q 484 710 559 765 q 351 586 408 655 q 294 477 294 516 q 332 448 294 448 q 529 521 390 448 q 614 644 584 594 q 644 718 644 694 q 632 753 644 742 q 606 765 621 765 z "},"\u0000":{"ha":0,"x_min":0,"x_max":0,"o":""}," ":{"ha":288,"x_min":0,"x_max":0,"o":""},"!":{"ha":454,"x_min":102,"x_max":837,"o":"m 768 1022 l 820 1015 q 837 1004 837 1015 q 834 996 837 1002 q 366 269 624 687 q 338 241 352 245 q 337 241 338 241 q 335 239 336 240 q 330 237 333 238 q 307 233 320 233 q 288 229 293 233 q 267 225 282 225 q 241 251 241 225 q 358 483 241 296 q 586 830 474 670 q 729 1015 698 991 q 768 1022 738 1022 m 102 -2 q 102 20 102 -2 q 138 76 102 41 q 213 111 174 111 q 253 72 253 111 q 217 -6 253 33 q 141 -45 180 -45 q 102 -2 102 -45 z "},"\"":{"ha":469,"x_min":323,"x_max":734,"o":"m 359 616 q 338 631 352 616 q 323 658 323 645 q 366 767 323 671 q 443 932 408 863 q 489 964 458 964 q 535 954 519 964 q 550 928 550 945 q 512 834 550 911 q 427 686 473 756 q 359 616 380 616 m 555 618 q 503 656 503 618 q 563 792 503 675 q 625 929 622 909 q 682 961 630 961 q 734 934 734 961 q 693 819 734 897 q 609 680 652 741 q 555 618 566 618 z "},"#":{"ha":754,"x_min":95,"x_max":849,"o":"m 203 47 q 192 26 203 26 q 169 44 180 26 q 152 84 157 62 q 147 118 147 106 q 154 146 147 129 q 168 177 160 163 q 188 214 175 191 q 208 248 201 237 l 156 248 q 115 255 136 248 q 95 275 95 262 q 106 288 95 280 q 121 305 117 296 q 158 331 125 314 q 218 349 191 349 q 271 351 244 349 q 297 396 281 367 q 357 494 333 462 q 294 493 318 493 q 251 500 270 493 q 233 521 233 507 q 242 532 233 525 q 253 545 252 538 q 286 569 258 556 q 334 583 313 583 l 421 587 q 497 697 450 626 q 560 791 544 769 q 582 814 576 814 q 597 793 588 814 q 607 759 607 772 q 594 721 607 745 q 524 591 581 696 l 623 595 l 745 783 q 755 791 753 791 q 778 767 763 791 q 792 718 792 743 q 736 597 792 692 l 756 597 q 804 595 795 597 q 824 582 814 593 q 840 567 833 570 q 849 549 849 559 q 833 531 849 539 q 798 523 817 524 q 690 515 779 522 l 596 361 l 650 361 q 706 359 698 361 q 726 345 715 357 q 747 327 737 333 q 756 309 756 321 q 738 289 756 298 q 694 278 719 281 q 545 269 669 276 q 469 79 482 144 l 469 71 q 459 58 469 58 q 435 77 450 58 q 409 122 421 96 q 397 166 397 149 q 431 261 397 184 q 309 252 404 260 q 203 47 229 115 m 568 510 l 466 501 q 427 437 460 492 q 376 354 395 382 q 389 355 376 354 q 479 358 401 355 q 568 510 524 440 z "},"$":{"ha":603,"x_min":102,"x_max":705,"o":"m 570 882 q 617 915 581 903 q 671 928 653 928 q 688 911 688 928 q 666 865 688 907 q 584 709 627 793 q 705 649 702 709 q 705 646 705 646 q 688 581 705 602 q 636 542 671 559 q 579 525 602 525 q 548 532 557 525 q 535 542 540 540 q 530 552 530 544 q 537 570 530 560 q 547 591 545 580 q 521 587 527 587 q 427 400 467 480 q 515 369 481 385 q 568 325 550 352 q 587 264 587 298 q 554 192 587 231 q 472 127 522 153 q 266 64 368 73 q 205 -74 212 -62 q 190 -90 197 -86 q 178 -95 183 -94 q 149 -99 161 -99 q 125 -94 138 -99 q 113 -85 113 -90 q 109 -74 112 -81 q 106 -61 106 -66 q 165 74 106 -56 q 102 149 102 96 q 125 211 102 186 q 180 236 149 236 q 212 219 212 236 l 210 203 q 218 184 210 188 q 249 247 227 201 q 283 317 271 292 q 167 391 191 335 q 159 422 159 408 q 187 510 159 467 q 262 585 216 553 q 467 684 353 648 q 570 882 544 836 m 397 545 q 310 488 347 519 q 273 446 273 456 q 287 431 273 436 q 335 420 302 426 q 397 545 367 484 m 417 217 q 437 228 417 217 q 456 257 456 238 q 374 294 456 276 q 320 185 372 292 q 417 217 379 196 z "},"%":{"ha":926,"x_min":164,"x_max":926,"o":"m 583 734 q 546 615 578 686 q 484 498 515 544 q 419 415 454 453 q 253 328 343 330 q 190 354 215 326 q 164 435 164 382 q 198 562 164 488 q 282 698 232 635 q 394 805 332 761 q 508 848 456 848 q 559 811 536 848 q 583 734 583 774 m 259 448 q 273 422 259 422 q 349 460 308 422 q 421 549 390 497 q 473 655 452 600 q 494 735 494 710 q 486 760 494 760 q 405 705 459 760 q 304 574 350 650 q 259 448 259 498 m 926 411 q 917 372 926 399 q 913 331 907 345 q 909 288 919 317 q 880 220 899 258 q 830 140 861 182 q 766 63 800 98 q 690 5 732 28 q 607 -18 647 -18 q 542 9 567 -18 q 517 90 517 37 q 550 216 517 142 q 631 352 583 290 q 741 459 680 415 q 854 503 802 503 q 905 475 883 503 q 926 411 926 448 m 612 102 q 625 77 612 77 q 718 138 666 77 q 805 277 770 200 q 840 400 840 354 q 831 414 840 414 q 752 359 805 414 q 655 228 699 304 q 612 102 612 152 m 894 847 q 906 825 906 847 q 905 796 906 803 q 903 782 904 789 q 902 772 903 775 q 899 762 901 770 q 895 750 897 755 q 748 574 884 726 q 283 15 488 283 q 275 1 280 12 q 251 -18 264 -18 q 224 43 224 -18 q 230 91 224 68 q 239 120 235 114 q 245 129 243 126 q 341 242 248 133 q 618 554 434 351 q 836 794 803 757 q 873 836 869 832 q 880 841 877 839 q 894 847 889 847 z "},"&":{"ha":627,"x_min":149,"x_max":775,"o":"m 149 287 q 294 479 149 404 q 239 567 239 511 q 290 673 239 623 q 572 802 390 771 q 656 966 653 961 q 705 1000 668 987 q 753 1013 741 1013 q 775 994 775 1013 q 764 969 775 989 q 678 806 720 887 q 736 788 715 804 q 758 747 758 772 q 740 697 758 721 q 696 659 722 673 q 595 632 644 632 l 588 632 l 562 579 l 569 580 q 608 555 596 580 q 620 522 620 530 q 615 508 620 513 q 602 496 610 502 q 589 486 593 490 q 578 479 585 483 q 564 472 570 475 q 549 468 557 470 q 536 465 541 466 q 513 461 517 461 l 500 457 q 476 410 490 435 q 447 350 463 384 q 420 296 430 315 q 564 365 491 321 q 650 429 637 408 q 672 450 663 450 q 698 430 686 450 q 710 393 710 410 q 660 299 710 349 q 527 211 609 249 q 360 164 444 173 q 286 2 294 15 q 259 -13 278 -11 q 231 -15 239 -15 q 213 -10 223 -15 q 201 0 202 -5 q 197 11 200 4 q 195 27 195 18 q 258 167 195 37 q 178 210 208 178 q 149 287 149 241 m 507 673 q 400 615 450 649 q 351 568 351 581 q 376 556 351 556 q 387 557 378 556 q 414 560 395 558 q 452 564 433 562 q 482 624 463 585 q 507 673 501 662 m 376 411 q 280 307 280 363 q 307 273 280 277 q 342 343 319 296 q 376 411 365 390 z "},"'":{"ha":265,"x_min":309,"x_max":562,"o":"m 450 932 q 515 964 468 964 q 562 939 562 964 q 522 836 562 914 q 432 687 481 758 q 359 616 382 616 q 330 631 351 616 q 309 657 309 645 q 450 932 309 684 z "},"(":{"ha":509,"x_min":117,"x_max":947,"o":"m 898 1019 q 559 785 707 949 q 331 418 412 621 q 244 11 249 215 q 253 -127 241 -70 q 269 -210 265 -185 q 251 -258 276 -258 q 218 -236 240 -258 q 173 -180 195 -213 q 117 -28 117 -98 q 157 296 117 140 q 266 576 197 452 q 426 806 334 701 q 831 1105 602 1007 q 919 1126 879 1126 q 940 1100 932 1126 q 947 1059 947 1074 q 936 1036 947 1044 q 898 1019 926 1029 z "},")":{"ha":509,"x_min":-143,"x_max":667,"o":"m 555 913 l 550 1050 q 557 1100 550 1085 q 629 1115 564 1115 q 656 1049 646 1115 q 667 872 667 984 q 634 623 667 760 q 544 363 600 487 q 414 126 488 240 q 260 -70 339 13 q 97 -201 180 -152 q -59 -250 13 -250 q -89 -248 -77 -250 q -115 -233 -100 -246 q -143 -175 -143 -208 q -134 -155 -143 -163 q -116 -145 -125 -147 q -91 -141 -106 -142 q 87 -53 -11 -132 q 266 132 185 25 q 412 366 347 239 q 516 636 477 492 q 555 913 555 781 z "},"*":{"ha":509,"x_min":296,"x_max":726,"o":"m 500 682 q 417 567 431 567 q 395 576 409 567 q 381 596 382 586 q 424 689 380 606 q 320 673 345 673 q 296 685 296 673 q 437 785 296 739 l 414 814 q 387 846 399 823 q 374 884 374 868 q 383 913 374 900 q 411 926 392 926 q 463 886 429 926 l 503 831 q 544 920 527 873 q 600 954 559 954 q 627 948 618 954 q 635 931 635 942 q 587 831 635 920 q 694 864 680 851 q 708 875 701 875 q 720 862 715 875 q 726 840 726 849 q 587 729 726 770 q 620 681 610 700 q 629 635 629 662 q 618 588 629 609 q 588 567 606 567 q 557 591 569 567 q 500 682 530 634 z "},"+":{"ha":576,"x_min":143,"x_max":628,"o":"m 555 375 l 395 382 q 351 233 366 313 q 349 224 351 230 q 347 214 348 218 q 345 205 347 210 q 342 196 344 199 q 339 190 341 193 q 329 184 335 184 q 319 186 323 184 q 311 193 315 189 q 304 200 307 197 q 296 210 301 204 l 289 220 q 281 229 287 222 q 274 238 276 235 q 269 244 272 240 q 264 252 265 249 q 263 258 263 256 q 266 267 263 261 q 281 300 268 272 q 313 383 301 348 q 186 380 210 380 q 143 407 143 380 q 145 416 143 410 q 154 438 148 422 q 162 460 159 454 q 170 474 164 466 q 199 488 178 488 q 345 484 253 488 q 377 541 347 489 q 418 613 407 592 q 431 640 429 634 q 435 651 433 646 q 442 661 437 655 q 466 672 451 672 q 498 658 481 672 q 515 629 515 644 q 507 595 515 614 q 475 540 498 577 q 439 479 452 503 q 579 475 550 475 q 628 449 628 475 q 624 433 628 439 q 615 417 620 426 q 607 403 610 408 q 600 392 605 399 q 589 382 594 386 q 555 375 575 375 z "},",":{"ha":330,"x_min":57,"x_max":262,"o":"m 193 100 q 211 100 193 100 q 246 81 229 100 q 262 29 262 61 q 240 -33 262 -3 q 172 -97 217 -64 q 105 -131 127 -131 q 75 -123 83 -131 q 62 -113 66 -115 q 57 -101 57 -112 q 62 -87 57 -91 q 90 -51 68 -83 q 116 -9 112 -20 q 105 23 105 1 q 131 73 105 46 q 193 100 157 100 z "},"-":{"ha":441,"x_min":102,"x_max":460,"o":"m 145 271 l 142 271 q 115 278 128 269 q 102 300 102 287 q 109 323 102 313 q 118 344 116 333 q 143 375 121 355 q 180 397 165 395 q 234 401 195 399 q 311 407 273 404 q 386 410 350 410 q 428 407 422 410 q 440 388 433 403 q 454 367 448 374 q 460 345 460 360 q 448 318 460 330 q 420 305 435 307 q 386 300 405 302 q 343 295 367 298 q 299 290 320 293 q 251 282 278 288 q 145 271 199 272 z "},".":{"ha":322,"x_min":102,"x_max":254,"o":"m 102 7 q 134 80 102 48 q 198 113 167 113 q 254 66 254 113 q 222 -7 254 28 q 151 -43 191 -43 q 102 7 102 -43 z "},"/":{"ha":526,"x_min":-108,"x_max":924,"o":"m 923 1053 q 923 1045 923 1051 q 924 1035 924 1038 q 906 985 920 1008 q 555 576 826 869 q 333 336 445 459 q -43 -136 68 45 q -49 -151 -45 -140 q -71 -170 -56 -170 q -97 -142 -86 -170 q -108 -77 -108 -114 q -103 -21 -108 -39 q -55 59 -98 -3 q 80 232 -12 121 q 281 463 171 342 q 482 677 392 583 q 697 901 572 772 q 853 1063 823 1031 q 887 1098 884 1095 q 892 1103 890 1101 q 906 1109 900 1109 q 923 1053 923 1109 z "},":":{"ha":469,"x_min":115,"x_max":469,"o":"m 316 380 q 349 455 316 422 q 414 488 382 488 q 469 440 469 488 q 437 368 469 404 q 366 332 404 332 q 316 380 316 332 m 115 7 q 148 80 115 48 q 212 113 180 113 q 268 66 268 113 q 236 -7 268 28 q 164 -43 204 -43 q 115 7 115 -43 z "},";":{"ha":477,"x_min":68,"x_max":477,"o":"m 428 488 q 477 440 477 488 q 444 367 477 403 q 372 332 412 332 q 323 380 323 332 q 356 455 323 422 q 428 488 388 488 m 202 100 q 219 100 202 100 q 254 81 235 100 q 273 30 273 62 q 251 -33 273 -3 q 183 -97 228 -64 q 116 -131 138 -131 q 86 -123 94 -131 q 73 -113 77 -115 q 68 -101 68 -112 q 73 -87 68 -91 q 101 -51 79 -83 q 127 -9 123 -20 q 116 23 116 1 q 142 73 116 46 q 202 100 168 100 z "},"<":{"ha":475,"x_min":205,"x_max":590,"o":"m 566 725 q 590 654 590 725 q 586 617 590 629 q 558 586 581 605 q 443 518 534 568 q 305 439 351 469 q 335 326 315 390 q 361 254 356 262 q 367 225 367 245 q 347 153 367 206 q 314 100 328 100 q 295 113 300 100 q 282 173 290 125 q 262 269 274 220 q 210 437 247 328 q 205 451 205 443 q 240 497 205 474 q 267 514 245 500 q 295 532 288 528 q 322 550 301 536 q 352 569 342 563 q 380 588 361 575 q 411 610 399 602 q 441 632 422 618 q 474 656 460 645 q 506 681 488 667 q 532 702 523 694 q 547 715 541 709 q 566 725 557 725 z "},"=":{"ha":596,"x_min":102,"x_max":698,"o":"m 248 465 l 238 465 q 202 474 219 465 q 185 493 185 482 q 195 515 185 505 q 208 530 205 525 q 243 564 212 545 q 292 585 275 583 q 536 595 428 595 q 652 591 644 595 q 670 574 660 587 q 689 553 680 560 q 698 532 698 546 q 680 507 698 518 q 649 496 662 496 q 559 488 637 495 q 248 465 339 467 m 164 271 l 155 271 q 119 279 136 271 q 102 299 102 288 q 112 320 102 310 q 125 340 122 330 q 160 370 129 351 q 209 390 192 389 q 436 400 340 400 q 541 397 532 400 q 559 379 549 393 q 578 358 569 366 q 587 338 587 351 q 569 313 587 324 q 539 301 551 302 q 479 295 527 300 q 381 285 431 290 q 164 271 252 272 z "},">":{"ha":475,"x_min":92,"x_max":473,"o":"m 344 703 q 347 709 344 703 q 363 733 349 715 q 385 751 376 751 q 396 748 393 751 q 398 733 398 744 q 407 667 399 722 q 468 432 425 557 q 473 404 473 416 q 441 355 473 375 q 323 287 372 323 q 225 216 273 252 q 161 169 176 180 q 133 142 145 157 q 115 127 121 127 q 92 199 92 127 q 153 282 92 231 q 241 342 199 319 q 325 390 282 366 q 385 424 368 414 q 342 533 365 471 q 318 602 320 595 q 315 612 315 608 q 314 620 314 616 q 314 628 313 623 q 316 636 315 633 q 319 646 317 640 q 322 654 321 652 q 326 664 323 657 q 330 673 329 671 q 335 683 331 675 q 344 703 338 691 z "},"?":{"ha":745,"x_min":183,"x_max":962,"o":"m 440 711 q 450 699 450 711 q 422 651 450 667 q 356 635 395 635 q 285 661 317 635 q 253 718 253 688 q 295 826 253 774 q 400 913 336 878 q 682 991 541 991 q 922 899 845 991 q 962 791 962 851 q 941 685 962 732 q 886 603 921 638 q 807 538 850 568 q 713 481 764 508 q 616 430 663 454 q 448 315 503 370 q 432 256 425 292 q 425 237 434 245 q 398 229 415 229 q 371 231 380 229 q 346 237 361 233 q 313 281 313 247 q 368 397 313 346 q 533 509 413 439 q 711 620 652 580 q 842 791 842 709 q 691 880 842 880 q 557 854 629 880 q 436 787 486 828 q 386 706 386 745 q 393 700 386 703 q 407 696 400 696 q 426 704 414 696 q 440 711 438 711 m 333 79 q 297 1 333 41 q 222 -38 262 -38 q 183 3 183 -38 q 218 81 183 44 q 294 118 253 118 q 322 108 312 118 q 333 79 333 98 z "},"@":{"ha":998,"x_min":136,"x_max":1181,"o":"m 823 673 q 888 706 843 706 q 934 675 934 706 q 926 650 934 659 q 892 600 918 641 q 836 490 867 559 q 804 382 804 420 q 823 345 804 345 q 906 419 850 345 q 1010 594 963 493 q 1058 758 1058 695 q 1044 814 1058 790 q 1010 850 1030 838 q 951 873 972 873 q 739 829 856 873 q 524 695 623 785 q 267 252 267 460 q 289 175 267 214 q 356 107 311 136 q 459 79 401 79 q 760 184 602 79 q 762 187 761 184 q 766 189 764 189 q 784 161 784 189 l 784 145 q 783 137 784 140 q 778 110 781 126 q 672 16 768 62 q 435 -30 575 -30 q 182 94 264 -30 q 136 252 136 163 q 172 433 136 340 q 269 607 208 526 q 414 759 330 687 q 589 882 497 831 q 975 991 789 991 q 1058 969 1018 991 q 1123 915 1097 947 q 1181 789 1181 844 q 1166 677 1181 735 q 1126 559 1152 620 q 1064 441 1101 499 q 985 337 1027 382 q 894 264 944 292 q 799 236 844 236 q 730 265 753 236 q 708 328 708 294 q 720 391 708 363 q 607 282 671 327 q 499 238 544 238 q 427 272 455 238 q 398 352 398 305 q 423 453 398 399 q 488 552 448 507 q 575 633 528 597 q 759 711 676 711 q 803 701 789 711 q 823 673 816 692 m 798 640 q 677 589 747 642 q 556 467 606 536 q 505 355 505 398 q 517 340 505 340 q 590 379 547 340 q 667 463 633 417 q 742 565 701 508 q 798 640 783 623 z "},"A":{"ha":816,"x_min":41,"x_max":1053,"o":"m 947 951 q 977 998 968 998 l 981 998 q 1022 977 991 998 q 1053 936 1053 955 q 880 526 1053 909 q 681 97 706 143 q 646 35 655 50 q 620 0 636 19 q 547 -36 591 -36 q 516 -40 530 -36 q 500 -45 503 -45 q 478 -35 478 -45 q 484 -18 478 -33 q 639 311 490 -3 q 359 321 479 317 q 149 16 243 175 q 127 -16 137 -7 q 99 -25 117 -25 q 61 -7 81 -25 q 41 35 41 11 q 216 325 41 102 q 112 321 134 325 q 83 317 90 317 q 65 348 65 317 q 101 402 65 378 q 199 425 138 425 q 216 426 203 425 q 302 429 258 428 q 611 751 450 603 q 890 960 772 900 q 921 969 909 969 q 947 951 932 968 m 900 856 q 448 429 652 668 q 690 419 568 427 q 900 856 814 679 z "},"B":{"ha":949,"x_min":149,"x_max":1108,"o":"m 382 694 l 402 699 q 406 691 406 699 q 383 666 406 684 q 327 648 359 648 q 275 667 294 648 q 256 717 256 686 q 340 845 256 781 q 547 946 425 908 q 783 985 670 985 q 1028 931 947 985 q 1108 787 1108 878 q 948 564 1108 672 q 766 473 864 507 q 937 404 873 462 q 985 294 985 361 q 921 157 985 227 q 751 42 857 87 q 533 -4 644 -4 q 345 52 405 -4 q 317 98 317 78 q 328 140 317 118 q 255 5 278 51 q 214 -15 245 -15 q 166 1 183 -15 q 149 38 149 18 q 155 74 149 58 q 371 449 186 154 q 597 790 555 743 q 695 817 618 817 q 726 803 726 817 q 635 650 726 793 q 541 501 545 508 q 734 575 635 528 q 906 682 833 623 q 980 790 980 742 q 808 869 980 869 q 460 774 627 869 q 397 730 419 750 q 376 703 376 711 q 382 694 376 694 m 505 370 q 477 399 492 370 q 342 170 413 296 q 435 214 374 214 q 476 203 476 214 q 467 196 476 199 q 440 165 440 186 q 544 117 440 117 q 798 214 684 117 q 859 304 859 266 q 810 357 859 328 q 634 389 752 389 q 529 379 552 389 q 505 370 506 370 z "},"C":{"ha":789,"x_min":111,"x_max":1034,"o":"m 785 395 q 802 369 802 395 q 790 279 802 343 q 692 157 781 237 q 457 22 585 62 q 306 -3 380 -3 q 172 59 233 -3 q 111 207 111 121 q 145 383 111 292 q 238 557 180 474 q 375 717 296 640 q 539 850 454 793 q 718 939 625 906 q 896 972 812 972 q 1009 924 962 972 q 1034 860 1034 899 q 996 761 1034 821 q 906 653 958 702 q 799 570 854 604 q 710 536 743 536 q 653 557 677 536 q 629 594 629 578 q 636 630 629 610 q 654 650 644 650 q 652 643 652 646 q 675 635 652 635 q 753 676 699 635 q 853 769 808 718 q 897 846 897 821 q 873 864 897 864 q 697 805 810 864 q 483 652 585 745 q 305 430 380 558 q 229 199 229 301 q 252 130 229 156 q 322 104 275 104 q 433 132 369 104 q 556 198 498 159 q 665 279 614 237 q 748 351 717 320 q 779 389 779 382 q 785 395 780 395 z "},"D":{"ha":1090,"x_min":203,"x_max":1221,"o":"m 326 665 l 312 667 l 309 667 q 274 680 292 667 q 256 728 256 694 q 294 807 256 763 q 396 888 332 851 q 556 949 460 925 q 759 972 652 972 q 1099 887 977 972 q 1221 664 1221 801 q 1183 493 1221 578 q 1082 335 1145 408 q 932 200 1018 263 q 751 94 846 138 q 362 0 548 0 q 247 15 271 0 q 230 30 238 20 q 216 43 221 39 q 203 78 203 51 q 209 126 203 104 q 392 441 229 199 q 663 832 554 684 q 740 847 671 842 q 779 843 768 847 q 790 828 790 839 q 755 769 790 818 q 528 425 720 720 q 337 122 337 130 q 397 114 337 114 q 545 139 457 114 q 710 206 633 165 q 858 302 787 248 q 979 414 928 357 q 1088 635 1088 538 q 1000 800 1088 732 q 758 868 911 868 q 562 833 654 868 q 435 772 469 799 q 400 735 400 745 q 408 730 400 730 l 437 735 q 444 732 444 735 q 432 723 444 730 q 413 708 420 716 q 378 683 406 701 q 326 665 349 666 z "},"E":{"ha":836,"x_min":126,"x_max":978,"o":"m 391 663 q 545 619 391 619 q 602 627 583 619 q 720 650 650 650 q 790 614 790 650 q 778 573 790 600 q 761 539 766 545 q 717 523 755 533 q 668 511 679 512 q 653 509 656 510 q 644 508 649 509 q 621 504 639 507 q 595 505 604 501 q 287 262 371 394 q 249 159 249 202 q 342 92 249 92 q 526 149 414 92 q 725 287 638 206 q 811 428 811 368 q 840 447 811 447 q 905 369 905 447 q 873 282 905 332 q 785 179 842 231 q 658 83 728 127 q 503 9 588 38 q 359 -19 418 -19 q 263 -8 300 -19 q 195 26 227 3 q 126 172 126 74 q 155 279 126 224 q 229 378 183 334 q 411 518 314 463 q 271 662 271 550 q 465 892 271 788 q 699 975 573 950 q 799 987 759 987 q 922 975 880 987 q 962 940 947 962 q 978 902 978 918 q 974 873 978 886 q 960 853 970 861 q 930 838 947 843 q 910 831 913 832 q 819 808 857 808 q 745 826 751 808 q 760 867 747 844 q 627 841 696 864 q 507 786 557 817 q 424 720 456 754 q 391 663 391 686 z "},"F":{"ha":806,"x_min":244,"x_max":1213,"o":"m 263 371 q 244 395 244 371 q 260 433 244 412 q 279 461 276 454 q 297 482 283 468 q 323 499 312 496 q 369 505 334 502 q 600 517 475 515 q 821 822 735 722 q 509 799 694 799 q 259 911 259 799 q 291 966 259 943 q 373 990 323 990 q 422 979 422 990 q 407 972 422 972 q 378 961 391 972 q 365 940 365 950 q 431 917 365 924 q 636 909 498 909 q 937 935 775 909 q 1038 1001 991 979 q 1134 1023 1085 1023 q 1198 1002 1183 1023 q 1213 969 1213 980 q 1197 941 1213 958 q 1152 905 1181 923 q 972 854 1083 863 q 727 515 853 705 q 825 508 779 513 q 870 472 870 502 q 831 425 870 460 q 821 411 827 420 q 800 395 810 395 q 776 397 789 395 q 696 399 723 399 l 652 399 q 406 13 414 27 q 389 -9 398 -2 q 366 -17 380 -17 q 328 -13 353 -17 q 292 -2 304 -8 q 279 15 279 5 q 286 43 279 24 q 513 393 302 88 q 295 379 376 387 l 263 371 m 1124 983 q 1098 972 1114 980 l 1124 983 z "},"G":{"ha":878,"x_min":75,"x_max":1156,"o":"m 1156 843 q 1112 760 1156 808 q 1003 667 1068 711 q 875 597 939 623 q 904 602 889 602 q 970 583 954 602 q 975 574 975 579 q 956 547 975 568 q 606 110 766 327 q 722 207 671 161 q 789 232 749 232 q 825 224 819 232 q 832 212 832 217 q 823 200 832 207 q 454 -89 710 101 q 231 -325 410 -138 q 161 -357 199 -357 q 85 -315 85 -357 q 115 -257 85 -297 q 320 -71 157 -195 q 444 65 356 -31 q 646 298 611 247 q 506 175 553 211 q 418 113 458 139 q 344 70 378 86 q 110 69 180 -9 q 75 183 75 108 q 116 348 75 258 q 227 526 157 438 q 391 697 296 614 q 588 844 486 781 q 804 945 690 907 q 1017 983 917 983 q 1082 972 1052 983 q 1126 947 1113 960 q 1156 843 1156 917 m 764 701 l 761 688 q 777 676 761 676 q 890 716 818 676 q 1006 798 962 756 q 1050 868 1050 840 q 1008 892 1050 892 q 840 855 933 892 q 658 760 747 819 q 483 626 569 702 q 333 475 397 551 q 229 327 269 399 q 190 203 190 254 q 202 167 190 182 q 237 151 214 151 q 466 260 308 151 q 830 558 625 370 q 840 568 833 561 q 870 595 854 587 q 779 572 814 572 q 721 588 744 572 q 698 630 698 604 q 722 681 698 657 q 755 705 745 705 q 764 701 764 705 z "},"H":{"ha":1042,"x_min":118,"x_max":1360,"o":"m 1323 968 l 1332 968 q 1337 967 1336 968 q 1340 966 1338 966 q 1343 964 1341 966 q 1352 958 1346 962 q 1360 944 1360 952 q 1344 910 1360 936 q 1263 784 1329 885 q 991 353 1111 551 q 781 5 783 7 q 779 1 779 3 q 773 -3 778 -3 l 764 -1 l 745 -5 l 734 -3 l 723 -5 l 719 -5 l 681 -11 q 647 12 647 -11 q 653 36 647 22 q 865 396 674 85 q 617 393 739 393 l 471 393 q 373 230 435 336 q 229 -3 238 -1 q 215 -5 220 -5 q 205 1 210 -5 q 198 7 200 7 q 191 5 197 7 q 176 2 186 2 l 160 3 l 154 7 q 152 5 153 7 q 147 3 151 3 q 118 27 118 3 q 130 70 118 43 q 160 127 141 96 q 256 275 178 159 q 334 392 334 391 q 304 393 321 393 q 255 396 269 393 q 202 460 216 403 q 195 496 195 488 q 211 515 195 515 l 229 510 q 294 507 242 509 q 368 504 345 504 l 406 505 q 617 818 494 644 q 418 745 528 745 q 330 769 367 745 q 292 832 292 794 q 321 892 292 870 q 375 914 349 914 q 401 906 401 914 q 394 900 401 903 q 387 893 387 897 q 410 874 387 882 q 464 865 434 865 q 536 883 493 865 q 627 927 580 900 q 730 990 692 965 q 770 1001 751 1001 q 798 997 789 1001 q 810 988 806 992 q 819 976 814 983 q 828 965 824 969 q 833 957 833 962 q 828 942 833 952 q 776 860 823 932 q 655 675 729 787 q 548 510 582 563 q 939 517 729 510 q 1209 940 1195 920 q 1235 966 1223 960 q 1263 972 1246 972 l 1323 968 z "},"I":{"ha":389,"x_min":-15,"x_max":742,"o":"m 692 983 l 724 985 q 742 971 742 985 q 741 965 742 967 q 135 31 416 488 q 109 3 120 6 q 102 0 108 3 q 54 -13 68 -13 q 39 -14 41 -13 q 25 -20 33 -20 q 14 -20 16 -20 q -2 -15 11 -20 q -15 -7 -15 -9 q -12 33 -15 26 q 144 305 2 81 q 434 741 287 528 q 613 978 582 954 q 638 985 623 985 l 692 983 z "},"J":{"ha":891,"x_min":0,"x_max":1218,"o":"m 718 222 q 788 253 743 235 q 846 271 833 271 q 854 261 854 271 q 850 241 854 252 q 840 224 845 231 q 827 205 835 216 l 817 192 q 723 115 784 146 q 662 87 702 104 q 607 61 623 69 l 571 7 q 379 -248 456 -163 q 237 -370 302 -332 q 85 -408 172 -408 q 21 -372 43 -408 q 0 -291 0 -336 q 28 -197 0 -245 q 106 -105 56 -149 q 210 -23 155 -62 q 330 53 264 16 q 536 157 436 111 q 1038 861 783 520 q 1043 869 1043 867 q 1023 872 1043 872 q 932 859 1002 872 q 626 746 778 827 q 366 558 474 664 q 257 387 257 453 q 286 333 257 354 q 347 311 314 311 q 415 328 380 311 q 473 361 450 345 q 499 378 496 378 q 503 368 503 378 q 476 283 503 319 q 404 230 450 248 q 316 212 358 212 q 229 230 273 212 q 154 285 185 248 q 123 370 123 322 q 132 418 123 390 q 571 839 199 636 q 856 950 699 908 q 1154 993 1014 993 q 1199 977 1180 993 q 1218 942 1218 960 q 1215 916 1218 924 q 1191 878 1213 909 q 1147 817 1169 846 q 1042 680 1085 737 q 718 222 998 622 m 431 -4 q 97 -281 97 -211 q 120 -296 97 -296 q 182 -272 144 -296 q 253 -216 220 -248 q 325 -140 287 -184 q 431 -4 380 -75 z "},"K":{"ha":996,"x_min":19,"x_max":1273,"o":"m 1162 982 l 1187 975 q 1273 924 1273 962 q 1265 905 1273 913 q 1021 728 1173 823 q 495 449 789 584 q 756 267 591 394 q 1028 103 977 103 q 1058 113 1046 103 q 1072 123 1071 123 q 1084 112 1084 123 q 1061 58 1084 102 q 1022 -1 1038 13 q 972 -16 1006 -16 q 880 18 937 -16 q 754 103 822 52 q 618 208 686 155 q 387 364 446 340 q 172 23 178 35 q 157 4 166 12 q 145 -3 148 -3 l 116 -7 l 92 -5 q 79 -8 83 -5 q 70 -13 75 -12 q 62 -17 65 -14 q 51 -20 58 -20 q 32 -9 44 -20 q 19 10 19 2 q 29 39 19 18 q 279 416 39 59 l 266 416 q 220 441 220 416 q 243 491 220 466 q 289 515 266 515 q 340 511 312 515 q 537 808 468 701 q 388 734 458 734 q 334 758 354 734 q 315 811 315 781 q 330 860 315 841 q 359 886 345 879 q 379 894 374 894 q 385 888 385 894 l 379 872 q 408 863 379 863 q 490 895 437 863 q 592 959 542 927 q 667 991 642 991 q 700 986 692 991 q 714 978 708 980 q 725 973 721 977 q 732 965 729 970 q 742 954 734 960 q 749 937 749 947 q 744 918 749 927 q 532 590 658 788 q 917 814 701 677 q 1151 975 1133 951 q 1162 982 1155 982 z "},"L":{"ha":1001,"x_min":-102,"x_max":1204,"o":"m 376 85 q 75 -28 250 -28 q -76 17 -31 -28 q -102 103 -102 41 q 43 226 -102 198 q 152 235 88 235 q 326 211 216 235 q 467 405 385 277 q 596 602 549 532 q 704 743 644 671 q 830 873 764 815 q 1095 993 964 993 q 1179 963 1153 993 q 1204 893 1204 934 q 1167 800 1204 853 q 1082 705 1131 746 q 986 634 1034 663 q 912 606 939 606 q 865 629 885 606 q 846 673 846 652 q 851 703 846 694 q 863 711 857 711 q 871 704 869 711 q 940 746 892 711 q 1027 821 988 782 q 1067 869 1067 859 q 1055 879 1067 879 q 1023 871 1043 879 q 968 837 1002 863 q 895 772 935 812 q 684 503 800 677 q 607 388 656 463 q 463 179 506 235 q 960 87 810 87 q 1057 105 1029 87 q 1070 111 1067 111 q 1074 106 1074 111 q 1067 90 1074 100 q 1037 43 1061 79 q 1002 1 1013 8 q 889 -18 968 -18 q 737 -7 809 -18 q 621 16 665 5 q 490 52 576 27 q 376 85 404 77 m 129 126 q 40 105 40 126 q 55 91 40 97 q 92 85 71 85 q 218 119 157 85 q 129 126 166 126 z "},"M":{"ha":1073,"x_min":-119,"x_max":1392,"o":"m 1080 250 l 1085 224 q 1068 186 1085 208 q 925 52 1023 127 q 779 -24 826 -24 q 706 4 732 -24 q 680 66 680 31 q 768 252 680 109 q 1105 751 900 466 q 875 510 1062 707 q 391 18 460 76 q 357 9 379 9 q 311 27 335 9 q 286 67 286 45 l 286 71 q 417 349 289 99 q 632 747 545 600 q 373 433 504 606 q 9 -129 124 103 q -16 -151 -1 -151 q -60 -143 -31 -151 q -119 -86 -119 -127 q -20 89 -119 -62 q 212 417 80 239 q 484 760 343 595 q 734 987 679 987 q 751 983 743 987 q 762 979 760 979 q 766 981 764 979 q 801 991 774 991 q 851 981 827 991 q 876 958 876 971 q 808 829 876 950 q 503 275 581 426 q 716 515 578 366 q 1008 812 855 664 q 1245 1005 1206 1005 q 1284 998 1261 1005 q 1365 986 1326 986 q 1384 977 1376 984 q 1392 962 1392 970 q 1388 950 1392 955 q 1016 433 1167 657 q 829 131 865 210 q 1042 301 901 146 q 1050 312 1048 309 q 1055 317 1053 315 q 1073 300 1067 331 q 1077 276 1076 283 q 1079 261 1078 269 q 1080 250 1080 253 z "},"N":{"ha":899,"x_min":-24,"x_max":1224,"o":"m 663 964 l 713 975 q 743 966 732 975 q 755 951 755 958 q 751 930 755 944 q 696 666 748 917 q 621 292 645 415 q 890 677 736 448 q 1070 982 1044 907 q 1091 1019 1078 1006 q 1114 1034 1104 1031 q 1145 1036 1124 1036 q 1195 1027 1166 1036 q 1224 997 1224 1018 q 1105 766 1224 957 q 834 361 987 576 q 580 22 682 147 q 535 0 562 0 q 480 9 509 0 q 452 41 452 18 q 583 758 452 116 q 311 354 471 613 q 122 22 144 86 q 94 -23 110 -17 q 71 -28 83 -28 l 18 -34 q -11 -25 2 -34 q -24 -7 -24 -16 q 51 155 -24 20 q 225 449 125 290 q 435 757 326 607 q 604 958 544 907 q 631 969 616 969 l 663 964 z "},"O":{"ha":886,"x_min":115,"x_max":1105,"o":"m 1002 908 q 1020 908 1002 908 q 1072 878 1038 908 q 1105 812 1105 848 q 1087 716 1105 775 q 1036 592 1069 658 q 956 455 1003 526 q 853 317 909 384 q 732 190 798 250 q 598 85 666 130 q 309 -12 450 -12 q 222 14 260 -12 q 163 64 184 39 q 115 224 115 122 q 183 464 115 326 q 367 724 250 602 q 629 925 484 846 q 905 1003 774 1003 q 954 991 931 1003 q 977 965 977 980 q 970 940 977 949 q 956 919 962 930 q 944 903 949 907 q 1002 908 966 908 m 749 595 q 740 581 749 581 q 701 614 730 581 q 671 669 671 647 q 741 788 671 722 q 897 889 811 854 q 677 808 802 884 q 457 627 551 733 q 305 406 363 521 q 247 218 247 290 q 267 143 247 174 q 333 111 286 111 q 447 144 380 111 q 576 229 513 176 q 916 637 793 413 q 965 765 965 730 q 956 779 965 779 q 877 744 928 779 q 787 665 826 708 q 747 604 747 623 l 749 595 z "},"P":{"ha":1002,"x_min":216,"x_max":1253,"o":"m 418 728 q 396 691 396 711 q 426 671 396 671 q 459 679 439 671 l 460 679 q 463 665 463 679 q 460 648 463 651 q 342 599 391 599 q 273 626 294 599 q 251 697 251 653 q 299 790 251 741 q 429 881 347 839 q 630 949 510 922 q 901 977 751 977 q 1152 918 1051 977 q 1253 784 1253 859 q 1201 632 1253 709 q 1069 497 1148 555 q 894 404 990 440 q 722 367 798 367 q 604 428 646 367 q 464 207 500 266 q 402 107 427 147 q 362 43 376 66 q 348 20 349 20 q 317 4 334 4 l 284 -2 l 268 -1 l 256 -1 q 216 24 216 -1 q 350 264 216 56 q 602 642 484 473 q 740 833 720 812 q 775 858 760 854 q 824 861 790 861 l 858 861 q 867 847 867 861 q 863 828 867 833 q 648 498 804 745 q 666 485 653 488 q 692 482 678 482 l 712 482 q 847 512 774 482 q 975 585 920 543 q 1066 672 1029 627 q 1103 751 1103 718 q 1083 809 1103 783 q 1027 850 1063 835 q 860 879 958 879 q 622 828 761 879 q 418 728 482 777 z "},"Q":{"ha":945,"x_min":69,"x_max":1129,"o":"m 911 970 q 1074 917 1019 970 q 1129 788 1129 863 q 1097 626 1129 713 q 1007 449 1065 540 q 875 273 949 357 q 709 118 801 188 q 526 12 617 48 q 552 -9 532 7 q 581 -32 572 -25 q 607 -52 589 -38 q 634 -73 625 -66 q 659 -90 643 -79 q 684 -106 674 -101 q 706 -117 694 -111 q 747 -127 728 -127 q 779 -123 766 -127 q 797 -112 792 -118 q 804 -102 801 -106 q 811 -97 808 -97 q 820 -106 820 -97 q 810 -132 820 -116 q 783 -166 801 -149 q 723 -203 765 -184 q 650 -222 681 -222 q 328 20 536 -222 q 210 -11 263 -11 q 113 37 156 -11 q 69 160 69 85 q 122 346 69 235 q 385 707 220 555 q 911 970 671 970 m 1007 800 q 942 860 1007 860 q 697 793 823 860 q 460 616 572 726 q 275 375 349 507 q 201 168 201 244 q 219 118 201 132 q 344 164 257 118 q 497 285 431 210 q 508 292 504 292 q 513 289 511 292 q 519 279 514 287 q 528 264 524 272 q 538 218 538 243 q 520 164 538 193 q 444 90 502 136 q 648 245 519 117 q 857 487 777 373 q 972 685 938 602 q 1007 800 1007 768 z "},"R":{"ha":1019,"x_min":231,"x_max":1208,"o":"m 435 696 q 445 685 445 696 q 441 677 445 681 q 310 621 385 621 q 271 641 292 621 q 249 699 249 661 q 295 783 249 736 q 424 871 341 829 q 629 945 506 913 q 851 978 753 978 q 1013 962 949 978 q 1111 923 1076 946 q 1170 870 1147 899 q 1208 771 1208 821 q 1176 667 1208 720 q 1092 571 1143 613 q 972 494 1040 530 q 704 396 847 427 q 807 270 728 371 q 952 102 886 170 q 1053 34 1017 34 l 1076 42 q 1083 36 1083 42 q 1058 3 1083 31 q 1015 -39 1034 -24 q 965 -53 997 -53 q 894 -22 934 -53 q 806 64 854 8 q 721 169 759 119 q 634 284 683 218 q 567 375 585 351 q 532 321 560 364 q 492 258 505 278 q 454 198 479 237 q 416 136 430 159 q 365 41 379 73 q 317 10 350 10 l 293 11 l 273 10 q 231 45 231 10 q 253 121 231 72 q 494 488 276 170 q 735 827 713 806 q 768 851 758 848 q 779 857 777 857 l 791 855 l 803 857 q 814 852 809 857 q 821 846 819 847 q 849 810 849 825 q 842 783 849 796 q 803 724 835 770 q 719 604 771 677 q 644 497 667 530 q 778 531 700 500 q 924 606 856 562 q 1041 701 992 650 q 1089 790 1089 752 q 1068 827 1089 810 q 1015 853 1047 844 q 871 872 951 872 q 669 838 791 872 q 490 771 546 803 q 408 718 433 740 q 383 687 383 696 q 397 682 383 682 q 422 689 411 682 q 435 696 433 696 z "},"S":{"ha":928,"x_min":96,"x_max":1139,"o":"m 185 186 l 176 168 q 232 131 176 149 q 353 113 287 113 q 498 132 419 113 q 636 180 578 152 q 733 240 695 209 q 772 294 772 271 q 704 349 772 323 q 507 404 636 374 q 318 480 378 434 q 258 592 258 526 q 305 719 258 659 q 429 826 353 779 q 595 909 505 873 q 941 985 782 985 q 1049 974 1002 985 q 1139 918 1139 953 q 1133 871 1139 884 q 1123 854 1126 859 q 1113 846 1119 850 q 1105 840 1107 842 q 941 809 1075 815 q 891 804 895 807 q 884 802 887 802 q 877 807 881 802 q 873 825 873 812 q 899 869 873 837 q 723 831 817 865 q 559 756 629 798 q 444 674 490 715 q 398 617 398 634 q 408 590 398 601 q 566 526 437 559 q 745 471 701 492 q 820 431 790 450 q 867 392 849 412 q 908 296 908 345 q 882 204 908 247 q 803 121 856 161 q 680 50 751 81 q 308 -20 524 -20 q 107 64 151 -20 q 96 107 96 85 q 106 149 96 130 q 132 176 117 167 q 173 195 161 195 q 185 186 185 195 z "},"T":{"ha":787,"x_min":224,"x_max":1194,"o":"m 361 216 l 358 201 q 362 194 358 197 q 371 191 366 191 q 380 196 376 191 q 547 432 481 330 q 645 583 614 534 q 694 659 675 631 q 791 793 743 734 q 504 747 608 747 q 355 760 400 747 q 295 790 309 773 q 281 824 281 806 q 282 857 281 841 q 323 913 285 891 q 387 935 361 935 q 412 927 412 935 q 400 907 412 920 q 389 890 389 895 q 546 868 389 868 q 906 909 703 868 q 1107 1004 1023 1004 q 1182 972 1164 1004 q 1194 935 1194 954 q 1172 897 1194 916 q 1113 864 1150 878 q 953 825 1045 840 q 843 671 914 776 q 747 530 772 567 q 664 400 721 494 q 564 238 606 307 q 475 104 522 170 q 302 -33 378 -33 q 247 -16 270 -33 q 224 39 224 1 q 266 135 224 77 q 328 208 309 192 q 355 224 348 224 q 361 216 361 224 z "},"U":{"ha":1028,"x_min":130,"x_max":1276,"o":"m 1069 375 q 1088 327 1088 375 q 1082 262 1088 279 q 987 145 1061 210 q 824 36 913 81 q 679 -9 736 -9 q 633 12 652 -9 q 614 66 614 33 q 684 251 614 127 q 851 510 753 375 q 620 254 688 320 q 498 140 551 187 q 401 64 444 93 q 240 -3 300 -3 q 155 30 180 -3 q 130 103 130 63 q 268 433 130 220 q 520 781 405 646 q 386 694 422 694 q 330 717 349 694 q 312 769 312 740 q 339 823 312 798 q 379 848 366 848 q 391 846 391 848 q 381 832 391 844 q 371 814 371 819 q 380 810 371 810 q 495 863 406 810 q 647 968 584 917 q 686 982 664 982 q 728 971 708 982 q 740 970 730 975 q 760 955 750 965 q 770 936 770 945 q 765 920 770 927 q 410 444 483 555 q 263 153 263 220 q 283 129 263 129 q 396 205 303 129 q 1111 937 651 412 q 1145 957 1129 958 l 1152 957 q 1167 959 1154 957 q 1208 962 1179 962 q 1276 937 1276 962 q 1256 899 1276 926 q 1173 782 1236 871 q 1016 555 1109 692 q 853 302 922 417 q 785 155 785 186 q 788 155 785 155 q 809 164 790 155 q 946 261 867 195 q 1045 351 1024 328 q 1069 375 1065 375 z "},"V":{"ha":928,"x_min":143,"x_max":1267,"o":"m 1112 960 l 1090 955 q 1082 964 1082 955 q 1088 977 1082 974 q 1213 1014 1153 1014 q 1253 994 1239 1014 q 1267 940 1267 974 q 1220 823 1267 907 q 1094 634 1173 740 q 895 404 1015 529 q 652 183 774 279 q 434 39 530 88 q 253 -9 338 -9 q 171 28 198 -9 q 143 114 143 66 q 175 236 143 161 q 253 385 208 311 q 358 540 298 458 q 546 779 448 664 q 397 673 437 688 q 329 657 357 657 q 284 681 300 657 q 268 733 268 705 q 291 790 268 762 q 334 818 313 818 q 341 812 341 818 q 336 800 341 807 q 331 790 331 793 q 342 783 331 783 q 377 793 354 783 q 491 864 400 803 q 625 965 583 925 q 674 980 642 980 q 737 965 705 980 q 769 934 769 949 q 768 927 769 930 q 765 914 766 924 q 754 889 764 903 q 614 690 745 874 q 285 149 285 232 q 309 118 285 118 q 435 177 341 118 q 608 309 528 237 q 766 461 688 381 q 925 635 843 541 q 1064 818 1007 730 q 1121 951 1121 906 q 1112 960 1121 960 z "},"W":{"ha":1244,"x_min":98,"x_max":1550,"o":"m 1338 939 q 1331 949 1331 939 q 1336 962 1331 959 q 1356 972 1342 965 q 1375 982 1370 979 q 1392 989 1381 984 q 1411 997 1404 995 q 1428 1002 1418 999 q 1471 1007 1445 1007 q 1523 989 1496 1007 q 1550 943 1550 972 q 1498 787 1550 884 q 1366 585 1447 690 q 1185 371 1285 479 q 989 177 1084 262 q 809 37 893 92 q 679 -17 724 -17 q 583 71 583 -17 q 722 425 583 193 q 269 12 451 105 q 196 -12 221 -12 q 135 19 171 -12 q 98 79 98 50 q 333 552 98 248 q 556 811 422 668 q 378 710 439 710 q 330 742 346 710 q 316 786 316 765 q 343 831 316 806 q 375 855 370 855 q 384 852 380 855 q 388 846 388 848 q 378 832 378 836 q 387 829 378 829 q 522 907 395 829 q 662 985 650 985 q 730 965 697 985 q 762 933 762 946 q 749 898 762 920 q 587 685 735 876 q 372 396 439 494 q 274 236 305 298 q 243 159 243 173 q 247 146 243 146 q 451 318 275 146 q 785 657 626 490 q 957 844 943 825 q 987 870 971 862 q 1036 878 1004 878 q 1127 843 1127 878 q 1087 783 1127 829 q 1031 715 1048 736 q 843 412 947 608 q 739 161 739 216 q 748 146 739 146 q 807 184 758 146 q 935 299 855 222 q 1115 488 1014 375 q 1308 738 1216 600 q 1400 910 1400 875 q 1373 945 1400 945 l 1338 939 z "},"X":{"ha":818,"x_min":-38,"x_max":1206,"o":"m 31 -13 l 26 -14 q 7 0 22 -14 q -11 16 -7 13 q -19 22 -14 19 q -25 27 -24 26 q -30 31 -27 28 q -34 36 -33 34 q -36 39 -35 37 q -38 51 -38 43 q -33 74 -38 59 q 106 204 -26 97 q 489 507 238 312 q 513 597 498 544 q 535 682 527 650 q 553 749 544 714 q 570 824 570 814 q 564 833 570 833 q 451 756 538 833 q 364 654 364 678 q 353 639 364 639 q 331 655 345 639 q 314 684 316 671 q 311 707 313 697 q 307 741 307 728 q 372 836 307 775 q 516 943 437 897 q 629 989 594 989 q 686 964 665 989 q 707 894 707 940 q 649 632 707 848 q 1050 936 1029 924 q 1111 948 1070 948 q 1194 932 1152 948 q 1206 918 1206 926 q 1201 902 1206 909 q 1183 884 1196 895 q 1130 845 1170 873 q 1034 774 1090 816 q 599 441 903 678 q 534 118 534 191 q 538 99 534 99 q 550 104 543 99 q 681 208 590 128 q 790 309 772 288 q 815 330 808 330 q 825 305 825 330 l 825 294 q 831 274 825 293 q 838 231 838 256 q 828 192 838 206 q 800 155 819 177 q 748 102 781 134 q 677 43 715 71 q 506 -24 587 -24 q 437 5 468 -24 q 407 99 407 35 q 442 314 407 163 q 50 -14 54 -12 q 41 -16 45 -16 l 31 -13 z "},"Y":{"ha":924,"x_min":116,"x_max":1208,"o":"m 1141 942 l 1167 943 q 1193 933 1179 943 q 1208 916 1208 923 q 1048 643 1204 901 q 509 -264 559 -161 q 565 -212 534 -237 q 598 -186 595 -186 q 606 -191 602 -186 q 610 -200 610 -195 q 604 -211 610 -204 q 562 -265 598 -218 q 508 -332 526 -312 q 476 -375 490 -352 q 453 -407 463 -397 q 429 -416 443 -416 q 359 -381 387 -416 q 331 -321 331 -345 q 533 50 331 -273 q 888 591 734 372 q 321 39 532 171 q 202 -7 248 -7 q 158 6 180 -7 q 126 39 136 19 q 116 109 116 58 q 159 254 116 159 q 271 456 203 349 q 495 786 393 649 q 347 704 404 704 q 312 712 320 704 q 289 736 303 720 q 274 773 274 753 q 281 804 274 793 q 294 822 288 816 q 324 849 317 845 q 341 853 331 853 q 351 850 351 853 q 343 841 351 847 q 336 831 336 835 q 344 828 336 828 q 363 832 351 828 q 393 845 374 836 q 427 864 412 855 q 473 890 442 872 q 519 917 503 908 q 566 948 535 926 q 612 979 597 971 q 653 988 637 994 q 678 980 669 982 q 694 974 687 978 q 707 966 701 970 q 728 931 728 951 q 709 884 728 911 q 623 759 690 858 q 471 533 555 661 q 322 293 387 405 q 258 152 258 181 q 264 142 258 142 q 304 168 269 142 q 767 608 486 309 q 1040 913 998 854 q 1065 937 1053 930 q 1103 943 1078 943 l 1141 942 z "},"Z":{"ha":854,"x_min":54,"x_max":1152,"o":"m 422 953 q 591 924 422 924 q 792 931 673 924 q 936 948 911 939 q 978 970 960 957 q 1004 993 996 983 q 1060 1018 1025 1018 q 1124 1005 1095 1018 q 1152 969 1152 991 q 1133 922 1152 946 q 1091 883 1113 899 q 1043 852 1069 868 q 1013 833 1017 837 q 979 804 1009 830 q 575 435 851 697 q 239 113 300 174 q 438 146 313 130 q 670 163 563 163 q 834 141 777 163 q 891 62 891 118 q 879 8 891 36 q 859 -20 867 -20 q 854 -12 857 -20 q 848 -1 851 -3 q 734 20 817 20 q 457 4 652 20 q 214 -18 262 -12 q 151 -23 166 -23 q 81 6 109 -23 q 54 59 54 36 l 60 81 q 218 275 60 113 q 556 601 376 437 q 821 832 735 765 q 672 802 762 815 q 503 789 583 789 q 305 875 305 789 q 321 926 305 903 q 359 962 337 949 q 424 987 404 987 q 444 978 444 987 q 433 966 444 974 q 422 953 422 958 z "},"[":{"ha":509,"x_min":0,"x_max":899,"o":"m 761 1021 l 663 1025 q 140 -52 386 408 q 125 -81 125 -73 q 132 -84 126 -84 l 140 -83 q 212 -85 182 -85 q 264 -83 241 -85 q 306 -76 286 -80 q 333 -73 325 -73 q 351 -86 351 -73 q 309 -142 351 -113 q 219 -189 267 -172 q 84 -215 150 -215 q 37 -194 58 -215 q 0 -97 0 -155 q 31 -3 0 -64 q 219 378 62 58 q 416 776 376 699 q 474 887 456 853 q 506 955 491 922 q 529 1005 522 989 q 554 1063 536 1021 q 578 1120 572 1105 q 606 1146 585 1136 q 645 1158 627 1156 l 842 1147 l 876 1150 q 899 1105 899 1150 q 862 1028 899 1033 q 761 1021 808 1021 z "},"\\":{"ha":526,"x_min":279,"x_max":515,"o":"m 279 1084 q 298 1097 279 1097 q 364 1063 318 1097 q 418 999 410 1029 q 500 507 483 766 q 515 35 515 297 q 469 -114 515 -62 q 400 -170 420 -170 q 380 -144 380 -170 q 387 -13 380 -142 q 393 180 393 116 q 320 953 393 557 q 296 1033 313 990 q 279 1084 279 1076 z "},"]":{"ha":509,"x_min":-113,"x_max":774,"o":"m 660 1040 q 601 1053 660 1053 l 562 1053 q 536 1052 547 1053 q 519 1051 526 1052 q 502 1048 512 1050 q 479 1044 491 1047 q 462 1042 467 1042 q 433 1109 433 1042 q 470 1177 433 1177 l 698 1169 q 751 1138 736 1169 q 769 1076 764 1112 q 774 1018 774 1039 q 750 946 774 998 q 581 569 726 894 q 399 171 435 245 q 310 -14 363 98 q 226 -186 258 -126 q 104 -215 210 -215 q -36 -209 41 -215 q -113 -178 -113 -203 q -90 -117 -113 -153 q -51 -79 -67 -81 q 37 -88 -21 -79 q 144 -97 94 -97 q 650 1011 499 652 q 660 1040 660 1035 z "},"^":{"ha":694,"x_min":304,"x_max":790,"o":"m 763 648 l 766 592 q 735 559 766 573 q 668 546 703 546 q 632 567 632 546 q 635 580 632 570 q 654 685 638 590 q 676 833 671 780 q 533 697 644 795 q 385 549 422 599 q 372 547 382 547 q 332 570 361 547 q 304 611 304 593 q 318 649 304 629 q 361 694 333 669 q 418 741 390 719 q 488 796 446 763 q 546 842 530 829 q 623 904 563 856 q 698 967 682 951 q 726 983 714 983 q 780 942 739 983 q 790 918 790 931 l 790 914 q 763 648 763 738 z "},"_":{"ha":534,"x_min":-117,"x_max":507,"o":"m -54 -189 l -64 -189 q -100 -181 -83 -189 q -117 -162 -117 -173 q -107 -143 -117 -152 q -95 -129 -97 -134 q -59 -98 -90 -115 q -3 -79 -27 -81 q 77 -75 20 -77 q 249 -68 134 -72 q 408 -64 364 -64 q 460 -66 452 -64 q 479 -82 469 -69 q 498 -101 490 -96 q 507 -120 507 -107 q 490 -143 507 -134 q 428 -156 473 -152 q 320 -165 382 -161 q 182 -175 257 -169 q -54 -189 33 -188 z "},"`":{"ha":555,"x_min":365,"x_max":554,"o":"m 554 626 q 554 614 554 626 q 535 603 554 603 q 502 608 515 603 q 480 625 489 614 q 467 644 472 636 q 457 667 463 652 q 441 701 451 681 q 409 753 431 720 q 376 801 387 785 q 365 829 365 817 q 397 860 365 842 q 448 878 429 878 q 472 876 467 878 q 481 869 477 874 q 488 859 485 864 q 494 842 490 853 q 500 820 498 830 q 529 724 516 762 q 554 626 554 649 z "},"a":{"ha":566,"x_min":4,"x_max":669,"o":"m 559 515 q 611 480 611 515 q 602 452 611 461 q 565 394 593 444 q 501 266 536 344 q 456 134 466 189 q 454 115 454 127 q 474 77 454 77 q 522 97 494 77 q 572 138 550 116 q 614 183 593 160 q 639 210 635 206 q 651 213 643 213 q 667 193 664 213 q 669 153 669 174 q 665 123 669 132 q 579 31 646 85 q 457 -24 512 -24 q 377 9 403 -24 q 351 83 351 43 q 365 154 351 123 q 236 30 309 81 q 117 -21 163 -21 q 41 7 71 -21 q 4 103 4 41 q 32 226 4 164 q 104 339 59 288 q 202 433 149 391 q 410 521 315 521 q 469 509 446 521 q 498 478 492 496 q 526 509 515 503 q 559 515 537 515 m 469 440 q 229 311 353 440 q 148 201 185 265 q 111 113 111 136 q 125 89 111 89 q 231 164 144 89 q 346 274 317 239 q 469 440 377 313 z "},"b":{"ha":517,"x_min":27,"x_max":612,"o":"m 600 968 q 321 518 457 753 q 392 542 353 534 q 447 549 431 549 q 474 548 463 549 q 504 540 486 547 q 534 522 522 534 q 566 444 566 494 q 538 332 566 393 q 464 210 511 271 q 360 97 416 149 q 240 11 304 44 q 120 -22 176 -22 q 61 11 94 -22 q 27 98 27 44 q 74 267 27 153 q 188 498 121 380 q 324 728 254 616 q 442 911 393 840 q 502 993 491 982 q 542 1011 513 1004 q 591 1018 570 1019 q 612 999 612 1018 q 600 968 612 987 m 417 317 q 445 406 445 366 q 419 446 445 446 q 341 424 394 446 q 281 401 289 401 q 262 414 274 401 q 130 110 130 176 q 149 79 130 79 q 284 158 196 79 q 417 317 372 236 z "},"c":{"ha":507,"x_min":31,"x_max":588,"o":"m 483 151 q 501 162 483 151 q 528 181 518 173 q 552 201 538 190 q 574 213 566 213 q 588 182 588 213 q 558 116 588 151 q 483 55 528 80 q 387 12 438 31 q 215 -25 286 -25 q 87 21 144 -25 q 31 143 31 68 q 68 293 31 218 q 164 424 105 368 q 300 516 222 481 q 454 551 378 551 q 519 530 490 551 q 549 473 549 509 q 512 385 549 436 q 439 334 476 334 q 395 375 395 334 q 416 414 395 386 q 436 451 436 441 q 429 461 436 461 q 349 435 391 461 q 271 381 306 410 q 205 317 236 353 q 137 158 137 241 q 158 101 137 125 q 230 77 180 77 q 332 89 281 77 q 415 114 382 100 q 483 151 448 128 z "},"d":{"ha":572,"x_min":7,"x_max":922,"o":"m 894 1017 q 914 1008 907 1017 q 922 992 922 1000 q 908 961 922 983 q 848 862 895 938 q 774 742 800 785 q 532 319 620 492 q 445 110 445 146 l 445 104 q 465 77 445 77 q 514 96 486 77 q 565 136 543 115 q 609 181 587 158 q 635 209 631 205 q 648 213 640 213 q 663 198 659 213 q 666 158 666 184 q 662 123 666 132 q 575 31 642 85 q 449 -24 509 -24 q 347 62 347 -24 q 388 203 347 116 q 276 81 333 132 q 92 -11 170 -11 q 28 20 49 -11 q 7 107 7 50 q 52 245 7 165 q 164 389 97 325 q 312 496 231 453 q 462 539 393 539 q 513 513 484 539 q 585 637 532 544 q 805 979 751 918 q 894 1017 833 1017 m 471 449 q 290 358 374 427 q 163 213 205 289 q 121 115 121 138 q 131 93 121 93 q 332 275 172 93 q 471 449 412 364 z "},"e":{"ha":441,"x_min":11,"x_max":509,"o":"m 509 507 q 472 429 509 463 q 390 395 436 395 q 370 402 375 395 q 366 420 366 409 q 368 443 366 432 q 314 418 344 435 q 241 368 284 401 q 197 318 197 334 q 213 313 197 313 q 262 324 229 313 q 309 335 296 335 q 326 334 322 335 q 345 313 335 329 q 355 288 355 297 q 338 264 355 279 q 298 241 320 249 q 268 229 275 233 q 125 119 125 149 q 215 66 125 66 q 331 103 273 66 q 420 166 380 134 q 470 206 460 199 q 486 214 481 214 q 504 174 504 214 q 499 122 504 135 q 472 92 494 110 q 197 -26 327 -26 q 87 -7 128 -26 q 11 98 11 27 q 140 240 11 192 q 107 270 115 252 q 100 327 100 288 q 137 411 100 367 q 227 484 174 456 q 440 549 347 549 q 486 538 463 549 q 509 507 509 527 z "},"f":{"ha":500,"x_min":-181,"x_max":683,"o":"m 4 218 l -1 237 q 4 247 -1 243 q 18 262 9 250 q 30 277 26 273 q 41 287 34 280 q 53 297 48 293 q 72 310 66 309 q 91 316 77 312 q 162 335 133 330 q 440 787 335 624 q 559 967 545 950 q 611 998 574 985 q 666 1011 648 1012 q 683 996 683 1011 q 679 980 683 990 q 604 860 674 970 q 273 335 346 455 l 290 329 q 454 358 448 358 q 487 349 460 358 q 521 338 513 340 q 536 313 536 336 q 522 288 536 290 q 467 274 511 286 q 397 257 423 263 q 433 166 433 214 q 390 39 433 118 q 281 -117 347 -40 q 141 -263 214 -195 q 1 -374 68 -332 q -98 -416 -66 -416 q -156 -399 -130 -416 q -181 -348 -181 -382 q -167 -269 -181 -314 q -137 -186 -153 -224 q -81 -78 -121 -149 q 71 182 -39 -2 q 41 178 52 178 q 22 183 31 178 q 10 195 14 188 q 4 218 4 209 m 195 -74 q 220 -44 195 -74 q 280 50 245 -15 q 315 156 315 115 q 275 228 315 197 l 199 211 q 164 151 188 192 q 124 84 140 110 q 85 18 109 58 q 46 -51 62 -23 q 11 -114 30 -79 q -21 -173 -9 -149 q -45 -222 -34 -198 q -68 -284 -68 -270 q -60 -298 -68 -298 q -4 -268 -47 -298 q 91 -185 38 -237 q 195 -74 144 -133 z "},"g":{"ha":581,"x_min":-6,"x_max":677,"o":"m 253 451 q 286 473 253 451 q 382 520 319 496 q 491 545 445 545 q 550 518 537 545 q 616 551 576 549 q 644 551 627 551 q 665 547 661 551 q 673 530 669 543 q 677 517 676 518 q 677 512 677 515 q 674 505 677 509 q 666 496 671 500 q 661 492 662 492 q 355 1 511 277 q 644 207 516 144 q 659 211 652 211 q 673 197 670 211 q 677 157 677 183 q 674 125 677 132 q 642 101 671 119 q 568 54 614 83 q 472 -11 523 24 q 271 -189 350 -96 q 125 -387 170 -312 q 71 -416 109 -416 q -6 -344 -6 -416 q 66 -193 -6 -270 q 166 -98 121 -135 q 216 -57 212 -62 q 352 157 266 18 q 210 35 279 80 q 107 -11 141 -11 q 3 78 3 -11 q 39 220 3 149 q 132 349 75 292 q 253 451 188 406 m 511 468 q 363 412 433 451 q 250 329 294 373 q 172 237 205 284 q 111 102 111 150 q 117 90 111 90 q 143 102 123 90 q 199 144 163 115 q 281 214 236 174 q 511 468 385 310 z "},"h":{"ha":546,"x_min":-35,"x_max":644,"o":"m 639 200 q 644 151 644 169 q 637 120 644 133 q 609 82 631 106 q 556 34 587 58 q 404 -25 481 -25 q 292 74 292 -25 q 441 417 292 160 q 449 431 447 427 q 249 231 397 394 q 53 0 102 68 q 33 -14 49 -6 q 7 -21 16 -21 q -13 -15 -2 -21 q -26 -9 -23 -9 q -35 -4 -35 -9 q -11 59 -35 2 q 53 199 14 115 q 374 803 161 431 q 490 987 448 933 q 591 1026 520 1026 q 608 1017 606 1026 q 610 998 610 1008 q 606 978 610 988 l 533 865 q 208 307 317 528 q 414 506 314 436 q 506 550 475 550 q 562 540 537 550 q 587 493 587 530 q 543 393 587 479 q 411 103 411 132 q 435 75 411 75 q 541 142 469 75 q 610 207 595 193 q 625 213 618 213 q 639 200 637 213 z "},"i":{"ha":281,"x_min":7,"x_max":484,"o":"m 484 745 q 448 667 484 706 q 373 628 412 628 q 334 669 334 628 q 368 746 334 709 q 444 783 402 783 q 473 773 462 783 q 484 745 484 763 m 374 153 q 370 123 374 132 q 264 14 336 56 q 138 -28 191 -28 q 45 8 84 -28 q 7 81 7 44 q 44 190 7 119 q 119 321 81 261 q 156 387 156 382 q 142 407 156 392 q 128 429 128 422 q 156 466 128 436 q 225 526 184 496 q 287 555 265 555 q 325 536 308 555 q 342 502 342 517 q 180 208 342 486 q 169 190 178 204 q 155 167 160 176 q 143 145 150 158 q 130 100 130 118 q 161 77 130 77 q 225 98 192 77 q 283 145 259 119 q 356 214 347 214 q 374 153 374 214 z "},"j":{"ha":307,"x_min":-339,"x_max":539,"o":"m 539 754 q 491 667 539 709 q 397 624 442 624 q 366 663 366 624 q 410 745 366 702 q 497 787 455 787 q 539 754 539 787 m 358 207 q 377 212 369 215 q 388 197 386 210 q 387 123 397 153 q 337 92 384 118 q 230 31 290 65 q 96 -58 170 -4 q -25 -165 23 -113 q -106 -286 -54 -222 q -274 -408 -207 -408 q -320 -391 -301 -408 q -339 -347 -339 -373 q -326 -297 -339 -320 q -281 -244 -313 -275 q -228 -194 -250 -214 q -157 -135 -205 -174 q -91 -81 -109 -96 q -15 49 -61 -31 q 58 174 31 128 q 180 367 136 303 q 165 366 177 368 q 146 365 154 365 q 130 373 138 366 q 119 397 121 381 q 196 477 115 421 q 307 533 278 533 q 358 482 358 533 q 353 461 358 477 q 236 266 347 446 q 83 21 125 86 q 120 48 89 25 q 186 96 152 71 q 258 147 221 121 q 358 207 345 207 z "},"k":{"ha":511,"x_min":-28,"x_max":612,"o":"m 53 -16 l 9 -7 q -23 18 -10 -5 q -27 26 -26 24 q -28 29 -28 27 q -27 35 -28 31 q -23 45 -26 39 q -18 58 -20 52 q 220 511 -4 106 q 454 929 444 916 q 470 947 465 941 q 481 957 475 953 q 491 962 488 961 q 503 967 494 964 q 522 973 512 970 q 543 982 532 977 q 557 990 553 988 q 568 993 562 993 q 580 987 574 993 q 586 971 586 981 l 586 966 q 409 645 583 954 q 220 307 236 336 q 376 411 273 328 q 480 521 479 494 q 499 560 481 548 q 537 572 517 572 q 573 558 558 572 q 587 513 587 545 q 551 433 586 481 q 469 343 517 385 q 296 227 365 255 q 422 78 351 78 q 517 141 460 83 q 557 183 538 162 q 582 209 577 205 q 594 213 586 213 q 610 193 607 213 q 612 153 612 174 q 608 123 612 132 q 522 31 589 85 q 396 -24 456 -24 q 328 -7 353 -24 q 289 20 303 9 q 260 49 275 31 q 235 80 245 68 q 213 114 225 92 q 195 145 200 136 q 179 175 189 154 q 167 197 168 195 q 140 143 155 172 q 113 89 125 114 q 90 43 100 64 q 74 9 80 22 q 66 -5 67 -5 q 53 -16 62 -16 z "},"l":{"ha":358,"x_min":68,"x_max":686,"o":"m 604 1018 q 662 999 637 1018 q 686 941 686 979 q 644 822 686 903 q 543 657 602 741 q 410 477 484 572 q 183 207 292 327 q 177 177 182 199 q 172 132 172 155 q 193 92 172 110 q 244 74 214 74 q 310 96 275 74 q 370 144 345 117 q 454 214 438 214 q 471 164 471 214 l 471 151 q 461 112 471 124 q 333 8 404 42 q 198 -26 262 -26 q 101 13 134 -26 q 68 119 68 52 q 139 430 68 252 q 298 734 210 609 q 604 1018 498 1018 m 574 905 q 567 916 574 916 q 442 780 543 916 q 296 564 341 644 q 211 361 251 483 q 432 657 291 456 q 574 905 574 858 z "},"m":{"ha":845,"x_min":-34,"x_max":935,"o":"m 42 -4 l 9 -3 l -3 -3 q -18 5 -10 -1 q -30 14 -26 12 q -34 24 -34 17 q -28 49 -34 31 q 227 514 104 340 q 271 543 241 533 q 330 553 301 553 q 347 526 347 553 q 341 506 347 519 q 314 465 336 494 q 262 400 292 437 q 229 358 233 363 q 396 502 321 454 q 505 549 471 549 q 556 529 538 549 q 574 488 574 510 q 571 451 574 466 q 560 421 568 437 q 546 394 552 405 q 527 365 541 382 q 508 340 513 347 q 487 314 503 333 q 470 293 471 295 q 523 349 489 312 q 580 412 557 387 q 639 468 604 437 q 705 519 674 500 q 853 566 778 566 q 897 549 879 566 q 914 510 914 533 q 859 402 914 488 q 750 230 804 316 q 695 121 695 143 q 707 84 695 90 q 734 79 718 78 q 780 100 751 81 q 833 141 810 120 q 902 207 870 175 q 917 213 909 213 q 932 193 930 213 q 935 153 935 174 q 931 123 935 132 q 844 31 911 85 q 715 -24 777 -24 q 705 -24 708 -24 q 608 15 635 -17 q 581 90 581 46 q 611 195 581 133 q 675 307 640 256 q 740 397 711 357 q 770 441 770 437 q 764 444 770 444 q 671 376 743 444 q 456 153 547 260 q 344 8 433 124 q 312 -5 334 -5 q 266 3 290 -5 q 242 25 242 12 q 350 215 242 32 q 458 415 458 399 q 438 432 458 432 q 355 372 418 432 q 90 46 184 208 q 66 16 83 37 q 42 -4 48 -4 z "},"n":{"ha":543,"x_min":-45,"x_max":648,"o":"m 396 104 q 437 75 396 75 q 491 96 458 75 q 551 144 524 118 q 631 214 621 214 q 648 163 648 214 q 616 93 648 112 q 467 -14 519 5 q 401 -23 437 -24 q 330 8 365 -22 q 294 82 294 39 q 317 182 294 126 q 365 277 340 237 q 424 369 389 317 q 461 435 459 422 l 460 436 q 349 348 437 434 q 203 198 260 262 q 65 28 145 134 q 28 -1 43 -1 q -10 8 14 -1 q -39 21 -34 17 q -45 33 -45 25 q -40 53 -45 41 q -31 73 -35 65 q -16 97 -26 81 q 24 166 -6 113 q 117 323 54 218 q 191 449 179 427 q 233 514 217 494 q 336 553 264 553 q 353 532 353 553 q 294 412 353 500 l 265 370 q 463 534 382 500 q 534 551 503 551 q 584 534 566 551 q 603 497 603 517 q 589 447 603 476 q 560 396 574 418 q 522 338 545 373 q 496 301 498 304 q 485 284 494 298 q 473 265 477 271 q 459 244 469 259 q 444 218 450 229 q 430 193 438 208 q 416 168 421 178 q 406 144 411 157 q 396 104 396 120 z "},"o":{"ha":509,"x_min":14,"x_max":566,"o":"m 503 517 q 513 517 503 517 q 544 498 523 517 q 566 443 566 480 q 539 345 566 405 q 467 223 513 285 q 365 106 420 161 q 246 17 310 52 q 130 -18 182 -18 q 46 15 77 -18 q 14 106 14 47 q 43 236 14 165 q 117 362 72 307 q 216 460 163 416 q 410 549 326 549 q 466 530 447 549 q 473 519 473 524 l 473 515 q 503 517 482 517 m 434 427 l 429 427 q 406 461 406 427 q 302 404 356 445 q 205 308 248 363 q 117 120 118 197 q 144 82 117 82 q 227 119 172 82 q 336 223 282 155 q 417 341 390 291 q 444 409 444 391 q 434 427 444 427 z "},"p":{"ha":543,"x_min":-271,"x_max":600,"o":"m 419 722 l 431 723 q 448 705 441 723 q 454 682 454 688 q 440 659 454 675 l 247 364 q 454 513 349 466 q 527 530 494 530 q 580 509 560 530 q 600 456 600 488 q 583 377 600 424 q 535 277 565 330 q 461 171 505 224 q 371 74 418 117 q 269 3 324 31 q 171 -24 213 -24 q 86 54 86 -24 q -97 -233 7 -67 q -208 -409 -201 -399 q -221 -418 -216 -418 q -236 -412 -226 -418 q -258 -392 -247 -406 q -270 -351 -270 -378 q -254 -296 -271 -323 q 99 278 -163 -143 q 382 714 360 700 q 406 722 394 722 l 419 722 m 479 410 q 465 424 479 424 q 310 311 429 424 q 122 106 192 199 q 174 84 140 84 q 264 121 209 84 q 366 210 319 159 q 446 317 412 261 q 479 410 479 374 z "},"q":{"ha":568,"x_min":-5,"x_max":667,"o":"m 641 555 q 647 555 641 555 q 660 546 653 555 q 667 525 667 536 q 655 491 667 514 q 617 421 643 467 q 559 320 591 375 q 505 227 526 264 q 429 94 484 189 q 262 -211 318 -102 q 282 -191 265 -208 q 311 -161 298 -174 q 361 -126 347 -126 q 370 -127 366 -126 q 377 -128 374 -127 q 384 -130 380 -128 q 390 -133 388 -132 q 396 -137 393 -134 q 401 -141 399 -140 q 406 -146 402 -142 q 411 -151 410 -150 q 416 -157 412 -152 q 424 -165 420 -161 q 428 -178 428 -170 q 419 -198 428 -186 q 389 -229 410 -210 q 364 -250 367 -248 q 170 -412 199 -412 q 122 -392 142 -412 q 102 -347 102 -372 q 326 109 102 -269 q 332 119 330 115 q 336 126 334 123 q 218 24 289 73 q 96 -25 146 -25 q 20 6 45 -25 q -5 90 -5 37 q 26 206 -5 142 q 107 324 58 270 q 308 489 209 435 q 470 542 406 542 q 549 500 534 542 q 564 526 557 519 q 600 545 570 534 q 641 555 629 555 m 513 446 q 479 454 501 454 q 365 412 434 454 q 255 328 296 369 q 165 216 214 288 q 117 110 117 145 q 130 96 117 96 q 247 162 161 96 q 386 284 332 229 q 513 446 440 340 z "},"r":{"ha":485,"x_min":-46,"x_max":600,"o":"m 264 370 q 536 551 424 551 q 582 535 564 551 q 600 492 600 518 q 563 403 600 465 q 493 298 525 341 q 455 277 476 277 q 421 292 433 277 q 410 329 410 308 q 460 435 410 376 l 458 436 q 348 348 436 434 q 197 194 259 262 q 62 28 135 125 q 27 -1 41 -1 q -12 8 12 -1 q -41 21 -36 17 q -46 35 -46 25 q -41 57 -46 44 q -21 92 -35 69 q 23 167 -6 115 q 115 323 53 218 q 190 449 178 427 q 232 514 216 494 q 335 553 262 553 q 351 532 351 553 q 292 412 351 500 l 264 370 z "},"s":{"ha":511,"x_min":28,"x_max":591,"o":"m 117 136 l 116 125 q 129 96 116 108 q 153 83 142 83 q 297 108 234 83 q 359 157 359 132 q 337 177 359 168 q 260 198 314 185 q 182 217 206 210 q 143 231 157 224 q 114 248 129 237 q 82 314 82 270 q 115 402 82 359 q 197 477 148 446 q 304 532 247 509 q 493 579 416 579 q 586 547 568 579 q 591 521 591 535 l 591 516 q 576 460 591 480 q 528 423 561 439 q 476 407 495 407 q 451 410 456 407 q 443 417 446 412 q 434 423 439 421 q 429 433 429 425 q 436 450 429 441 q 446 468 443 458 q 352 447 401 466 q 268 406 303 429 q 210 361 233 382 q 187 331 187 340 q 218 315 187 321 q 403 267 359 287 q 464 220 447 246 q 481 174 481 195 q 446 92 481 130 q 361 28 412 53 q 171 -25 252 -25 q 59 0 90 -25 q 28 58 28 24 q 45 121 28 92 q 90 150 62 150 q 117 136 117 150 z "},"t":{"ha":298,"x_min":34,"x_max":635,"o":"m 509 873 l 536 867 q 547 861 543 867 q 552 849 552 854 q 538 820 552 844 q 504 766 524 796 q 484 733 485 736 q 558 737 536 737 q 589 734 581 737 q 607 717 597 731 q 627 696 618 703 q 635 675 635 689 q 618 651 635 661 q 581 639 601 641 q 408 623 424 623 q 254 360 353 538 q 149 138 155 182 q 146 104 146 117 q 174 78 146 78 q 236 99 202 78 q 298 146 270 121 q 380 214 374 214 q 397 153 397 214 q 367 93 397 119 q 252 4 298 34 q 158 -26 205 -26 q 139 -24 148 -26 q 59 16 85 -14 q 34 96 34 45 q 64 217 35 146 q 138 370 94 289 q 285 616 212 501 l 259 613 q 168 604 180 604 l 161 604 q 123 612 142 604 q 105 631 105 620 q 115 654 105 643 q 127 671 125 665 q 162 704 132 686 q 209 723 193 722 q 239 725 224 724 q 272 726 254 726 q 299 728 290 727 l 360 730 q 438 840 417 816 q 463 867 460 865 q 477 869 467 869 l 509 873 z "},"u":{"ha":549,"x_min":0,"x_max":635,"o":"m 616 213 q 632 193 629 213 q 635 153 635 174 q 631 123 635 132 q 545 31 611 85 q 418 -24 478 -24 q 351 -2 382 -24 q 319 75 319 20 q 349 183 319 130 q 85 -28 180 -28 q 23 -1 47 -28 q 0 55 0 26 q 8 115 0 84 q 25 170 16 146 q 53 231 35 195 q 79 283 71 267 q 107 332 88 299 q 158 420 127 365 q 211 503 190 476 q 251 530 231 530 q 286 514 271 530 q 300 488 300 498 q 255 396 300 477 q 121 113 121 153 q 128 103 121 103 q 290 244 161 103 q 440 425 420 385 q 480 492 460 465 q 509 525 499 519 q 584 545 538 544 q 595 545 591 545 q 605 533 600 544 q 610 516 610 522 q 556 415 604 497 q 503 322 509 333 q 423 106 423 157 q 445 78 423 78 q 540 141 484 83 q 580 184 560 162 q 605 209 600 205 q 616 213 610 213 z "},"v":{"ha":505,"x_min":31,"x_max":608,"o":"m 608 522 q 555 386 608 475 q 421 203 503 296 q 248 44 340 111 q 105 -24 157 -24 q 54 -3 77 -24 q 31 61 31 17 q 73 201 31 106 q 156 363 115 297 q 112 336 120 336 q 93 354 104 336 q 81 381 81 372 q 84 396 81 391 q 273 545 218 545 q 311 531 296 545 q 327 498 327 517 q 281 389 327 479 q 189 207 235 299 q 142 92 142 115 q 146 87 142 87 q 242 158 164 87 q 368 288 319 228 q 452 410 416 349 q 488 490 488 471 q 480 521 488 509 q 473 548 473 534 q 493 581 473 563 q 544 599 513 599 q 608 522 608 599 z "},"w":{"ha":769,"x_min":26,"x_max":863,"o":"m 747 504 l 739 536 q 758 580 739 564 q 806 596 777 596 q 863 524 863 596 q 812 379 863 471 q 690 202 760 288 q 541 53 620 116 q 420 -11 463 -11 q 360 12 378 -11 q 342 57 342 35 q 345 97 342 78 q 381 224 352 163 q 225 53 309 129 q 85 -22 142 -22 q 42 -6 58 -22 q 26 49 26 10 q 73 196 26 88 q 162 368 119 303 q 135 359 146 359 q 109 372 123 359 q 95 393 95 385 q 105 414 95 400 q 183 485 115 429 q 276 541 251 541 q 324 531 301 541 q 347 505 347 522 q 252 311 347 488 q 158 119 158 134 q 159 117 158 117 q 301 262 174 117 q 503 501 429 408 q 533 518 513 518 l 539 517 l 576 525 q 594 518 585 525 q 602 506 602 511 q 578 457 602 500 q 500 293 554 414 q 446 123 446 172 q 454 111 446 111 q 562 204 480 111 q 695 383 644 298 q 747 504 747 469 z "},"x":{"ha":515,"x_min":-54,"x_max":621,"o":"m 536 611 q 560 616 545 616 q 598 599 575 616 q 621 569 621 582 q 612 549 621 557 q 550 493 604 542 q 429 382 497 445 q 319 282 360 319 q 314 148 314 217 q 332 78 314 78 q 427 141 372 83 q 468 184 448 162 q 492 209 488 205 q 503 213 496 213 q 518 199 515 213 q 522 158 522 184 q 518 123 522 131 q 432 31 500 85 q 304 -24 365 -24 q 206 112 206 -24 q 210 179 206 140 q 28 -28 97 60 q 5 -35 22 -35 q -33 -18 -12 -35 q -54 13 -54 -1 q -51 35 -54 26 q 36 148 -43 62 q 218 322 116 234 q 216 412 216 380 q 212 444 216 444 q 187 424 208 444 q 153 404 165 404 q 131 426 141 404 q 121 456 121 448 q 173 534 121 487 q 269 582 225 582 q 301 569 281 582 q 322 542 321 557 q 327 424 327 471 q 536 611 433 540 z "},"y":{"ha":542,"x_min":-5,"x_max":636,"o":"m 248 -225 q 227 -259 244 -229 q 190 -322 210 -290 q 141 -382 170 -353 q 93 -413 113 -410 q 68 -415 74 -415 q 6 -352 6 -415 q 83 -179 6 -278 q 156 -99 112 -142 q 204 -50 200 -56 q 306 140 208 -44 q 185 25 241 69 q 78 -25 130 -20 l 73 -25 q 21 -8 47 -25 q -5 53 -5 9 q 30 178 -5 117 q 72 249 42 199 q 128 346 102 299 q 178 433 153 383 q 218 504 204 482 q 243 525 231 525 q 275 510 256 525 q 294 473 294 494 q 205 291 294 452 q 117 107 117 130 q 122 102 117 102 q 203 154 140 102 q 342 287 266 205 q 475 452 427 377 q 485 466 481 461 q 494 480 488 471 q 504 493 500 488 q 512 504 507 498 q 522 514 517 511 q 530 521 526 517 q 547 528 538 528 q 575 524 556 528 q 597 515 593 519 q 605 506 601 510 q 612 492 612 498 q 606 475 612 486 q 543 368 601 465 q 310 -50 374 81 q 600 207 413 37 q 615 213 608 213 q 636 149 636 213 q 629 123 636 130 q 248 -225 427 -33 z "},"z":{"ha":498,"x_min":-3,"x_max":576,"o":"m 355 433 q 98 412 134 420 l 96 412 q 82 430 82 412 q 103 478 82 448 q 155 518 124 509 q 224 528 186 528 q 488 547 379 531 q 507 554 489 547 q 538 561 525 561 q 564 546 552 561 q 576 508 576 531 q 564 473 576 485 q 519 452 551 460 q 151 96 222 220 q 264 119 173 102 q 526 187 503 163 q 541 194 532 194 q 559 188 549 194 q 570 129 570 181 q 556 92 570 114 q 524 62 542 70 q 328 23 506 54 q 70 -18 90 -18 q 45 -18 50 -18 q 35 -16 39 -17 q 27 -14 31 -16 q 22 -12 24 -13 q 17 -9 20 -12 q 13 -7 14 -7 q 5 1 12 -6 q -3 37 -3 8 q 0 71 -3 65 q 84 192 33 133 q 175 286 135 252 q 275 368 215 321 q 355 433 334 416 z "},"{":{"ha":610,"x_min":142,"x_max":1027,"o":"m 282 -52 q 336 -103 282 -108 q 416 -86 368 -100 q 478 -73 464 -73 q 493 -86 493 -73 q 451 -142 493 -113 q 361 -189 409 -172 q 227 -215 292 -215 q 180 -194 200 -215 q 142 -103 142 -155 q 170 13 142 -50 q 235 135 197 75 q 313 253 274 195 q 406 447 406 391 q 350 500 406 488 q 304 511 327 505 q 253 581 249 526 q 268 617 254 603 q 288 632 281 632 q 314 625 295 632 q 360 618 332 618 q 439 641 389 618 q 532 705 490 663 q 593 792 574 747 q 616 878 613 838 q 619 955 618 917 q 745 1142 622 1095 q 829 1158 788 1158 q 1027 1088 1027 1158 q 1014 1044 1027 1069 q 979 1007 1000 1019 q 937 1016 958 996 q 885 1044 916 1036 q 824 1048 854 1053 q 773 1021 794 1044 q 752 946 751 997 q 741 838 753 895 q 699 728 728 782 q 479 560 637 614 q 533 419 565 517 q 426 220 506 336 q 307 29 331 79 q 282 -52 282 -22 z "},"|":{"ha":521,"x_min":28,"x_max":806,"o":"m 762 1141 l 791 1141 q 806 1131 806 1141 q 762 1049 806 1128 q 479 526 718 971 q 136 -131 241 81 q 117 -152 128 -147 q 73 -166 87 -166 l 56 -172 q 41 -168 52 -172 q 29 -160 30 -163 q 28 -143 28 -156 q 28 -127 28 -130 q 358 519 42 -67 q 708 1136 673 1105 q 725 1143 714 1143 l 762 1141 z "},"}":{"ha":610,"x_min":-123,"x_max":762,"o":"m 669 443 l 607 446 q 513 424 564 446 q 420 360 462 401 q 354 262 378 318 q 319 151 329 205 q 302 44 310 97 q 234 -132 283 -83 q 160 -179 204 -162 q 75 -195 117 -195 q -123 -125 -123 -195 q -102 -71 -123 -102 q -63 -41 -82 -41 q -30 -54 -43 -41 q 44 -87 1 -87 q 153 6 135 -87 q 479 532 237 450 q 430 577 446 557 q 413 629 413 598 q 436 703 413 659 q 494 787 460 747 q 562 867 528 827 q 642 1020 642 962 q 629 1061 642 1046 q 597 1075 616 1075 q 510 1055 578 1075 q 427 1036 442 1036 q 412 1049 412 1036 q 426 1122 412 1097 q 479 1152 440 1147 q 509 1157 482 1153 l 560 1166 q 668 1178 631 1178 q 725 1157 705 1178 q 762 1066 762 1118 q 740 965 762 1013 q 687 877 718 917 q 624 798 655 836 q 546 642 547 705 q 570 596 545 614 q 626 571 595 578 q 681 548 656 564 q 707 510 707 533 q 693 465 707 487 q 669 443 679 443 z "},"~":{"ha":538,"x_min":102,"x_max":639,"o":"m 391 489 q 398 480 391 489 q 422 458 405 472 q 463 444 440 444 q 508 451 486 444 q 543 470 530 459 q 564 493 555 481 q 603 520 586 520 q 630 502 621 520 q 639 464 639 484 q 633 433 639 444 q 558 350 609 380 q 465 319 508 319 q 398 328 422 319 q 358 351 374 338 q 329 378 342 365 q 275 412 297 412 q 235 402 254 412 q 204 378 217 392 q 178 351 191 365 q 120 317 148 317 q 107 327 113 317 q 102 360 102 336 q 124 419 102 384 q 178 479 147 454 q 287 534 248 534 q 351 519 326 534 q 391 489 377 505 z "},"":{"ha":288,"x_min":0,"x_max":0,"o":""},"":{"ha":454,"x_min":-48,"x_max":687,"o":"m 21 -71 l -31 -64 q -48 -54 -48 -64 q -45 -45 -48 -52 q 422 682 165 264 q 450 709 437 705 q 452 710 451 709 q 454 712 452 711 q 458 713 456 713 q 482 718 469 718 q 501 722 496 718 q 522 726 507 726 q 547 700 547 726 q 431 468 547 654 q 203 120 315 281 q 60 -64 91 -40 q 21 -71 51 -71 m 687 952 q 687 931 687 952 q 651 874 687 909 q 575 840 615 840 q 536 879 536 840 q 572 957 536 918 q 648 996 608 996 q 687 952 687 996 z "},"":{"ha":656,"x_min":129,"x_max":724,"o":"m 630 353 q 646 322 646 353 q 614 255 646 292 q 534 191 583 218 q 331 119 431 132 q 236 -77 317 92 q 218 -92 230 -90 q 181 -96 193 -96 q 157 -92 169 -96 q 144 -82 144 -87 q 140 -71 143 -78 q 138 -60 138 -64 q 227 127 138 -54 q 129 283 129 161 q 179 448 129 367 q 313 589 229 529 q 495 673 397 648 q 598 881 585 856 q 650 918 612 905 q 700 930 688 930 q 724 913 724 930 q 707 882 724 909 q 620 713 690 855 l 607 687 l 608 687 q 673 666 644 687 q 702 609 702 645 q 666 523 702 573 q 593 472 630 472 q 551 513 551 472 q 571 551 551 524 q 591 588 591 578 q 584 598 591 598 q 563 597 576 598 q 381 224 448 362 q 600 332 503 242 q 630 353 623 353 m 279 233 q 364 406 310 296 q 439 559 418 515 q 300 446 357 517 q 244 298 244 375 q 279 233 244 252 z "},"":{"ha":829,"x_min":-61,"x_max":898,"o":"m 347 320 q 202 309 255 309 q 135 315 150 309 q 121 334 121 321 l 130 345 q 146 368 141 357 q 182 401 151 382 q 238 422 214 420 q 358 430 262 425 q 366 469 366 464 q 430 623 382 550 q 541 745 478 696 q 673 822 604 793 q 799 850 743 850 q 877 824 855 850 q 898 764 898 798 q 873 687 898 729 q 817 612 849 644 q 751 557 784 579 q 695 535 719 535 q 654 556 671 535 q 638 596 638 578 q 642 623 638 615 q 656 638 648 638 q 667 629 658 638 q 747 681 702 644 q 792 729 792 718 q 789 743 792 739 q 773 746 785 746 q 734 740 760 746 q 665 713 707 734 q 586 661 623 692 q 514 569 548 629 q 468 435 481 510 q 578 437 515 437 q 648 434 641 437 q 668 414 655 431 q 687 393 680 397 q 694 378 694 389 q 677 358 694 367 q 461 333 640 338 q 410 172 452 256 q 483 138 438 160 q 553 106 528 117 q 687 75 625 75 q 767 86 750 75 q 788 98 783 98 q 793 88 793 98 q 770 45 793 78 q 732 -2 747 12 q 652 -20 695 -20 q 554 0 608 -20 q 434 52 499 21 q 341 94 369 83 q 88 -2 229 -2 q -50 51 -24 -2 q -61 102 -61 75 q -52 148 -61 130 q -22 184 -43 166 q 149 224 24 224 q 295 205 193 224 q 347 320 330 247 m 130 131 q 41 110 41 131 q 57 96 41 102 q 93 90 72 90 q 220 124 159 90 q 130 131 168 131 z "},"":{"ha":694,"x_min":127,"x_max":766,"o":"m 213 348 q 314 570 213 479 q 291 605 304 583 q 253 652 278 626 q 225 687 229 679 q 237 701 222 695 q 295 694 252 706 q 355 662 339 682 q 387 620 377 632 q 536 656 457 656 q 612 624 570 656 q 675 670 631 638 q 737 715 720 703 q 764 726 754 728 q 766 669 781 724 q 762 652 766 661 l 755 635 q 726 600 749 621 q 665 543 703 578 q 666 527 666 532 q 581 279 666 381 q 593 250 585 267 q 602 125 621 178 q 566 66 582 71 q 546 78 553 60 q 537 102 543 83 l 520 153 q 501 209 509 185 q 376 167 433 167 q 279 195 319 167 q 175 87 184 101 q 146 68 161 66 q 127 132 121 71 q 138 177 130 153 q 151 207 146 201 q 170 225 161 218 q 185 239 179 233 q 204 257 191 245 q 224 275 218 269 q 213 348 213 309 m 302 356 q 385 269 302 269 q 471 306 425 269 q 542 392 516 342 q 567 481 567 442 q 551 541 567 521 q 519 561 534 561 q 435 539 476 561 q 365 486 393 517 q 302 356 302 416 z "},"":{"ha":704,"x_min":190,"x_max":920,"o":"m 513 38 q 524 26 524 38 q 520 19 524 24 q 487 -23 516 15 q 443 -78 458 -61 q 417 -112 429 -94 q 399 -138 406 -130 q 380 -145 391 -145 q 324 -117 347 -145 q 302 -65 302 -89 q 376 83 302 -41 q 279 79 319 79 q 227 85 239 79 q 214 104 214 91 q 235 137 231 125 q 266 168 239 150 q 307 189 292 186 q 448 200 371 197 q 666 524 555 366 q 258 219 410 219 q 223 230 240 219 q 198 256 205 240 q 190 303 190 271 q 197 363 190 334 q 213 415 205 393 q 241 473 220 437 q 271 526 261 509 q 308 582 280 543 q 378 680 340 628 q 260 613 308 613 q 233 619 239 613 q 215 639 227 625 q 203 668 203 652 q 208 693 203 684 q 219 707 214 702 q 234 721 225 713 q 246 730 243 728 q 256 732 248 732 q 264 730 264 732 q 258 723 264 728 q 252 715 252 718 q 258 712 252 712 q 274 715 264 712 q 298 726 283 718 q 324 741 313 734 q 432 806 404 786 q 471 833 459 826 q 509 840 490 843 q 524 834 517 836 q 534 831 532 832 q 564 796 564 814 q 547 754 564 779 q 497 684 529 730 q 416 564 465 637 q 303 345 303 393 q 309 337 303 337 q 755 747 395 337 l 790 785 q 787 780 790 785 q 807 799 798 794 q 838 804 817 804 l 868 803 l 888 804 q 909 796 897 804 q 920 781 921 788 q 867 687 919 773 q 719 442 815 600 q 573 203 622 284 l 603 203 q 650 200 644 203 q 667 180 656 197 q 682 160 677 164 q 687 145 687 156 q 673 127 687 135 q 511 98 654 115 q 444 -24 462 14 q 492 21 471 4 q 513 38 513 38 z "},"":{"ha":521,"x_min":35,"x_max":810,"o":"m 368 408 l 396 408 q 411 397 411 408 q 392 361 411 395 q 345 274 374 328 q 298 182 317 220 q 233 51 279 145 q 142 -131 186 -44 q 124 -152 135 -147 q 80 -166 94 -166 l 63 -172 q 48 -168 59 -172 q 36 -160 37 -163 q 35 -143 35 -156 q 35 -127 35 -130 q 175 167 68 -41 q 313 403 281 376 q 332 409 319 409 l 368 408 m 766 1139 l 795 1140 q 810 1129 810 1140 q 744 1013 810 1123 q 522 602 637 833 q 503 579 512 583 q 460 566 469 566 l 442 560 q 427 565 438 560 q 415 572 416 569 q 414 589 414 575 q 414 604 414 603 q 562 894 444 682 q 711 1135 679 1106 q 730 1141 718 1141 l 766 1139 z "},"":{"ha":576,"x_min":60,"x_max":785,"o":"m 692 901 q 785 848 785 901 q 767 784 785 808 q 714 745 748 761 q 662 728 680 728 q 638 730 644 728 q 631 734 633 732 q 627 740 629 736 q 621 744 625 743 q 616 751 616 746 q 617 761 615 755 q 623 772 620 766 q 630 782 627 777 q 635 789 634 787 q 510 756 576 786 q 405 696 444 726 q 366 653 366 665 q 394 640 366 648 q 464 622 423 633 q 546 595 505 611 q 615 550 587 579 q 644 475 644 521 q 609 396 644 429 q 507 328 574 362 q 587 246 587 305 q 543 133 587 186 q 431 46 498 80 q 154 -27 287 -27 q 60 24 60 -27 q 79 89 60 66 q 132 129 98 113 q 184 145 166 145 q 207 143 202 145 q 214 139 212 142 q 219 134 216 137 q 225 129 221 131 q 230 123 229 127 q 228 113 231 118 q 222 102 226 107 q 215 91 219 96 q 211 84 212 86 q 327 99 273 84 q 413 137 381 115 q 480 221 480 184 q 381 269 480 239 q 299 295 340 280 q 230 336 258 311 q 201 404 201 362 q 332 545 201 485 q 276 572 294 554 q 258 627 258 591 q 282 703 258 664 q 347 771 307 742 q 436 826 387 801 q 533 867 484 851 q 692 901 636 901 m 525 456 q 427 516 525 502 q 344 473 371 503 q 317 419 317 443 q 397 362 317 386 q 484 397 444 373 q 525 456 525 422 z "},"":{"ha":555,"x_min":342,"x_max":711,"o":"m 657 790 q 669 790 657 790 q 696 778 681 790 q 711 731 711 765 q 676 660 711 696 q 596 623 642 623 q 558 638 571 623 q 545 671 545 653 q 552 706 545 688 q 573 743 559 724 q 609 776 586 762 q 657 790 633 790 m 488 733 q 488 716 488 733 q 456 662 488 700 q 383 623 424 623 q 342 680 342 623 q 368 755 342 716 q 439 794 393 794 q 473 780 458 794 q 488 733 488 766 z "},"":{"ha":1042,"x_min":194,"x_max":1119,"o":"m 1119 762 q 941 226 1119 464 q 701 15 845 98 q 452 -60 572 -60 q 369 -37 410 -60 q 297 20 328 -15 q 243 98 267 56 q 194 256 194 181 q 219 416 194 331 q 283 574 243 502 q 374 712 323 646 q 475 824 425 778 q 654 925 585 924 l 659 925 q 685 935 666 925 q 728 956 704 944 q 894 986 791 986 q 1035 932 960 986 q 1095 861 1071 905 q 1119 762 1119 816 m 497 75 q 674 131 583 75 q 834 269 765 186 q 948 454 903 352 q 993 654 993 556 q 946 822 993 752 q 852 892 900 892 q 749 870 804 892 q 673 833 694 848 q 382 564 461 683 q 318 428 330 482 q 301 269 301 352 q 326 187 301 231 q 398 109 351 142 q 497 75 445 75 m 764 403 q 780 419 776 416 q 793 422 784 422 q 805 413 803 422 q 807 379 807 404 q 788 320 807 355 q 741 262 770 286 q 680 220 713 238 q 561 184 612 184 q 439 232 481 184 q 397 355 397 279 q 481 566 397 455 q 682 734 572 686 q 792 761 744 761 q 869 740 840 761 q 899 682 899 719 q 862 594 899 646 q 789 543 826 543 q 745 585 745 543 q 766 623 745 595 q 786 661 786 651 q 779 671 786 671 q 686 637 736 671 q 597 556 636 604 q 531 454 557 508 q 504 360 504 399 q 565 286 504 286 q 764 403 656 286 z "},"":{"ha":392,"x_min":127,"x_max":601,"o":"m 478 546 q 583 608 564 608 q 601 593 601 608 q 595 570 601 583 q 523 484 576 531 q 429 436 471 436 q 394 456 414 436 q 374 493 374 476 q 389 545 374 510 q 252 429 291 429 q 205 457 229 429 q 182 501 182 484 q 191 536 182 517 q 480 832 262 700 q 511 838 489 838 q 559 823 534 838 q 588 783 585 809 q 595 762 595 772 q 576 726 595 752 q 555 697 557 701 q 541 677 553 694 q 526 656 528 659 l 514 637 q 501 617 504 623 q 490 598 498 611 q 478 576 481 585 q 469 556 474 568 q 459 532 463 544 l 478 546 m 210 381 l 281 379 l 391 381 q 417 373 410 380 q 425 345 425 366 q 391 298 425 304 q 365 296 384 296 l 288 300 l 146 290 q 130 302 132 292 q 127 334 127 316 q 155 379 127 379 q 210 381 173 381 m 513 782 q 369 669 435 735 q 263 526 303 602 q 515 782 408 632 q 513 782 515 783 z "},"":{"ha":519,"x_min":113,"x_max":572,"o":"m 118 290 q 113 304 113 296 q 149 350 113 330 q 213 402 182 370 q 275 470 244 434 q 315 514 307 505 q 335 524 323 524 q 359 453 359 524 q 354 414 359 427 q 335 392 350 401 q 214 292 245 337 q 245 200 235 212 q 255 156 255 189 q 238 88 255 123 q 198 53 220 53 q 169 61 176 53 q 160 101 163 68 q 144 197 158 134 q 118 290 130 260 m 290 294 q 286 308 286 300 q 319 353 286 331 q 375 391 353 375 q 411 418 397 407 q 457 457 424 429 q 507 499 490 485 q 528 516 524 513 q 534 522 532 519 q 549 528 541 528 q 572 457 572 528 q 568 418 572 431 q 544 393 564 406 q 467 346 524 380 q 386 296 410 312 q 422 201 400 220 q 441 148 441 183 q 424 78 441 113 q 384 43 406 43 q 355 51 361 43 q 345 92 349 60 q 337 146 341 123 q 329 186 333 168 q 321 212 324 203 q 290 294 304 252 z "},"":{"ha":576,"x_min":177,"x_max":642,"o":"m 487 554 q 515 554 487 554 q 576 550 542 553 q 624 538 610 547 q 642 507 639 530 q 633 455 645 485 q 608 397 622 425 q 575 334 593 369 q 551 286 556 298 q 542 261 546 273 q 535 242 538 249 q 528 228 532 236 q 511 212 521 212 q 449 232 471 212 q 447 290 428 252 q 483 352 453 304 q 536 469 555 467 q 322 465 439 475 q 196 456 205 456 q 177 475 177 456 q 184 507 177 489 q 191 527 191 525 q 194 535 192 530 q 198 541 197 540 q 208 551 205 550 q 214 553 210 551 q 228 555 219 555 q 295 556 236 555 q 394 556 355 556 q 487 554 433 555 z "},"":{"ha":441,"x_min":102,"x_max":460,"o":"m 145 271 l 142 271 q 115 278 128 269 q 102 300 102 287 q 109 323 102 313 q 118 344 116 333 q 143 375 121 355 q 180 397 165 395 q 234 401 195 399 q 311 407 273 404 q 386 410 350 410 q 428 407 422 410 q 440 388 433 403 q 454 367 448 374 q 460 345 460 360 q 448 318 460 330 q 420 305 435 307 q 386 300 405 302 q 343 295 367 298 q 299 290 320 293 q 251 282 278 288 q 145 271 199 272 z "},"":{"ha":694,"x_min":313,"x_max":859,"o":"m 859 865 q 836 705 859 780 q 773 578 812 631 q 686 488 734 526 q 489 413 590 413 q 369 464 421 413 q 313 625 313 519 q 341 759 313 693 q 410 871 369 825 q 574 990 498 970 q 591 994 583 992 q 612 999 598 996 q 640 1004 627 1002 q 716 1008 677 1008 q 808 966 756 1008 q 859 865 859 924 m 538 837 l 522 836 q 515 839 515 836 q 526 862 515 842 q 564 887 536 878 q 608 897 591 897 q 699 876 665 897 q 733 821 733 856 q 700 750 733 786 q 621 699 666 714 q 641 638 624 679 q 673 576 658 597 q 755 689 724 625 q 786 812 786 753 q 754 905 786 871 q 692 939 722 939 q 624 932 663 939 q 575 920 585 924 q 489 860 529 900 q 425 779 449 821 q 374 625 374 688 q 410 526 374 561 q 502 491 447 491 q 611 526 557 491 q 583 603 598 549 q 564 688 568 657 q 536 686 554 686 q 480 551 517 653 q 457 540 473 540 q 428 549 441 540 q 414 570 414 557 q 538 837 431 672 m 660 820 q 654 836 660 830 q 625 842 647 842 l 614 842 q 590 794 606 825 q 565 742 574 763 l 572 742 q 630 767 600 742 q 660 820 660 792 z "},"":{"ha":555,"x_min":352,"x_max":705,"o":"m 571 660 l 491 660 q 364 653 415 660 q 352 680 352 653 q 401 772 352 772 l 545 766 q 643 775 605 766 q 690 785 681 785 q 705 759 705 785 q 701 722 705 734 q 692 701 696 709 q 676 685 687 692 q 659 674 666 678 q 637 667 652 670 q 616 663 622 664 q 571 660 602 660 z "},"":{"ha":278,"x_min":256,"x_max":503,"o":"m 503 746 q 459 629 503 683 q 345 575 416 575 q 278 600 300 575 q 256 660 256 625 q 277 730 256 695 q 314 764 298 765 q 415 822 345 822 q 479 800 455 822 q 503 746 503 779 m 345 730 q 322 661 322 692 q 343 629 322 629 q 380 643 365 629 q 403 675 395 656 q 418 744 418 713 q 403 774 418 774 q 385 762 393 774 q 371 737 378 749 q 358 725 364 725 q 345 730 352 725 z "},"":{"ha":610,"x_min":130,"x_max":656,"o":"m 622 421 q 620 417 622 421 q 608 408 618 414 q 584 403 599 403 q 437 410 569 403 q 419 357 430 393 q 372 254 389 254 q 349 270 359 254 q 336 289 339 286 q 326 300 332 293 q 316 311 319 307 q 307 327 307 323 q 308 334 307 331 q 325 372 310 338 q 341 411 339 407 q 214 408 238 408 q 170 433 170 408 q 184 467 170 441 q 202 496 199 492 q 210 506 205 501 q 226 515 218 515 q 373 510 312 515 q 403 586 390 561 q 419 623 416 612 q 435 652 427 652 q 475 636 449 652 q 502 597 502 621 q 476 507 502 574 q 606 503 576 503 q 656 482 656 503 q 650 470 656 479 q 635 445 644 462 q 622 421 626 428 m 309 107 l 162 104 q 130 136 130 104 q 144 190 130 168 q 184 211 159 211 q 304 208 251 211 q 570 199 440 199 q 588 183 581 199 q 594 148 594 168 q 577 113 594 128 q 527 98 559 98 l 309 107 z "},"":{"ha":339,"x_min":98,"x_max":569,"o":"m 275 443 q 251 421 267 435 q 231 404 235 408 q 361 422 330 422 q 397 410 392 422 q 398 408 397 409 l 397 408 q 408 389 403 405 q 412 363 412 372 l 412 360 q 397 339 412 342 q 259 324 345 329 q 146 315 173 319 q 112 326 135 315 q 98 352 98 340 q 143 422 98 380 q 153 433 149 427 q 226 495 168 448 q 301 561 284 543 q 366 625 319 579 q 425 682 414 671 q 457 714 436 693 q 492 763 492 749 q 474 766 492 766 q 405 733 456 766 q 302 635 353 700 q 303 631 303 636 q 285 615 298 621 q 264 608 272 608 q 227 624 242 608 q 220 644 220 627 q 245 692 220 660 q 309 757 271 724 q 401 813 348 789 q 495 838 455 838 q 552 814 534 838 q 569 769 569 791 q 275 443 569 699 z "},"":{"ha":371,"x_min":141,"x_max":576,"o":"m 412 488 q 307 522 410 522 q 288 533 295 522 q 281 557 281 545 q 288 581 281 570 q 321 607 296 593 q 353 626 345 621 l 369 637 q 501 755 501 724 q 492 759 501 759 q 391 715 462 759 q 285 619 315 669 q 266 608 279 608 q 242 620 253 608 q 231 646 231 631 l 231 652 q 257 699 232 669 q 319 756 282 728 q 409 806 357 785 q 502 827 460 827 q 559 809 543 827 q 576 763 576 792 q 537 686 576 734 q 410 584 497 638 q 469 559 444 580 q 495 510 495 538 q 494 505 494 507 q 446 415 490 461 q 335 340 401 370 q 221 311 269 311 q 157 330 174 311 q 141 370 141 349 q 159 410 141 391 q 195 430 178 430 q 207 414 207 430 q 226 393 212 393 q 303 409 259 393 q 380 447 348 425 q 412 488 412 470 z "},"":{"ha":555,"x_min":391,"x_max":673,"o":"m 616 714 q 514 650 597 696 q 411 603 431 603 q 391 621 391 603 q 394 633 391 627 q 438 705 409 673 q 503 766 468 737 q 565 813 538 794 q 602 841 591 831 q 616 863 612 850 q 634 875 621 875 q 660 851 648 875 q 673 807 673 828 q 616 714 673 751 z "},"":{"ha":549,"x_min":-160,"x_max":628,"o":"m 463 78 q 504 59 492 83 q 495 10 517 35 q 420 -16 474 -16 q 378 -4 399 -16 q 337 64 337 19 q 361 161 337 117 q 231 22 274 54 q 142 -16 178 -16 q 83 7 106 -16 q 67 72 61 30 q -39 -103 -22 -62 q -68 -174 -57 -144 q -84 -216 -79 -204 q -102 -229 -89 -229 q -126 -222 -115 -229 q -148 -202 -136 -216 q -160 -161 -159 -188 q -151 -118 -160 -134 q -97 -31 -142 -103 q 126 333 75 245 q 184 433 177 422 q 199 459 191 444 q 214 482 208 474 q 226 499 219 490 q 238 513 233 509 q 249 522 243 518 q 274 530 260 530 q 303 514 288 530 q 318 487 318 498 q 278 412 318 477 q 139 159 152 208 q 144 109 134 123 q 170 94 154 94 q 300 194 209 94 q 460 428 391 294 q 526 525 502 509 q 602 545 555 544 q 613 545 609 545 q 623 533 617 544 q 628 516 628 522 q 574 415 622 497 q 521 322 526 333 q 441 106 441 157 q 463 78 441 78 z "},"":{"ha":891,"x_min":157,"x_max":1190,"o":"m 423 -182 q 394 -158 394 -182 q 406 -115 394 -142 q 427 -72 417 -89 q 517 90 437 -55 q 789 561 728 475 q 895 713 851 646 q 992 853 979 838 q 1015 879 1006 868 q 1042 912 1042 911 q 1008 921 1042 921 q 943 897 974 921 q 867 814 911 872 q 786 703 823 756 q 686 548 749 650 q 397 51 471 194 q 244 -234 251 -232 q 234 -237 238 -237 q 157 -128 94 -248 q 544 516 319 182 q 429 608 447 564 q 420 655 420 629 q 473 794 420 730 q 614 902 527 859 q 1027 994 800 994 q 1169 962 1124 994 q 1190 929 1190 947 q 1174 898 1190 910 q 1137 891 1159 885 q 920 563 1065 795 q 729 243 775 331 q 627 42 683 155 q 505 -188 514 -186 q 491 -191 496 -191 q 481 -184 486 -191 q 474 -178 476 -178 q 467 -180 473 -178 q 452 -183 462 -183 l 423 -182 z "},"":{"ha":346,"x_min":161,"x_max":327,"o":"m 205 270 q 161 321 161 270 q 196 429 161 373 q 279 485 232 485 q 327 429 327 485 q 291 322 327 374 q 205 270 255 270 z "},"":{"ha":444,"x_min":47,"x_max":311,"o":"m 231 -178 q 219 -163 231 -170 q 190 -152 207 -157 q 157 -140 174 -146 q 117 -89 117 -122 q 142 -20 117 -56 q 199 15 168 15 q 222 11 212 15 q 233 4 233 7 q 228 -4 233 1 q 221 -8 224 -8 q 193 -51 193 -38 q 211 -69 193 -63 q 252 -80 229 -75 q 292 -101 274 -85 q 311 -140 311 -117 q 303 -183 311 -163 q 223 -280 279 -250 q 98 -310 168 -310 q 57 -304 66 -310 q 47 -273 47 -299 q 59 -228 47 -248 q 80 -208 71 -208 q 92 -213 90 -208 q 96 -218 94 -218 q 231 -178 231 -208 z "},"":{"ha":206,"x_min":113,"x_max":488,"o":"m 335 698 q 310 684 317 684 q 299 694 301 684 q 294 707 297 705 q 295 727 288 712 q 363 789 300 741 q 442 836 425 836 q 473 822 458 836 q 488 793 488 807 q 435 712 487 787 q 292 499 382 637 q 188 328 201 361 q 173 320 186 326 q 153 315 159 315 q 140 327 147 315 q 129 342 132 338 q 118 351 123 348 q 113 356 113 353 q 202 503 127 386 q 335 698 278 621 z "},"":{"ha":309,"x_min":96,"x_max":545,"o":"m 538 710 q 437 518 505 603 q 269 399 370 433 q 249 395 255 395 q 202 426 220 395 q 184 486 184 458 q 205 559 184 515 q 258 649 226 604 q 411 825 361 798 q 466 838 433 838 q 522 814 500 838 q 545 761 545 791 q 538 710 545 730 m 235 352 l 317 356 q 345 348 338 356 q 351 318 351 340 q 319 273 351 275 q 293 271 310 271 l 245 273 l 117 260 q 96 303 96 260 q 122 349 96 346 q 196 352 164 352 l 235 352 m 457 770 q 440 760 450 770 q 328 634 381 711 q 250 484 275 557 q 249 464 249 474 l 257 469 q 389 603 330 528 q 458 747 447 678 q 460 763 460 755 q 457 770 460 770 z "},"":{"ha":521,"x_min":30,"x_max":488,"o":"m 290 345 q 290 344 290 345 q 298 325 291 342 q 310 301 305 308 q 314 281 314 294 q 279 229 314 250 q 142 132 208 195 q 90 85 111 102 q 53 52 65 52 q 30 122 30 52 q 67 192 30 164 q 132 234 74 197 q 222 297 190 271 q 187 373 209 339 q 164 419 165 407 q 181 496 164 456 q 221 536 199 536 q 245 528 240 536 q 254 499 252 515 q 257 470 256 483 q 262 443 259 456 q 266 421 264 430 q 271 400 267 413 q 277 382 275 387 q 283 362 278 377 q 290 345 289 348 m 442 475 q 443 459 442 475 q 458 380 444 443 q 480 298 472 317 q 488 269 488 280 q 453 227 488 258 q 294 69 344 126 q 267 53 279 53 q 243 123 243 53 q 248 162 243 150 q 267 184 252 175 q 389 285 357 239 q 382 317 387 294 q 363 376 372 366 q 355 418 355 387 q 371 487 355 450 q 407 524 388 524 q 433 516 427 524 q 442 475 439 508 z "},"":{"ha":818,"x_min":102,"x_max":872,"o":"m 576 159 q 442 151 467 151 q 423 190 423 151 q 425 212 423 208 q 529 319 441 246 q 708 452 618 393 q 823 515 798 512 q 856 506 826 515 q 863 497 860 503 q 869 491 865 492 q 871 483 869 487 q 872 476 872 479 q 825 407 872 473 q 723 250 779 342 q 813 256 797 256 q 829 249 829 256 q 821 233 829 242 q 768 175 784 182 q 673 165 747 172 q 633 99 671 162 q 568 -10 594 36 q 534 -29 560 -24 q 495 -37 508 -33 q 481 -30 489 -37 q 472 -17 473 -23 q 576 159 500 38 m 772 847 q 784 825 784 847 q 783 796 784 803 q 781 782 782 789 q 780 772 781 775 q 777 762 779 770 q 773 750 775 755 q 626 574 762 726 q 161 15 366 283 q 153 1 158 12 q 129 -18 142 -18 q 102 43 102 -18 q 107 91 102 68 q 117 120 113 114 q 123 129 121 126 q 219 242 126 133 q 496 554 312 351 q 714 794 681 757 q 751 836 747 832 q 758 841 755 839 q 772 847 767 847 m 335 698 q 310 684 317 684 q 299 694 301 684 q 294 707 297 705 q 295 727 288 712 q 363 789 300 741 q 442 836 425 836 q 473 822 458 836 q 488 793 488 807 q 435 712 487 787 q 292 499 382 637 q 188 328 201 361 q 173 320 186 326 q 153 315 159 315 q 140 327 147 315 q 129 342 132 338 q 118 351 123 348 q 113 356 113 353 q 202 503 127 386 q 335 698 278 621 m 741 403 q 627 309 684 357 q 528 225 571 260 q 628 240 568 233 q 741 403 680 322 z "},"":{"ha":804,"x_min":102,"x_max":886,"o":"m 772 847 q 784 825 784 847 q 783 796 784 803 q 781 782 782 789 q 780 772 781 775 q 777 762 779 770 q 773 750 775 755 q 626 574 762 726 q 161 15 366 283 q 153 1 158 12 q 129 -18 142 -18 q 102 43 102 -18 q 107 91 102 68 q 117 120 113 114 q 123 129 121 126 q 219 242 126 133 q 496 554 312 351 q 714 794 681 757 q 751 836 747 832 q 758 841 755 839 q 772 847 767 847 m 335 698 q 310 684 317 684 q 299 694 301 684 q 294 707 297 705 q 295 727 288 712 q 363 789 300 741 q 442 836 425 836 q 473 822 458 836 q 488 793 488 807 q 435 712 487 787 q 292 499 382 637 q 188 328 201 361 q 173 320 186 326 q 153 315 159 315 q 140 327 147 315 q 129 342 132 338 q 118 351 123 348 q 113 356 113 353 q 202 503 127 386 q 335 698 278 621 m 592 119 q 567 97 583 111 q 548 80 551 83 q 677 98 646 98 q 713 86 709 98 q 715 83 713 85 l 714 83 q 724 64 720 81 q 729 39 729 48 l 729 36 q 714 15 729 18 q 576 0 662 5 q 463 -9 490 -5 q 429 2 452 -9 q 414 28 414 16 q 460 98 414 56 q 470 109 465 103 q 543 171 484 123 q 618 237 601 218 q 683 301 635 255 q 742 358 730 347 q 773 390 753 369 q 808 439 808 425 q 791 441 808 441 q 722 409 773 441 q 619 311 670 376 q 620 307 620 312 q 602 291 615 297 q 581 284 589 284 q 543 300 559 284 q 537 319 537 303 q 562 368 537 336 q 626 433 587 400 q 718 489 665 465 q 811 513 772 513 q 868 490 851 513 q 886 445 886 467 q 592 119 886 374 z "},"":{"ha":960,"x_min":141,"x_max":1015,"o":"m 719 159 q 585 151 609 151 q 566 190 566 151 q 567 212 566 208 q 672 319 583 246 q 850 452 760 393 q 965 515 940 512 q 998 506 968 515 q 1005 497 1002 503 q 1011 491 1008 492 q 1013 483 1012 487 q 1015 476 1015 479 q 968 407 1015 473 q 865 250 921 342 q 955 256 939 256 q 971 249 971 256 q 964 233 971 242 q 910 175 926 182 q 816 165 890 172 q 775 99 814 162 q 710 -10 736 36 q 676 -29 703 -24 q 637 -37 650 -33 q 623 -30 631 -37 q 614 -17 615 -23 q 719 159 643 38 m 928 847 q 940 825 940 847 q 939 796 940 803 q 937 782 938 789 q 936 772 937 775 q 933 762 935 770 q 929 750 931 755 q 782 574 918 726 q 317 15 522 283 q 309 1 314 12 q 285 -18 298 -18 q 258 43 258 -18 q 263 91 258 68 q 273 120 269 114 q 279 129 277 126 q 375 242 282 133 q 652 554 468 351 q 870 794 837 757 q 907 836 903 832 q 914 841 911 839 q 928 847 923 847 m 412 488 q 307 522 410 522 q 288 533 295 522 q 281 557 281 545 q 288 581 281 570 q 321 607 296 593 q 353 626 345 621 l 369 637 q 501 755 501 724 q 492 759 501 759 q 391 715 462 759 q 285 619 315 669 q 266 608 279 608 q 242 620 253 608 q 231 646 231 631 l 231 652 q 257 699 232 669 q 319 756 282 728 q 409 806 357 785 q 502 827 460 827 q 559 809 543 827 q 576 763 576 792 q 537 686 576 734 q 410 584 497 638 q 469 559 444 580 q 495 510 495 538 q 494 505 494 507 q 446 415 490 461 q 335 340 401 370 q 221 311 269 311 q 157 330 174 311 q 141 370 141 349 q 159 410 141 391 q 195 430 178 430 q 207 414 207 430 q 226 393 212 393 q 303 409 259 393 q 380 447 348 425 q 412 488 412 470 m 884 403 q 770 309 826 357 q 670 225 713 260 q 770 240 711 233 q 884 403 823 322 z "},"":{"ha":745,"x_min":75,"x_max":853,"o":"m 596 242 q 586 255 586 242 q 614 302 586 286 q 680 319 642 319 q 751 292 719 319 q 783 235 783 266 q 742 127 783 180 q 636 40 700 75 q 355 -38 495 -38 q 114 55 191 -38 q 75 162 75 102 q 95 269 75 222 q 151 351 115 315 q 229 416 186 386 q 323 472 273 446 q 420 524 374 499 q 589 638 534 583 q 604 697 611 662 q 612 716 602 708 q 638 724 621 724 q 666 723 656 724 q 690 716 675 721 q 724 672 724 707 q 668 557 724 608 q 504 444 623 515 q 325 334 384 374 q 194 163 194 245 q 345 74 194 74 q 479 100 407 74 q 601 167 551 125 q 650 248 650 208 q 643 254 650 250 q 629 258 636 258 q 610 250 623 258 q 596 242 598 242 m 703 875 q 739 952 703 913 q 814 991 774 991 q 853 950 853 991 q 818 872 853 909 q 742 836 783 836 q 714 846 724 836 q 703 875 703 856 z "},"":{"ha":816,"x_min":41,"x_max":1053,"o":"m 947 951 q 977 998 968 998 l 981 998 q 1022 977 991 998 q 1053 936 1053 955 q 880 526 1053 909 q 681 97 706 143 q 646 35 655 50 q 620 0 636 19 q 547 -36 591 -36 q 516 -40 530 -36 q 500 -45 503 -45 q 478 -35 478 -45 q 484 -18 478 -33 q 639 311 490 -3 q 359 321 479 317 q 149 16 243 175 q 127 -16 137 -7 q 99 -25 117 -25 q 61 -7 81 -25 q 41 35 41 11 q 216 325 41 102 q 112 321 134 325 q 83 317 90 317 q 65 348 65 317 q 101 402 65 378 q 199 425 138 425 q 216 426 203 425 q 302 429 258 428 q 611 751 450 603 q 890 960 772 900 q 921 969 909 969 q 947 951 932 968 m 900 856 q 448 429 652 668 q 690 419 568 427 q 900 856 814 679 m 1034 1090 q 1034 1078 1034 1090 q 1014 1067 1034 1067 q 982 1072 995 1067 q 960 1089 968 1078 q 947 1108 951 1100 q 936 1131 942 1116 q 921 1164 930 1145 q 889 1217 911 1184 q 856 1265 867 1249 q 844 1293 844 1281 q 877 1323 844 1305 q 927 1341 909 1341 q 951 1340 946 1341 q 960 1333 956 1338 q 967 1322 964 1328 q 974 1305 970 1317 q 980 1284 977 1294 q 1008 1187 996 1225 q 1034 1090 1034 1113 z "},"":{"ha":816,"x_min":41,"x_max":1278,"o":"m 947 951 q 977 998 968 998 l 981 998 q 1022 977 991 998 q 1053 936 1053 955 q 880 526 1053 909 q 681 97 706 143 q 646 35 655 50 q 620 0 636 19 q 547 -36 591 -36 q 516 -40 530 -36 q 500 -45 503 -45 q 478 -35 478 -45 q 484 -18 478 -33 q 639 311 490 -3 q 359 321 479 317 q 149 16 243 175 q 127 -16 137 -7 q 99 -25 117 -25 q 61 -7 81 -25 q 41 35 41 11 q 216 325 41 102 q 112 321 134 325 q 83 317 90 317 q 65 348 65 317 q 101 402 65 378 q 199 425 138 425 q 216 426 203 425 q 302 429 258 428 q 611 751 450 603 q 890 960 772 900 q 921 969 909 969 q 947 951 932 968 m 900 856 q 448 429 652 668 q 690 419 568 427 q 900 856 814 679 m 1221 1178 q 1119 1114 1202 1160 q 1016 1067 1036 1067 q 996 1084 996 1067 q 999 1097 996 1090 q 1043 1169 1014 1137 q 1108 1230 1073 1201 q 1170 1277 1143 1258 q 1206 1305 1196 1295 q 1221 1326 1217 1314 q 1239 1339 1225 1339 q 1265 1315 1253 1339 q 1278 1271 1278 1292 q 1221 1178 1278 1215 z "},"":{"ha":816,"x_min":41,"x_max":1240,"o":"m 947 951 q 977 998 968 998 l 981 998 q 1022 977 991 998 q 1053 936 1053 955 q 880 526 1053 909 q 681 97 706 143 q 646 35 655 50 q 620 0 636 19 q 547 -36 591 -36 q 516 -40 530 -36 q 500 -45 503 -45 q 478 -35 478 -45 q 484 -18 478 -33 q 639 311 490 -3 q 359 321 479 317 q 149 16 243 175 q 127 -16 137 -7 q 99 -25 117 -25 q 61 -7 81 -25 q 41 35 41 11 q 216 325 41 102 q 112 321 134 325 q 83 317 90 317 q 65 348 65 317 q 101 402 65 378 q 199 425 138 425 q 216 426 203 425 q 302 429 258 428 q 611 751 450 603 q 890 960 772 900 q 921 969 909 969 q 947 951 932 968 m 900 856 q 448 429 652 668 q 690 419 568 427 q 900 856 814 679 m 1240 1085 q 1240 1076 1240 1085 q 1220 1067 1240 1067 q 1185 1072 1200 1067 q 1160 1088 1171 1077 q 1142 1109 1149 1099 q 1127 1138 1134 1120 q 1116 1168 1120 1156 q 1106 1201 1112 1180 q 1098 1231 1101 1221 q 979 1132 1055 1187 q 871 1077 904 1077 q 857 1092 857 1077 q 863 1120 857 1107 q 885 1149 869 1133 q 912 1175 901 1165 q 949 1206 924 1185 q 1082 1328 1039 1278 q 1118 1342 1089 1342 q 1166 1323 1147 1342 q 1190 1281 1184 1303 q 1199 1233 1195 1259 q 1205 1202 1203 1206 q 1213 1182 1206 1198 q 1222 1157 1219 1166 q 1230 1134 1225 1148 q 1240 1085 1240 1104 z "},"":{"ha":816,"x_min":41,"x_max":1297,"o":"m 947 951 q 977 998 968 998 l 981 998 q 1022 977 991 998 q 1053 936 1053 955 q 880 526 1053 909 q 681 97 706 143 q 646 35 655 50 q 620 0 636 19 q 547 -36 591 -36 q 516 -40 530 -36 q 500 -45 503 -45 q 478 -35 478 -45 q 484 -18 478 -33 q 639 311 490 -3 q 359 321 479 317 q 149 16 243 175 q 127 -16 137 -7 q 99 -25 117 -25 q 61 -7 81 -25 q 41 35 41 11 q 216 325 41 102 q 112 321 134 325 q 83 317 90 317 q 65 348 65 317 q 101 402 65 378 q 199 425 138 425 q 216 426 203 425 q 302 429 258 428 q 611 751 450 603 q 890 960 772 900 q 921 969 909 969 q 947 951 932 968 m 900 856 q 448 429 652 668 q 690 419 568 427 q 900 856 814 679 m 1077 1230 q 1083 1223 1077 1230 q 1105 1203 1089 1215 q 1144 1190 1120 1190 q 1190 1201 1167 1190 q 1223 1225 1213 1212 q 1265 1259 1249 1259 q 1289 1242 1280 1259 q 1297 1208 1297 1225 q 1292 1181 1297 1192 q 1225 1108 1269 1135 q 1139 1081 1181 1081 q 1073 1094 1098 1081 q 1034 1122 1047 1107 q 976 1162 996 1162 q 940 1154 956 1162 q 912 1133 924 1145 q 888 1108 900 1120 q 836 1079 861 1079 q 826 1087 831 1079 q 821 1107 821 1095 q 854 1187 821 1147 q 927 1248 888 1226 q 992 1270 966 1270 q 1042 1257 1019 1270 q 1077 1230 1065 1244 z "},"":{"ha":816,"x_min":41,"x_max":1272,"o":"m 947 951 q 977 998 968 998 l 981 998 q 1022 977 991 998 q 1053 936 1053 955 q 880 526 1053 909 q 681 97 706 143 q 646 35 655 50 q 620 0 636 19 q 547 -36 591 -36 q 516 -40 530 -36 q 500 -45 503 -45 q 478 -35 478 -45 q 484 -18 478 -33 q 639 311 490 -3 q 359 321 479 317 q 149 16 243 175 q 127 -16 137 -7 q 99 -25 117 -25 q 61 -7 81 -25 q 41 35 41 11 q 216 325 41 102 q 112 321 134 325 q 83 317 90 317 q 65 348 65 317 q 101 402 65 378 q 199 425 138 425 q 216 426 203 425 q 302 429 258 428 q 611 751 450 603 q 890 960 772 900 q 921 969 909 969 q 947 951 932 968 m 900 856 q 448 429 652 668 q 690 419 568 427 q 900 856 814 679 m 1217 1254 q 1229 1254 1217 1254 q 1256 1241 1241 1254 q 1272 1195 1272 1229 q 1237 1124 1272 1160 q 1156 1087 1202 1087 q 1118 1102 1131 1087 q 1105 1135 1105 1117 q 1112 1170 1105 1152 q 1133 1207 1120 1187 q 1170 1240 1146 1226 q 1217 1254 1193 1254 m 1048 1197 q 1048 1180 1048 1197 q 1016 1125 1048 1164 q 943 1087 984 1087 q 902 1144 902 1087 q 928 1219 902 1180 q 999 1258 954 1258 q 1033 1244 1018 1258 q 1048 1197 1048 1230 z "},"":{"ha":816,"x_min":41,"x_max":1222,"o":"m 947 951 q 977 998 968 998 l 981 998 q 1022 977 991 998 q 1053 936 1053 955 q 880 526 1053 909 q 681 97 706 143 q 646 35 655 50 q 620 0 636 19 q 547 -36 591 -36 q 516 -40 530 -36 q 500 -45 503 -45 q 478 -35 478 -45 q 484 -18 478 -33 q 639 311 490 -3 q 359 321 479 317 q 149 16 243 175 q 127 -16 137 -7 q 99 -25 117 -25 q 61 -7 81 -25 q 41 35 41 11 q 216 325 41 102 q 112 321 134 325 q 83 317 90 317 q 65 348 65 317 q 101 402 65 378 q 199 425 138 425 q 216 426 203 425 q 302 429 258 428 q 611 751 450 603 q 890 960 772 900 q 921 969 909 969 q 947 951 932 968 m 900 856 q 448 429 652 668 q 690 419 568 427 q 900 856 814 679 m 1073 1337 q 1143 1350 1073 1350 q 1200 1327 1178 1350 q 1222 1268 1222 1304 q 1194 1183 1222 1232 q 1103 1092 1166 1134 q 1018 1067 1066 1067 q 944 1094 969 1067 q 919 1156 919 1122 q 1073 1337 919 1283 m 996 1181 q 1037 1151 996 1151 q 1108 1180 1078 1151 q 1139 1239 1139 1210 q 1132 1252 1139 1248 q 1122 1259 1126 1257 q 1111 1265 1118 1262 q 1099 1270 1103 1268 q 1078 1278 1093 1273 q 1029 1255 1063 1278 q 996 1181 996 1231 z "},"":{"ha":1398,"x_min":41,"x_max":1539,"o":"m 947 951 q 977 998 968 998 l 981 998 q 1022 977 991 998 q 1053 936 1053 955 q 1042 901 1053 929 q 1210 964 1122 941 q 1349 987 1298 987 q 1483 975 1442 987 q 1524 940 1508 962 q 1539 902 1539 918 q 1535 873 1539 886 q 1522 853 1531 861 q 1491 838 1508 843 q 1472 831 1474 832 q 1381 808 1419 808 q 1307 826 1313 808 q 1322 867 1308 844 q 1188 841 1257 864 q 1068 786 1119 817 q 985 720 1018 754 q 953 663 953 686 q 1107 619 953 619 q 1163 627 1145 619 q 1281 650 1211 650 q 1352 614 1352 650 q 1340 573 1352 600 q 1322 539 1328 545 q 1278 523 1316 533 q 1229 511 1240 512 q 1214 509 1218 510 q 1205 508 1211 509 q 1183 504 1200 507 q 1157 505 1165 501 q 848 262 932 394 q 810 159 810 202 q 903 92 810 92 q 1088 149 976 92 q 1286 287 1200 206 q 1373 428 1373 368 q 1401 447 1373 447 q 1467 369 1467 447 q 1435 282 1467 332 q 1346 179 1403 231 q 1219 83 1289 127 q 1064 9 1149 38 q 904 -19 979 -19 q 769 17 829 -19 q 693 123 710 53 q 628 9 652 37 q 587 -28 604 -20 q 549 -36 569 -36 q 516 -40 530 -36 q 500 -45 503 -45 q 478 -35 478 -45 q 484 -18 478 -33 q 639 311 490 -3 q 359 321 479 317 q 149 16 243 175 q 127 -16 137 -7 q 99 -25 117 -25 q 61 -7 81 -25 q 41 35 41 11 q 216 325 41 102 q 112 321 134 325 q 83 317 90 317 q 65 348 65 317 q 101 402 65 378 q 199 425 138 425 q 216 426 203 425 q 302 429 258 428 q 611 751 450 603 q 890 960 772 900 q 921 969 909 969 q 947 951 932 968 m 900 856 q 448 429 652 668 q 690 419 568 427 q 900 856 814 679 m 890 551 q 829 416 860 483 q 972 518 890 471 q 890 551 921 530 z "},"":{"ha":789,"x_min":111,"x_max":1034,"o":"m 785 395 q 802 369 802 395 q 790 279 802 343 q 692 157 781 237 q 457 22 585 62 q 306 -3 380 -3 q 172 59 233 -3 q 111 207 111 121 q 145 383 111 292 q 238 557 180 474 q 375 717 296 640 q 539 850 454 793 q 718 939 625 906 q 896 972 812 972 q 1009 924 962 972 q 1034 860 1034 899 q 996 761 1034 821 q 906 653 958 702 q 799 570 854 604 q 710 536 743 536 q 653 557 677 536 q 629 594 629 578 q 636 630 629 610 q 654 650 644 650 q 652 643 652 646 q 675 635 652 635 q 753 676 699 635 q 853 769 808 718 q 897 846 897 821 q 873 864 897 864 q 697 805 810 864 q 483 652 585 745 q 305 430 380 558 q 229 199 229 301 q 252 130 229 156 q 322 104 275 104 q 433 132 369 104 q 556 198 498 159 q 665 279 614 237 q 748 351 717 320 q 779 389 779 382 q 785 395 780 395 m 331 -164 q 319 -150 331 -156 q 291 -138 307 -143 q 258 -126 274 -133 q 217 -75 217 -109 q 243 -7 217 -42 q 299 28 269 28 q 322 25 312 28 q 333 18 333 21 q 329 10 333 14 q 321 5 324 5 q 293 -37 293 -24 q 311 -56 293 -50 q 352 -66 330 -62 q 393 -87 374 -71 q 411 -126 411 -104 q 404 -170 411 -149 q 323 -266 379 -236 q 198 -296 268 -296 q 157 -291 167 -296 q 148 -260 148 -286 q 159 -214 148 -234 q 181 -195 171 -195 q 192 -200 191 -195 q 197 -205 194 -205 q 331 -164 331 -195 z "},"":{"ha":836,"x_min":126,"x_max":978,"o":"m 391 663 q 545 619 391 619 q 602 627 583 619 q 720 650 650 650 q 790 614 790 650 q 778 573 790 600 q 761 539 766 545 q 717 523 755 533 q 668 511 679 512 q 653 509 656 510 q 644 508 649 509 q 621 504 639 507 q 595 505 604 501 q 287 262 371 394 q 249 159 249 202 q 342 92 249 92 q 526 149 414 92 q 725 287 638 206 q 811 428 811 368 q 840 447 811 447 q 905 369 905 447 q 873 282 905 332 q 785 179 842 231 q 658 83 728 127 q 503 9 588 38 q 359 -19 418 -19 q 263 -8 300 -19 q 195 26 227 3 q 126 172 126 74 q 155 279 126 224 q 229 378 183 334 q 411 518 314 463 q 271 662 271 550 q 465 892 271 788 q 699 975 573 950 q 799 987 759 987 q 922 975 880 987 q 962 940 947 962 q 978 902 978 918 q 974 873 978 886 q 960 853 970 861 q 930 838 947 843 q 910 831 913 832 q 819 808 857 808 q 745 826 751 808 q 760 867 747 844 q 627 841 696 864 q 507 786 557 817 q 424 720 456 754 q 391 663 391 686 m 758 1073 q 758 1061 758 1073 q 738 1050 758 1050 q 706 1055 719 1050 q 684 1072 692 1061 q 671 1091 675 1083 q 660 1114 666 1099 q 645 1147 654 1128 q 613 1200 635 1167 q 579 1248 591 1232 q 568 1276 568 1264 q 601 1306 568 1289 q 651 1324 633 1324 q 675 1323 670 1324 q 684 1316 680 1321 q 691 1305 688 1311 q 697 1289 694 1300 q 704 1267 701 1277 q 732 1171 720 1208 q 758 1073 758 1096 z "},"":{"ha":836,"x_min":126,"x_max":1002,"o":"m 391 663 q 545 619 391 619 q 602 627 583 619 q 720 650 650 650 q 790 614 790 650 q 778 573 790 600 q 761 539 766 545 q 717 523 755 533 q 668 511 679 512 q 653 509 656 510 q 644 508 649 509 q 621 504 639 507 q 595 505 604 501 q 287 262 371 394 q 249 159 249 202 q 342 92 249 92 q 526 149 414 92 q 725 287 638 206 q 811 428 811 368 q 840 447 811 447 q 905 369 905 447 q 873 282 905 332 q 785 179 842 231 q 658 83 728 127 q 503 9 588 38 q 359 -19 418 -19 q 263 -8 300 -19 q 195 26 227 3 q 126 172 126 74 q 155 279 126 224 q 229 378 183 334 q 411 518 314 463 q 271 662 271 550 q 465 892 271 788 q 699 975 573 950 q 799 987 759 987 q 922 975 880 987 q 962 940 947 962 q 978 902 978 918 q 974 873 978 886 q 960 853 970 861 q 930 838 947 843 q 910 831 913 832 q 819 808 857 808 q 745 826 751 808 q 760 867 747 844 q 627 841 696 864 q 507 786 557 817 q 424 720 456 754 q 391 663 391 686 m 945 1161 q 843 1097 926 1143 q 740 1050 760 1050 q 720 1067 720 1050 q 723 1080 720 1074 q 767 1152 738 1120 q 832 1213 797 1184 q 894 1260 867 1241 q 930 1288 920 1278 q 945 1310 941 1297 q 963 1322 949 1322 q 989 1298 977 1322 q 1002 1254 1002 1275 q 945 1161 1002 1198 z "},"":{"ha":836,"x_min":126,"x_max":978,"o":"m 391 663 q 545 619 391 619 q 602 627 583 619 q 720 650 650 650 q 790 614 790 650 q 778 573 790 600 q 761 539 766 545 q 717 523 755 533 q 668 511 679 512 q 653 509 656 510 q 644 508 649 509 q 621 504 639 507 q 595 505 604 501 q 287 262 371 394 q 249 159 249 202 q 342 92 249 92 q 526 149 414 92 q 725 287 638 206 q 811 428 811 368 q 840 447 811 447 q 905 369 905 447 q 873 282 905 332 q 785 179 842 231 q 658 83 728 127 q 503 9 588 38 q 359 -19 418 -19 q 263 -8 300 -19 q 195 26 227 3 q 126 172 126 74 q 155 279 126 224 q 229 378 183 334 q 411 518 314 463 q 271 662 271 550 q 465 892 271 788 q 699 975 573 950 q 799 987 759 987 q 922 975 880 987 q 962 940 947 962 q 978 902 978 918 q 974 873 978 886 q 960 853 970 861 q 930 838 947 843 q 910 831 913 832 q 819 808 857 808 q 745 826 751 808 q 760 867 747 844 q 627 841 696 864 q 507 786 557 817 q 424 720 456 754 q 391 663 391 686 m 964 1068 q 964 1059 964 1068 q 944 1050 964 1050 q 909 1055 924 1050 q 884 1071 895 1060 q 866 1093 873 1082 q 851 1121 858 1103 q 840 1151 844 1139 q 830 1184 836 1163 q 822 1214 825 1204 q 703 1115 779 1171 q 595 1060 628 1060 q 581 1075 581 1060 q 587 1103 581 1090 q 609 1132 593 1116 q 636 1158 625 1148 q 673 1189 648 1168 q 806 1311 763 1261 q 842 1325 813 1325 q 890 1306 871 1325 q 913 1264 908 1286 q 923 1216 919 1242 q 929 1185 927 1189 q 937 1165 930 1181 q 946 1140 943 1149 q 954 1117 949 1131 q 964 1068 964 1087 z "},"":{"ha":836,"x_min":126,"x_max":996,"o":"m 391 663 q 545 619 391 619 q 602 627 583 619 q 720 650 650 650 q 790 614 790 650 q 778 573 790 600 q 761 539 766 545 q 717 523 755 533 q 668 511 679 512 q 653 509 656 510 q 644 508 649 509 q 621 504 639 507 q 595 505 604 501 q 287 262 371 394 q 249 159 249 202 q 342 92 249 92 q 526 149 414 92 q 725 287 638 206 q 811 428 811 368 q 840 447 811 447 q 905 369 905 447 q 873 282 905 332 q 785 179 842 231 q 658 83 728 127 q 503 9 588 38 q 359 -19 418 -19 q 263 -8 300 -19 q 195 26 227 3 q 126 172 126 74 q 155 279 126 224 q 229 378 183 334 q 411 518 314 463 q 271 662 271 550 q 465 892 271 788 q 699 975 573 950 q 799 987 759 987 q 922 975 880 987 q 962 940 947 962 q 978 902 978 918 q 974 873 978 886 q 960 853 970 861 q 930 838 947 843 q 910 831 913 832 q 819 808 857 808 q 745 826 751 808 q 760 867 747 844 q 627 841 696 864 q 507 786 557 817 q 424 720 456 754 q 391 663 391 686 m 941 1237 q 953 1237 941 1237 q 980 1224 965 1237 q 996 1178 996 1212 q 961 1107 996 1143 q 880 1070 926 1070 q 842 1085 855 1070 q 829 1118 829 1100 q 836 1153 829 1135 q 857 1190 844 1171 q 893 1223 870 1209 q 941 1237 917 1237 m 772 1180 q 772 1163 772 1180 q 740 1108 772 1147 q 667 1070 708 1070 q 626 1127 626 1070 q 652 1202 626 1163 q 723 1241 677 1241 q 757 1227 742 1241 q 772 1180 772 1213 z "},"":{"ha":389,"x_min":-15,"x_max":743,"o":"m 692 983 l 724 985 q 742 971 742 985 q 741 965 742 967 q 135 31 416 488 q 109 3 120 6 q 102 0 108 3 q 54 -13 68 -13 q 39 -14 41 -13 q 25 -20 33 -20 q 14 -20 16 -20 q -2 -15 11 -20 q -15 -7 -15 -9 q -12 33 -15 26 q 144 305 2 81 q 434 741 287 528 q 613 978 582 954 q 638 985 623 985 l 692 983 m 743 1075 q 743 1063 743 1075 q 723 1052 743 1052 q 691 1057 704 1052 q 669 1074 677 1063 q 656 1093 661 1085 q 645 1116 651 1101 q 630 1149 640 1130 q 598 1202 620 1169 q 565 1250 576 1234 q 553 1278 553 1266 q 586 1309 553 1291 q 636 1326 618 1326 q 660 1325 655 1326 q 669 1318 665 1323 q 676 1308 673 1313 q 683 1291 679 1302 q 689 1269 686 1279 q 718 1173 705 1211 q 743 1075 743 1098 z "},"":{"ha":389,"x_min":-15,"x_max":987,"o":"m 692 983 l 724 985 q 742 971 742 985 q 741 965 742 967 q 135 31 416 488 q 109 3 120 6 q 102 0 108 3 q 54 -13 68 -13 q 39 -14 41 -13 q 25 -20 33 -20 q 14 -20 16 -20 q -2 -15 11 -20 q -15 -7 -15 -9 q -12 33 -15 26 q 144 305 2 81 q 434 741 287 528 q 613 978 582 954 q 638 985 623 985 l 692 983 m 930 1163 q 828 1099 911 1145 q 725 1052 745 1052 q 705 1069 705 1052 q 708 1082 705 1076 q 752 1154 723 1122 q 817 1215 782 1186 q 879 1262 852 1243 q 916 1290 905 1280 q 930 1312 926 1299 q 948 1324 935 1324 q 974 1300 962 1324 q 987 1256 987 1277 q 930 1163 987 1200 z "},"":{"ha":389,"x_min":-15,"x_max":949,"o":"m 692 983 l 724 985 q 742 971 742 985 q 741 965 742 967 q 135 31 416 488 q 109 3 120 6 q 102 0 108 3 q 54 -13 68 -13 q 39 -14 41 -13 q 25 -20 33 -20 q 14 -20 16 -20 q -2 -15 11 -20 q -15 -7 -15 -9 q -12 33 -15 26 q 144 305 2 81 q 434 741 287 528 q 613 978 582 954 q 638 985 623 985 l 692 983 m 949 1070 q 949 1061 949 1070 q 929 1052 949 1052 q 894 1057 909 1052 q 869 1073 880 1062 q 851 1095 859 1084 q 836 1123 843 1105 q 825 1153 829 1141 q 815 1186 821 1165 q 807 1216 810 1206 q 688 1117 764 1173 q 581 1062 613 1062 q 566 1077 566 1062 q 572 1105 566 1092 q 594 1134 578 1118 q 622 1160 610 1150 q 658 1191 633 1171 q 791 1313 748 1263 q 827 1327 798 1327 q 875 1308 857 1327 q 899 1266 893 1289 q 908 1218 904 1244 q 914 1187 912 1191 q 922 1167 916 1183 q 931 1142 928 1151 q 939 1119 935 1133 q 949 1070 949 1089 z "},"":{"ha":389,"x_min":-15,"x_max":947,"o":"m 692 983 l 724 985 q 742 971 742 985 q 741 965 742 967 q 135 31 416 488 q 109 3 120 6 q 102 0 108 3 q 54 -13 68 -13 q 39 -14 41 -13 q 25 -20 33 -20 q 14 -20 16 -20 q -2 -15 11 -20 q -15 -7 -15 -9 q -12 33 -15 26 q 144 305 2 81 q 434 741 287 528 q 613 978 582 954 q 638 985 623 985 l 692 983 m 892 1239 q 904 1239 892 1239 q 931 1226 916 1239 q 947 1180 947 1214 q 912 1109 947 1145 q 831 1072 877 1072 q 793 1087 806 1072 q 780 1120 780 1102 q 787 1155 780 1137 q 808 1192 795 1173 q 845 1225 821 1211 q 892 1239 868 1239 m 723 1182 q 723 1165 723 1182 q 691 1111 723 1149 q 618 1072 659 1072 q 577 1129 577 1072 q 603 1204 577 1165 q 674 1243 629 1243 q 708 1229 693 1243 q 723 1182 723 1215 z "},"":{"ha":1090,"x_min":203,"x_max":1221,"o":"m 326 665 l 312 667 l 309 667 q 274 680 292 667 q 256 728 256 694 q 294 807 256 763 q 396 888 332 851 q 556 949 460 925 q 759 972 652 972 q 1099 887 977 972 q 1221 664 1221 801 q 1183 493 1221 578 q 1082 335 1145 408 q 932 200 1018 263 q 751 94 846 138 q 362 0 548 0 q 247 15 271 0 q 230 30 238 20 q 216 43 221 39 q 203 78 203 51 q 209 126 203 104 q 385 431 227 191 q 298 431 332 430 q 238 447 263 433 q 214 486 214 461 q 305 533 216 524 q 460 543 395 541 q 663 832 583 724 q 740 847 671 842 q 779 843 768 847 q 790 828 790 839 q 763 780 790 818 q 605 543 735 741 q 631 543 614 543 q 811 459 814 534 q 798 437 810 449 q 747 426 786 425 q 676 433 709 428 q 564 441 644 437 l 538 440 q 337 122 337 130 q 397 114 337 114 q 545 139 457 114 q 710 206 633 165 q 858 302 787 248 q 979 414 928 357 q 1088 635 1088 538 q 1000 800 1088 732 q 758 868 911 868 q 562 833 654 868 q 435 772 469 799 q 400 735 400 745 q 408 730 400 730 l 437 735 q 444 732 444 735 q 432 723 444 730 q 413 708 420 716 q 378 683 406 701 q 326 665 349 666 z "},"":{"ha":899,"x_min":-24,"x_max":1224,"o":"m 663 964 l 713 975 q 743 966 732 975 q 755 951 755 958 q 751 930 755 944 q 696 666 748 917 q 621 292 645 415 q 890 677 736 448 q 1070 982 1044 907 q 1091 1019 1078 1006 q 1114 1034 1104 1031 q 1145 1036 1124 1036 q 1195 1027 1166 1036 q 1224 997 1224 1018 q 1105 766 1224 957 q 834 361 987 576 q 580 22 682 147 q 535 0 562 0 q 480 9 509 0 q 452 41 452 18 q 583 758 452 116 q 311 354 471 613 q 122 22 144 86 q 94 -23 110 -17 q 71 -28 83 -28 l 18 -34 q -11 -25 2 -34 q -24 -7 -24 -16 q 51 155 -24 20 q 225 449 125 290 q 435 757 326 607 q 604 958 544 907 q 631 969 616 969 l 663 964 m 958 1233 q 964 1226 958 1233 q 985 1206 970 1219 q 1024 1194 1001 1194 q 1070 1204 1048 1194 q 1103 1228 1093 1215 q 1145 1262 1130 1262 q 1169 1245 1161 1262 q 1177 1212 1177 1229 q 1173 1184 1177 1195 q 1105 1112 1149 1139 q 1020 1084 1061 1084 q 953 1097 979 1084 q 914 1125 928 1110 q 857 1166 877 1166 q 820 1157 836 1166 q 792 1136 804 1149 q 769 1112 781 1124 q 717 1082 741 1082 q 707 1090 711 1082 q 702 1110 702 1099 q 735 1190 702 1151 q 808 1251 768 1230 q 873 1273 847 1273 q 922 1260 899 1273 q 958 1233 945 1248 z "},"":{"ha":886,"x_min":115,"x_max":1105,"o":"m 1002 908 q 1020 908 1002 908 q 1072 878 1038 908 q 1105 812 1105 848 q 1087 716 1105 775 q 1036 592 1069 658 q 956 455 1003 526 q 853 317 909 384 q 732 190 798 250 q 598 85 666 130 q 309 -12 450 -12 q 222 14 260 -12 q 163 64 184 39 q 115 224 115 122 q 183 464 115 326 q 367 724 250 602 q 629 925 484 846 q 905 1003 774 1003 q 954 991 931 1003 q 977 965 977 980 q 970 940 977 949 q 956 919 962 930 q 944 903 949 907 q 1002 908 966 908 m 749 595 q 740 581 749 581 q 701 614 730 581 q 671 669 671 647 q 741 788 671 722 q 897 889 811 854 q 677 808 802 884 q 457 627 551 733 q 305 406 363 521 q 247 218 247 290 q 267 143 247 174 q 333 111 286 111 q 447 144 380 111 q 576 229 513 176 q 916 637 793 413 q 965 765 965 730 q 956 779 965 779 q 877 744 928 779 q 787 665 826 708 q 747 604 747 623 l 749 595 m 947 1093 q 947 1082 947 1093 q 928 1070 947 1070 q 896 1076 909 1070 q 874 1092 882 1081 q 861 1112 865 1103 q 850 1134 856 1120 q 834 1168 844 1148 q 803 1220 825 1187 q 769 1269 781 1253 q 758 1297 758 1284 q 790 1327 758 1309 q 841 1345 823 1345 q 865 1343 860 1345 q 874 1336 870 1341 q 881 1326 878 1331 q 887 1309 884 1320 q 894 1287 891 1297 q 922 1191 909 1229 q 947 1093 947 1116 z "},"":{"ha":886,"x_min":115,"x_max":1192,"o":"m 1002 908 q 1020 908 1002 908 q 1072 878 1038 908 q 1105 812 1105 848 q 1087 716 1105 775 q 1036 592 1069 658 q 956 455 1003 526 q 853 317 909 384 q 732 190 798 250 q 598 85 666 130 q 309 -12 450 -12 q 222 14 260 -12 q 163 64 184 39 q 115 224 115 122 q 183 464 115 326 q 367 724 250 602 q 629 925 484 846 q 905 1003 774 1003 q 954 991 931 1003 q 977 965 977 980 q 970 940 977 949 q 956 919 962 930 q 944 903 949 907 q 1002 908 966 908 m 749 595 q 740 581 749 581 q 701 614 730 581 q 671 669 671 647 q 741 788 671 722 q 897 889 811 854 q 677 808 802 884 q 457 627 551 733 q 305 406 363 521 q 247 218 247 290 q 267 143 247 174 q 333 111 286 111 q 447 144 380 111 q 576 229 513 176 q 916 637 793 413 q 965 765 965 730 q 956 779 965 779 q 877 744 928 779 q 787 665 826 708 q 747 604 747 623 l 749 595 m 1135 1181 q 1033 1117 1116 1164 q 929 1070 949 1070 q 909 1088 909 1070 q 913 1101 909 1094 q 957 1172 928 1140 q 1022 1233 987 1204 q 1084 1280 1057 1261 q 1120 1308 1110 1299 q 1135 1330 1131 1318 q 1153 1342 1139 1342 q 1179 1319 1166 1342 q 1192 1274 1192 1295 q 1135 1181 1192 1219 z "},"":{"ha":886,"x_min":115,"x_max":1154,"o":"m 1002 908 q 1020 908 1002 908 q 1072 878 1038 908 q 1105 812 1105 848 q 1087 716 1105 775 q 1036 592 1069 658 q 956 455 1003 526 q 853 317 909 384 q 732 190 798 250 q 598 85 666 130 q 309 -12 450 -12 q 222 14 260 -12 q 163 64 184 39 q 115 224 115 122 q 183 464 115 326 q 367 724 250 602 q 629 925 484 846 q 905 1003 774 1003 q 954 991 931 1003 q 977 965 977 980 q 970 940 977 949 q 956 919 962 930 q 944 903 949 907 q 1002 908 966 908 m 749 595 q 740 581 749 581 q 701 614 730 581 q 671 669 671 647 q 741 788 671 722 q 897 889 811 854 q 677 808 802 884 q 457 627 551 733 q 305 406 363 521 q 247 218 247 290 q 267 143 247 174 q 333 111 286 111 q 447 144 380 111 q 576 229 513 176 q 916 637 793 413 q 965 765 965 730 q 956 779 965 779 q 877 744 928 779 q 787 665 826 708 q 747 604 747 623 l 749 595 m 1154 1089 q 1154 1079 1154 1089 q 1134 1070 1154 1070 q 1099 1075 1114 1070 q 1074 1091 1084 1080 q 1056 1113 1063 1102 q 1041 1142 1048 1124 q 1030 1172 1034 1160 q 1020 1204 1026 1183 q 1012 1234 1015 1225 q 893 1136 968 1191 q 785 1080 818 1080 q 770 1095 770 1080 q 777 1123 770 1110 q 799 1153 783 1137 q 826 1179 815 1168 q 863 1209 838 1189 q 996 1331 953 1282 q 1032 1345 1003 1345 q 1080 1326 1061 1345 q 1103 1285 1098 1307 q 1113 1236 1109 1263 q 1119 1205 1117 1209 q 1126 1185 1120 1201 q 1136 1160 1133 1169 q 1144 1137 1139 1152 q 1154 1089 1154 1107 z "},"":{"ha":886,"x_min":115,"x_max":1211,"o":"m 1002 908 q 1020 908 1002 908 q 1072 878 1038 908 q 1105 812 1105 848 q 1087 716 1105 775 q 1036 592 1069 658 q 956 455 1003 526 q 853 317 909 384 q 732 190 798 250 q 598 85 666 130 q 309 -12 450 -12 q 222 14 260 -12 q 163 64 184 39 q 115 224 115 122 q 183 464 115 326 q 367 724 250 602 q 629 925 484 846 q 905 1003 774 1003 q 954 991 931 1003 q 977 965 977 980 q 970 940 977 949 q 956 919 962 930 q 944 903 949 907 q 1002 908 966 908 m 749 595 q 740 581 749 581 q 701 614 730 581 q 671 669 671 647 q 741 788 671 722 q 897 889 811 854 q 677 808 802 884 q 457 627 551 733 q 305 406 363 521 q 247 218 247 290 q 267 143 247 174 q 333 111 286 111 q 447 144 380 111 q 576 229 513 176 q 916 637 793 413 q 965 765 965 730 q 956 779 965 779 q 877 744 928 779 q 787 665 826 708 q 747 604 747 623 l 749 595 m 991 1233 q 997 1226 991 1233 q 1019 1206 1003 1219 q 1058 1194 1034 1194 q 1104 1204 1081 1194 q 1137 1228 1126 1215 q 1179 1262 1163 1262 q 1202 1245 1194 1262 q 1211 1212 1211 1229 q 1206 1184 1211 1195 q 1139 1112 1183 1139 q 1053 1084 1095 1084 q 986 1097 1012 1084 q 947 1125 961 1110 q 890 1166 910 1166 q 853 1157 869 1166 q 826 1136 838 1149 q 802 1112 814 1124 q 750 1082 774 1082 q 740 1090 745 1082 q 735 1110 735 1099 q 768 1190 735 1151 q 841 1251 802 1230 q 906 1273 880 1273 q 956 1260 932 1273 q 991 1233 979 1248 z "},"":{"ha":886,"x_min":115,"x_max":1185,"o":"m 1002 908 q 1020 908 1002 908 q 1072 878 1038 908 q 1105 812 1105 848 q 1087 716 1105 775 q 1036 592 1069 658 q 956 455 1003 526 q 853 317 909 384 q 732 190 798 250 q 598 85 666 130 q 309 -12 450 -12 q 222 14 260 -12 q 163 64 184 39 q 115 224 115 122 q 183 464 115 326 q 367 724 250 602 q 629 925 484 846 q 905 1003 774 1003 q 954 991 931 1003 q 977 965 977 980 q 970 940 977 949 q 956 919 962 930 q 944 903 949 907 q 1002 908 966 908 m 749 595 q 740 581 749 581 q 701 614 730 581 q 671 669 671 647 q 741 788 671 722 q 897 889 811 854 q 677 808 802 884 q 457 627 551 733 q 305 406 363 521 q 247 218 247 290 q 267 143 247 174 q 333 111 286 111 q 447 144 380 111 q 576 229 513 176 q 916 637 793 413 q 965 765 965 730 q 956 779 965 779 q 877 744 928 779 q 787 665 826 708 q 747 604 747 623 l 749 595 m 1131 1257 q 1143 1257 1131 1257 q 1170 1245 1155 1257 q 1185 1198 1185 1232 q 1151 1127 1185 1164 q 1070 1090 1116 1090 q 1032 1105 1045 1090 q 1019 1138 1019 1120 q 1026 1173 1019 1156 q 1047 1210 1034 1191 q 1083 1243 1060 1230 q 1131 1257 1107 1257 m 962 1200 q 962 1184 962 1200 q 930 1129 962 1167 q 857 1090 898 1090 q 816 1147 816 1090 q 842 1222 816 1183 q 913 1261 867 1261 q 947 1247 932 1261 q 962 1200 962 1233 z "},"":{"ha":576,"x_min":157,"x_max":630,"o":"m 223 216 q 210 212 219 212 q 182 229 200 212 q 160 255 163 247 q 157 270 157 262 q 161 284 157 277 q 168 295 164 292 q 177 303 172 299 q 202 330 182 308 q 322 446 223 353 q 266 504 307 463 q 215 557 225 545 q 204 581 204 568 q 240 648 204 610 q 261 656 248 656 q 282 646 274 656 q 329 584 290 635 q 387 507 368 533 q 391 512 389 509 q 396 516 394 514 q 400 519 397 517 q 419 537 403 522 q 454 570 436 553 q 491 604 471 587 q 549 643 534 643 q 575 638 564 643 q 598 630 587 633 q 614 624 610 626 q 630 599 630 616 q 595 559 630 582 q 439 436 560 536 q 547 294 534 312 q 559 262 559 277 q 549 224 559 247 q 529 193 538 201 q 512 189 522 189 q 492 200 501 189 q 441 278 484 211 q 374 381 399 345 q 247 245 317 327 l 223 216 z "},"":{"ha":886,"x_min":89,"x_max":1120,"o":"m 905 1003 q 970 979 951 1003 q 1061 1075 1042 1055 q 1084 1098 1080 1095 q 1089 1103 1087 1101 q 1103 1109 1097 1109 q 1120 1053 1120 1109 q 1120 1045 1120 1051 q 1120 1035 1120 1038 q 1096 976 1117 1008 q 1038 899 1076 945 q 1086 863 1067 887 q 1105 807 1105 839 q 1087 716 1105 775 q 1036 592 1069 658 q 956 455 1003 526 q 853 317 909 384 q 732 190 798 250 q 598 85 666 130 q 309 -12 450 -12 q 248 1 280 -12 q 148 -151 163 -112 q 125 -170 140 -170 q 100 -142 111 -170 q 89 -77 89 -114 q 94 -21 89 -39 q 155 76 100 4 q 115 214 115 134 q 183 464 115 326 q 367 724 250 602 q 629 925 484 846 q 905 1003 774 1003 m 247 218 q 248 197 247 203 q 656 654 414 401 q 881 887 740 741 q 667 802 786 876 q 455 625 547 728 q 305 406 363 521 q 247 218 247 290 m 916 637 q 965 760 965 730 q 961 808 965 789 q 674 494 903 742 q 335 111 446 245 q 695 340 482 119 q 916 637 832 484 z "},"":{"ha":1028,"x_min":130,"x_max":1276,"o":"m 1069 375 q 1088 327 1088 375 q 1082 262 1088 279 q 987 145 1061 210 q 824 36 913 81 q 679 -9 736 -9 q 633 12 652 -9 q 614 66 614 33 q 684 251 614 127 q 851 510 753 375 q 620 254 688 320 q 498 140 551 187 q 401 64 444 93 q 240 -3 300 -3 q 155 30 180 -3 q 130 103 130 63 q 268 433 130 220 q 520 781 405 646 q 386 694 422 694 q 330 717 349 694 q 312 769 312 740 q 339 823 312 798 q 379 848 366 848 q 391 846 391 848 q 381 832 391 844 q 371 814 371 819 q 380 810 371 810 q 495 863 406 810 q 647 968 584 917 q 686 982 664 982 q 728 971 708 982 q 740 970 730 975 q 760 955 750 965 q 770 936 770 945 q 765 920 770 927 q 410 444 483 555 q 263 153 263 220 q 283 129 263 129 q 396 205 303 129 q 1111 937 651 412 q 1145 957 1129 958 l 1152 957 q 1167 959 1154 957 q 1208 962 1179 962 q 1276 937 1276 962 q 1256 899 1276 926 q 1173 782 1236 871 q 1016 555 1109 692 q 853 302 922 417 q 785 155 785 186 q 788 155 785 155 q 809 164 790 155 q 946 261 867 195 q 1045 351 1024 328 q 1069 375 1065 375 m 985 1059 q 985 1048 985 1059 q 966 1036 985 1036 q 933 1042 947 1036 q 912 1058 920 1047 q 899 1078 903 1069 q 888 1100 894 1086 q 872 1134 882 1114 q 841 1186 863 1154 q 807 1235 819 1219 q 796 1263 796 1251 q 828 1293 796 1275 q 879 1311 861 1311 q 903 1309 898 1311 q 912 1302 908 1308 q 919 1292 916 1297 q 925 1275 922 1286 q 932 1253 929 1263 q 960 1157 947 1195 q 985 1059 985 1082 z "},"":{"ha":1028,"x_min":130,"x_max":1276,"o":"m 1069 375 q 1088 327 1088 375 q 1082 262 1088 279 q 987 145 1061 210 q 824 36 913 81 q 679 -9 736 -9 q 633 12 652 -9 q 614 66 614 33 q 684 251 614 127 q 851 510 753 375 q 620 254 688 320 q 498 140 551 187 q 401 64 444 93 q 240 -3 300 -3 q 155 30 180 -3 q 130 103 130 63 q 268 433 130 220 q 520 781 405 646 q 386 694 422 694 q 330 717 349 694 q 312 769 312 740 q 339 823 312 798 q 379 848 366 848 q 391 846 391 848 q 381 832 391 844 q 371 814 371 819 q 380 810 371 810 q 495 863 406 810 q 647 968 584 917 q 686 982 664 982 q 728 971 708 982 q 740 970 730 975 q 760 955 750 965 q 770 936 770 945 q 765 920 770 927 q 410 444 483 555 q 263 153 263 220 q 283 129 263 129 q 396 205 303 129 q 1111 937 651 412 q 1145 957 1129 958 l 1152 957 q 1167 959 1154 957 q 1208 962 1179 962 q 1276 937 1276 962 q 1256 899 1276 926 q 1173 782 1236 871 q 1016 555 1109 692 q 853 302 922 417 q 785 155 785 186 q 788 155 785 155 q 809 164 790 155 q 946 261 867 195 q 1045 351 1024 328 q 1069 375 1065 375 m 1173 1147 q 1071 1083 1154 1130 q 967 1036 987 1036 q 947 1054 947 1036 q 951 1067 947 1060 q 995 1138 966 1106 q 1060 1199 1025 1171 q 1122 1246 1095 1227 q 1158 1274 1148 1265 q 1173 1296 1168 1284 q 1191 1308 1177 1308 q 1217 1285 1204 1308 q 1230 1240 1230 1261 q 1173 1147 1230 1185 z "},"":{"ha":1028,"x_min":130,"x_max":1276,"o":"m 1069 375 q 1088 327 1088 375 q 1082 262 1088 279 q 987 145 1061 210 q 824 36 913 81 q 679 -9 736 -9 q 633 12 652 -9 q 614 66 614 33 q 684 251 614 127 q 851 510 753 375 q 620 254 688 320 q 498 140 551 187 q 401 64 444 93 q 240 -3 300 -3 q 155 30 180 -3 q 130 103 130 63 q 268 433 130 220 q 520 781 405 646 q 386 694 422 694 q 330 717 349 694 q 312 769 312 740 q 339 823 312 798 q 379 848 366 848 q 391 846 391 848 q 381 832 391 844 q 371 814 371 819 q 380 810 371 810 q 495 863 406 810 q 647 968 584 917 q 686 982 664 982 q 728 971 708 982 q 740 970 730 975 q 760 955 750 965 q 770 936 770 945 q 765 920 770 927 q 410 444 483 555 q 263 153 263 220 q 283 129 263 129 q 396 205 303 129 q 1111 937 651 412 q 1145 957 1129 958 l 1152 957 q 1167 959 1154 957 q 1208 962 1179 962 q 1276 937 1276 962 q 1256 899 1276 926 q 1173 782 1236 871 q 1016 555 1109 692 q 853 302 922 417 q 785 155 785 186 q 788 155 785 155 q 809 164 790 155 q 946 261 867 195 q 1045 351 1024 328 q 1069 375 1065 375 m 1192 1055 q 1192 1046 1192 1055 q 1172 1036 1192 1036 q 1137 1041 1152 1036 q 1112 1057 1122 1046 q 1094 1079 1101 1068 q 1079 1108 1086 1090 q 1068 1138 1072 1126 q 1058 1170 1064 1149 q 1050 1200 1053 1191 q 931 1102 1006 1157 q 823 1046 856 1046 q 808 1061 808 1046 q 815 1089 808 1076 q 837 1119 821 1103 q 864 1145 853 1135 q 901 1175 876 1155 q 1034 1297 991 1248 q 1070 1312 1041 1312 q 1118 1292 1099 1312 q 1141 1251 1136 1273 q 1151 1202 1147 1229 q 1157 1171 1155 1175 q 1164 1151 1158 1167 q 1174 1126 1171 1135 q 1182 1103 1177 1118 q 1192 1055 1192 1074 z "},"":{"ha":1028,"x_min":130,"x_max":1276,"o":"m 1069 375 q 1088 327 1088 375 q 1082 262 1088 279 q 987 145 1061 210 q 824 36 913 81 q 679 -9 736 -9 q 633 12 652 -9 q 614 66 614 33 q 684 251 614 127 q 851 510 753 375 q 620 254 688 320 q 498 140 551 187 q 401 64 444 93 q 240 -3 300 -3 q 155 30 180 -3 q 130 103 130 63 q 268 433 130 220 q 520 781 405 646 q 386 694 422 694 q 330 717 349 694 q 312 769 312 740 q 339 823 312 798 q 379 848 366 848 q 391 846 391 848 q 381 832 391 844 q 371 814 371 819 q 380 810 371 810 q 495 863 406 810 q 647 968 584 917 q 686 982 664 982 q 728 971 708 982 q 740 970 730 975 q 760 955 750 965 q 770 936 770 945 q 765 920 770 927 q 410 444 483 555 q 263 153 263 220 q 283 129 263 129 q 396 205 303 129 q 1111 937 651 412 q 1145 957 1129 958 l 1152 957 q 1167 959 1154 957 q 1208 962 1179 962 q 1276 937 1276 962 q 1256 899 1276 926 q 1173 782 1236 871 q 1016 555 1109 692 q 853 302 922 417 q 785 155 785 186 q 788 155 785 155 q 809 164 790 155 q 946 261 867 195 q 1045 351 1024 328 q 1069 375 1065 375 m 1169 1223 q 1181 1223 1169 1223 q 1208 1211 1193 1223 q 1223 1164 1223 1198 q 1188 1093 1223 1130 q 1108 1057 1154 1057 q 1070 1072 1083 1057 q 1057 1104 1057 1086 q 1064 1139 1057 1122 q 1085 1176 1072 1157 q 1121 1210 1098 1196 q 1169 1223 1145 1223 m 1000 1166 q 1000 1150 1000 1166 q 968 1095 1000 1133 q 895 1057 936 1057 q 854 1114 854 1057 q 880 1188 854 1149 q 951 1227 905 1227 q 985 1213 970 1227 q 1000 1166 1000 1199 z "},"":{"ha":924,"x_min":116,"x_max":1208,"o":"m 1141 942 l 1167 943 q 1193 933 1179 943 q 1208 916 1208 923 q 1048 643 1204 901 q 509 -264 559 -161 q 565 -212 534 -237 q 598 -186 595 -186 q 606 -191 602 -186 q 610 -200 610 -195 q 604 -211 610 -204 q 562 -265 598 -218 q 508 -332 526 -312 q 476 -375 490 -352 q 453 -407 463 -397 q 429 -416 443 -416 q 359 -381 387 -416 q 331 -321 331 -345 q 533 50 331 -273 q 888 591 734 372 q 321 39 532 171 q 202 -7 248 -7 q 158 6 180 -7 q 126 39 136 19 q 116 109 116 58 q 159 254 116 159 q 271 456 203 349 q 495 786 393 649 q 347 704 404 704 q 312 712 320 704 q 289 736 303 720 q 274 773 274 753 q 281 804 274 793 q 294 822 288 816 q 324 849 317 845 q 341 853 331 853 q 351 850 351 853 q 343 841 351 847 q 336 831 336 835 q 344 828 336 828 q 363 832 351 828 q 393 845 374 836 q 427 864 412 855 q 473 890 442 872 q 519 917 503 908 q 566 948 535 926 q 612 979 597 971 q 653 988 637 994 q 678 980 669 982 q 694 974 687 978 q 707 966 701 970 q 728 931 728 951 q 709 884 728 911 q 623 759 690 858 q 471 533 555 661 q 322 293 387 405 q 258 152 258 181 q 264 142 258 142 q 304 168 269 142 q 767 608 486 309 q 1040 913 998 854 q 1065 937 1053 930 q 1103 943 1078 943 l 1141 942 m 1139 1150 q 1038 1086 1121 1133 q 934 1039 954 1039 q 914 1057 914 1039 q 918 1069 914 1063 q 962 1141 932 1109 q 1027 1202 991 1173 q 1088 1249 1062 1230 q 1125 1277 1115 1267 q 1139 1299 1135 1286 q 1158 1311 1144 1311 q 1184 1288 1171 1311 q 1196 1243 1196 1264 q 1139 1150 1196 1187 z "},"":{"ha":1050,"x_min":190,"x_max":1193,"o":"m 336 522 q 358 501 336 501 q 398 509 380 501 l 399 509 q 402 495 402 509 q 399 478 402 481 q 286 428 338 428 q 190 525 190 428 q 233 613 190 567 q 349 700 276 660 q 532 769 422 740 q 761 804 641 798 q 889 979 871 960 q 922 1002 906 998 q 972 1006 937 1006 l 1005 1006 q 1014 991 1014 1006 q 1010 972 1014 977 q 895 802 946 879 q 1113 734 1033 789 q 1193 609 1193 679 q 1140 461 1193 538 q 1009 327 1088 384 q 833 233 930 269 q 661 196 737 196 q 543 257 585 196 l 393 20 q 362 4 378 4 l 329 -2 l 313 -1 l 301 -1 q 261 24 261 -1 q 684 693 261 81 q 498 632 593 673 q 336 522 336 563 m 587 328 q 605 314 593 317 q 633 311 617 311 l 651 311 q 786 341 713 311 q 913 414 859 372 q 1005 502 968 456 q 1042 583 1042 547 q 1013 648 1042 619 q 834 707 958 699 q 587 328 659 442 z "},"":{"ha":574,"x_min":-208,"x_max":872,"o":"m 389 576 q 150 164 348 519 q -62 -255 -47 -191 q -73 -325 -71 -289 q -78 -374 -75 -361 q -99 -391 -81 -388 q -142 -395 -117 -394 q -188 -384 -168 -397 q -208 -346 -208 -371 q -141 -155 -208 -298 q 19 153 -73 -11 q 259 569 199 474 q 340 693 320 664 q 390 761 359 722 q 447 829 420 800 q 510 887 474 857 q 580 937 545 918 q 729 981 658 981 q 837 942 801 981 q 872 861 872 903 q 851 776 872 819 q 796 697 830 733 q 722 626 762 661 q 640 562 681 591 q 566 510 600 534 q 490 443 490 458 q 510 391 490 433 q 549 229 549 313 q 525 119 549 164 q 473 48 500 73 q 296 -10 412 -10 q 183 23 222 -10 q 144 92 144 56 q 173 146 144 127 q 235 165 202 165 q 250 144 245 165 q 301 101 260 101 q 370 112 342 101 q 412 141 398 123 q 441 213 441 176 q 424 293 441 250 q 390 373 407 336 q 373 428 373 410 q 376 456 373 446 q 383 475 379 467 q 396 493 387 483 q 410 509 405 503 q 430 526 416 515 q 450 541 444 536 q 474 557 456 545 q 512 584 492 570 q 570 629 531 597 q 654 700 609 661 q 758 838 758 792 q 747 864 758 853 q 715 875 737 875 q 587 815 652 875 q 389 576 521 755 z "},"":{"ha":566,"x_min":4,"x_max":669,"o":"m 559 515 q 611 480 611 515 q 602 452 611 461 q 565 394 593 444 q 501 266 536 344 q 456 134 466 189 q 454 115 454 127 q 474 77 454 77 q 522 97 494 77 q 572 138 550 116 q 614 183 593 160 q 639 210 635 206 q 651 213 643 213 q 667 193 664 213 q 669 153 669 174 q 665 123 669 132 q 579 31 646 85 q 457 -24 512 -24 q 377 9 403 -24 q 351 83 351 43 q 365 154 351 123 q 236 30 309 81 q 117 -21 163 -21 q 41 7 71 -21 q 4 103 4 41 q 32 226 4 164 q 104 339 59 288 q 202 433 149 391 q 410 521 315 521 q 469 509 446 521 q 498 478 492 496 q 526 509 515 503 q 559 515 537 515 m 469 440 q 229 311 353 440 q 148 201 185 265 q 111 113 111 136 q 125 89 111 89 q 231 164 144 89 q 346 274 317 239 q 469 440 377 313 m 468 629 q 468 617 468 629 q 449 606 468 606 q 416 611 429 606 q 394 628 403 616 q 381 647 386 639 q 371 669 376 655 q 355 703 365 684 q 323 755 345 723 q 290 804 301 788 q 279 832 279 820 q 311 862 279 844 q 362 880 343 880 q 386 879 380 880 q 395 872 391 877 q 401 861 399 867 q 408 844 404 856 q 414 823 412 833 q 443 726 430 764 q 468 629 468 652 z "},"":{"ha":566,"x_min":4,"x_max":712,"o":"m 559 515 q 611 480 611 515 q 602 452 611 461 q 565 394 593 444 q 501 266 536 344 q 456 134 466 189 q 454 115 454 127 q 474 77 454 77 q 522 97 494 77 q 572 138 550 116 q 614 183 593 160 q 639 210 635 206 q 651 213 643 213 q 667 193 664 213 q 669 153 669 174 q 665 123 669 132 q 579 31 646 85 q 457 -24 512 -24 q 377 9 403 -24 q 351 83 351 43 q 365 154 351 123 q 236 30 309 81 q 117 -21 163 -21 q 41 7 71 -21 q 4 103 4 41 q 32 226 4 164 q 104 339 59 288 q 202 433 149 391 q 410 521 315 521 q 469 509 446 521 q 498 478 492 496 q 526 509 515 503 q 559 515 537 515 m 469 440 q 229 311 353 440 q 148 201 185 265 q 111 113 111 136 q 125 89 111 89 q 231 164 144 89 q 346 274 317 239 q 469 440 377 313 m 655 717 q 553 652 637 699 q 450 606 470 606 q 430 623 430 606 q 433 636 430 629 q 478 708 448 675 q 543 768 507 740 q 604 815 578 797 q 641 844 631 834 q 655 865 651 853 q 673 878 660 878 q 700 854 687 878 q 712 810 712 831 q 655 717 712 754 z "},"":{"ha":566,"x_min":4,"x_max":674,"o":"m 559 515 q 611 480 611 515 q 602 452 611 461 q 565 394 593 444 q 501 266 536 344 q 456 134 466 189 q 454 115 454 127 q 474 77 454 77 q 522 97 494 77 q 572 138 550 116 q 614 183 593 160 q 639 210 635 206 q 651 213 643 213 q 667 193 664 213 q 669 153 669 174 q 665 123 669 132 q 579 31 646 85 q 457 -24 512 -24 q 377 9 403 -24 q 351 83 351 43 q 365 154 351 123 q 236 30 309 81 q 117 -21 163 -21 q 41 7 71 -21 q 4 103 4 41 q 32 226 4 164 q 104 339 59 288 q 202 433 149 391 q 410 521 315 521 q 469 509 446 521 q 498 478 492 496 q 526 509 515 503 q 559 515 537 515 m 469 440 q 229 311 353 440 q 148 201 185 265 q 111 113 111 136 q 125 89 111 89 q 231 164 144 89 q 346 274 317 239 q 469 440 377 313 m 674 624 q 674 615 674 624 q 654 606 674 606 q 620 611 634 606 q 594 627 605 616 q 576 648 584 637 q 562 677 568 659 q 551 707 555 695 q 541 740 547 719 q 532 770 535 760 q 414 671 489 726 q 306 616 338 616 q 291 631 291 616 q 297 659 291 646 q 320 688 304 672 q 347 714 336 704 q 383 745 358 724 q 516 867 473 817 q 553 881 524 881 q 600 862 582 881 q 624 820 618 842 q 633 771 629 798 q 639 741 637 745 q 647 721 641 736 q 656 696 653 705 q 665 673 660 687 q 674 624 674 643 z "},"":{"ha":566,"x_min":4,"x_max":731,"o":"m 559 515 q 611 480 611 515 q 602 452 611 461 q 565 394 593 444 q 501 266 536 344 q 456 134 466 189 q 454 115 454 127 q 474 77 454 77 q 522 97 494 77 q 572 138 550 116 q 614 183 593 160 q 639 210 635 206 q 651 213 643 213 q 667 193 664 213 q 669 153 669 174 q 665 123 669 132 q 579 31 646 85 q 457 -24 512 -24 q 377 9 403 -24 q 351 83 351 43 q 365 154 351 123 q 236 30 309 81 q 117 -21 163 -21 q 41 7 71 -21 q 4 103 4 41 q 32 226 4 164 q 104 339 59 288 q 202 433 149 391 q 410 521 315 521 q 469 509 446 521 q 498 478 492 496 q 526 509 515 503 q 559 515 537 515 m 469 440 q 229 311 353 440 q 148 201 185 265 q 111 113 111 136 q 125 89 111 89 q 231 164 144 89 q 346 274 317 239 q 469 440 377 313 m 511 769 q 517 761 511 769 q 539 742 524 754 q 578 729 555 729 q 624 740 602 729 q 656 764 647 751 q 699 798 684 798 q 723 781 715 798 q 731 747 731 764 q 726 720 731 730 q 659 647 703 674 q 574 620 615 620 q 507 633 532 620 q 468 661 481 646 q 411 701 431 701 q 374 693 391 701 q 346 672 358 684 q 323 647 334 659 q 271 618 295 618 q 260 626 265 618 q 256 646 256 634 q 289 726 256 686 q 361 787 322 765 q 427 808 401 808 q 476 796 453 808 q 511 769 499 783 z "},"":{"ha":566,"x_min":4,"x_max":706,"o":"m 559 515 q 611 480 611 515 q 602 452 611 461 q 565 394 593 444 q 501 266 536 344 q 456 134 466 189 q 454 115 454 127 q 474 77 454 77 q 522 97 494 77 q 572 138 550 116 q 614 183 593 160 q 639 210 635 206 q 651 213 643 213 q 667 193 664 213 q 669 153 669 174 q 665 123 669 132 q 579 31 646 85 q 457 -24 512 -24 q 377 9 403 -24 q 351 83 351 43 q 365 154 351 123 q 236 30 309 81 q 117 -21 163 -21 q 41 7 71 -21 q 4 103 4 41 q 32 226 4 164 q 104 339 59 288 q 202 433 149 391 q 410 521 315 521 q 469 509 446 521 q 498 478 492 496 q 526 509 515 503 q 559 515 537 515 m 469 440 q 229 311 353 440 q 148 201 185 265 q 111 113 111 136 q 125 89 111 89 q 231 164 144 89 q 346 274 317 239 q 469 440 377 313 m 651 793 q 663 793 651 793 q 691 780 675 793 q 706 733 706 768 q 671 663 706 699 q 591 626 636 626 q 552 641 566 626 q 539 673 539 656 q 547 709 539 691 q 567 746 554 726 q 604 779 581 765 q 651 793 627 793 m 482 735 q 482 719 482 735 q 450 664 482 703 q 377 626 418 626 q 336 683 336 626 q 362 758 336 719 q 433 797 388 797 q 467 783 452 797 q 482 735 482 768 z "},"":{"ha":566,"x_min":4,"x_max":669,"o":"m 559 515 q 611 480 611 515 q 602 452 611 461 q 565 394 593 444 q 501 266 536 344 q 456 134 466 189 q 454 115 454 127 q 474 77 454 77 q 522 97 494 77 q 572 138 550 116 q 614 183 593 160 q 639 210 635 206 q 651 213 643 213 q 667 193 664 213 q 669 153 669 174 q 665 123 669 132 q 579 31 646 85 q 457 -24 512 -24 q 377 9 403 -24 q 351 83 351 43 q 365 154 351 123 q 236 30 309 81 q 117 -21 163 -21 q 41 7 71 -21 q 4 103 4 41 q 32 226 4 164 q 104 339 59 288 q 202 433 149 391 q 410 521 315 521 q 469 509 446 521 q 498 478 492 496 q 526 509 515 503 q 559 515 537 515 m 469 440 q 229 311 353 440 q 148 201 185 265 q 111 113 111 136 q 125 89 111 89 q 231 164 144 89 q 346 274 317 239 q 469 440 377 313 m 507 876 q 577 888 507 888 q 634 866 612 888 q 656 807 656 843 q 628 722 656 770 q 538 631 600 673 q 452 606 500 606 q 378 633 404 606 q 353 694 353 661 q 507 876 353 822 m 430 720 q 471 690 430 690 q 543 719 513 690 q 573 778 573 749 q 567 791 573 787 q 556 798 560 795 q 545 804 552 801 q 534 808 538 807 q 512 817 527 812 q 464 793 498 817 q 430 720 430 770 z "},"":{"ha":764,"x_min":4,"x_max":832,"o":"m 600 478 q 764 549 682 549 q 809 538 786 549 q 832 507 832 527 q 796 429 832 463 q 713 395 760 395 q 694 402 699 395 q 689 420 689 409 q 692 443 689 432 q 638 418 667 435 q 554 358 609 401 q 498 298 498 315 q 514 293 498 293 q 575 314 530 293 q 632 335 619 335 q 650 334 646 335 q 669 313 659 329 q 679 288 679 297 q 654 258 679 279 q 576 227 629 237 q 480 180 524 216 q 435 117 435 144 q 538 66 435 66 q 654 103 596 66 q 744 166 704 134 q 794 206 783 199 q 810 214 804 214 q 827 174 827 214 q 823 122 827 135 q 795 92 818 110 q 521 -26 650 -26 q 389 34 416 -26 q 314 -8 358 -8 q 269 27 269 -8 q 283 54 269 32 q 113 -21 197 -21 q 34 16 64 -21 q 4 109 4 53 q 32 226 4 164 q 104 339 59 288 q 202 433 149 391 q 410 521 315 521 q 469 509 446 521 q 498 478 492 496 q 526 509 515 503 q 560 515 537 515 q 596 508 583 515 q 600 478 609 500 m 469 440 q 229 311 353 440 q 148 201 185 265 q 111 113 111 136 q 124 89 111 89 q 156 96 138 89 q 205 121 174 102 q 363 288 273 162 q 469 440 448 411 z "},"":{"ha":507,"x_min":24,"x_max":588,"o":"m 483 151 q 501 162 483 151 q 528 181 518 173 q 552 201 538 190 q 574 213 566 213 q 588 182 588 213 q 558 116 588 151 q 483 55 528 80 q 387 12 438 31 q 215 -25 286 -25 q 87 21 144 -25 q 31 143 31 68 q 68 293 31 218 q 164 424 105 368 q 300 516 222 481 q 454 551 378 551 q 519 530 490 551 q 549 473 549 509 q 512 385 549 436 q 439 334 476 334 q 395 375 395 334 q 416 414 395 386 q 436 451 436 441 q 429 461 436 461 q 349 435 391 461 q 271 381 306 410 q 205 317 236 353 q 137 158 137 241 q 158 101 137 125 q 230 77 180 77 q 332 89 281 77 q 415 114 382 100 q 483 151 448 128 m 207 -171 q 195 -156 207 -163 q 166 -145 183 -150 q 133 -133 150 -140 q 93 -82 93 -115 q 119 -14 93 -49 q 175 22 144 22 q 198 18 188 22 q 209 11 209 14 q 204 3 209 7 q 197 -1 200 -1 q 169 -44 169 -31 q 187 -62 169 -56 q 228 -73 205 -68 q 269 -94 250 -78 q 287 -133 287 -111 q 279 -176 287 -156 q 199 -273 255 -243 q 74 -303 144 -303 q 33 -298 43 -303 q 24 -267 24 -292 q 35 -221 24 -241 q 57 -201 47 -201 q 68 -207 66 -201 q 73 -212 70 -212 q 207 -171 207 -201 z "},"":{"ha":441,"x_min":11,"x_max":509,"o":"m 509 507 q 472 429 509 463 q 390 395 436 395 q 370 402 375 395 q 366 420 366 409 q 368 443 366 432 q 314 418 344 435 q 241 368 284 401 q 197 318 197 334 q 213 313 197 313 q 262 324 229 313 q 309 335 296 335 q 326 334 322 335 q 345 313 335 329 q 355 288 355 297 q 338 264 355 279 q 298 241 320 249 q 268 229 275 233 q 125 119 125 149 q 215 66 125 66 q 331 103 273 66 q 420 166 380 134 q 470 206 460 199 q 486 214 481 214 q 504 174 504 214 q 499 122 504 135 q 472 92 494 110 q 197 -26 327 -26 q 87 -7 128 -26 q 11 98 11 27 q 140 240 11 192 q 107 270 115 252 q 100 327 100 288 q 137 411 100 367 q 227 484 174 456 q 440 549 347 549 q 486 538 463 549 q 509 507 509 527 m 446 654 q 446 642 446 654 q 426 631 446 631 q 394 636 407 631 q 372 653 380 642 q 359 672 363 664 q 348 694 354 680 q 333 728 342 709 q 301 781 323 748 q 268 829 279 813 q 256 857 256 845 q 289 887 256 869 q 339 905 321 905 q 363 904 358 905 q 372 897 368 902 q 379 886 376 892 q 386 869 382 881 q 392 848 389 858 q 420 751 408 789 q 446 654 446 677 z "},"":{"ha":441,"x_min":11,"x_max":690,"o":"m 509 507 q 472 429 509 463 q 390 395 436 395 q 370 402 375 395 q 366 420 366 409 q 368 443 366 432 q 314 418 344 435 q 241 368 284 401 q 197 318 197 334 q 213 313 197 313 q 262 324 229 313 q 309 335 296 335 q 326 334 322 335 q 345 313 335 329 q 355 288 355 297 q 338 264 355 279 q 298 241 320 249 q 268 229 275 233 q 125 119 125 149 q 215 66 125 66 q 331 103 273 66 q 420 166 380 134 q 470 206 460 199 q 486 214 481 214 q 504 174 504 214 q 499 122 504 135 q 472 92 494 110 q 197 -26 327 -26 q 87 -7 128 -26 q 11 98 11 27 q 140 240 11 192 q 107 270 115 252 q 100 327 100 288 q 137 411 100 367 q 227 484 174 456 q 440 549 347 549 q 486 538 463 549 q 509 507 509 527 m 633 742 q 531 677 614 724 q 428 631 448 631 q 408 648 408 631 q 411 661 408 654 q 455 733 426 701 q 520 793 485 765 q 582 841 555 822 q 618 869 608 859 q 633 890 629 878 q 651 903 637 903 q 677 879 665 903 q 690 835 690 856 q 633 742 690 779 z "},"":{"ha":441,"x_min":11,"x_max":652,"o":"m 509 507 q 472 429 509 463 q 390 395 436 395 q 370 402 375 395 q 366 420 366 409 q 368 443 366 432 q 314 418 344 435 q 241 368 284 401 q 197 318 197 334 q 213 313 197 313 q 262 324 229 313 q 309 335 296 335 q 326 334 322 335 q 345 313 335 329 q 355 288 355 297 q 338 264 355 279 q 298 241 320 249 q 268 229 275 233 q 125 119 125 149 q 215 66 125 66 q 331 103 273 66 q 420 166 380 134 q 470 206 460 199 q 486 214 481 214 q 504 174 504 214 q 499 122 504 135 q 472 92 494 110 q 197 -26 327 -26 q 87 -7 128 -26 q 11 98 11 27 q 140 240 11 192 q 107 270 115 252 q 100 327 100 288 q 137 411 100 367 q 227 484 174 456 q 440 549 347 549 q 486 538 463 549 q 509 507 509 527 m 652 649 q 652 640 652 649 q 632 631 652 631 q 597 636 612 631 q 572 652 583 641 q 554 673 562 663 q 539 702 546 684 q 528 732 532 720 q 518 765 524 744 q 510 795 513 785 q 391 696 467 751 q 283 641 316 641 q 269 656 269 641 q 275 684 269 671 q 297 713 281 697 q 325 739 313 729 q 361 770 336 749 q 494 892 451 842 q 530 906 501 906 q 578 887 559 906 q 602 845 596 867 q 611 797 607 823 q 617 766 615 770 q 625 746 618 762 q 634 721 631 730 q 642 697 637 712 q 652 649 652 668 z "},"":{"ha":441,"x_min":11,"x_max":684,"o":"m 509 507 q 472 429 509 463 q 390 395 436 395 q 370 402 375 395 q 366 420 366 409 q 368 443 366 432 q 314 418 344 435 q 241 368 284 401 q 197 318 197 334 q 213 313 197 313 q 262 324 229 313 q 309 335 296 335 q 326 334 322 335 q 345 313 335 329 q 355 288 355 297 q 338 264 355 279 q 298 241 320 249 q 268 229 275 233 q 125 119 125 149 q 215 66 125 66 q 331 103 273 66 q 420 166 380 134 q 470 206 460 199 q 486 214 481 214 q 504 174 504 214 q 499 122 504 135 q 472 92 494 110 q 197 -26 327 -26 q 87 -7 128 -26 q 11 98 11 27 q 140 240 11 192 q 107 270 115 252 q 100 327 100 288 q 137 411 100 367 q 227 484 174 456 q 440 549 347 549 q 486 538 463 549 q 509 507 509 527 m 629 818 q 641 818 629 818 q 668 805 653 818 q 684 759 684 793 q 649 688 684 724 q 568 651 614 651 q 530 666 543 651 q 517 699 517 681 q 524 734 517 716 q 545 771 532 751 q 582 804 558 790 q 629 818 605 818 m 460 761 q 460 744 460 761 q 428 689 460 728 q 355 651 396 651 q 314 708 314 651 q 340 783 314 744 q 411 822 366 822 q 445 808 430 822 q 460 761 460 793 z "},"":{"ha":281,"x_min":7,"x_max":374,"o":"m 374 153 q 370 123 374 132 q 264 14 336 56 q 138 -28 191 -28 q 45 8 84 -28 q 7 81 7 44 q 44 190 7 119 q 119 321 81 261 q 156 387 156 382 q 142 407 156 392 q 128 429 128 422 q 156 466 128 436 q 225 526 184 496 q 287 555 265 555 q 325 536 308 555 q 342 502 342 517 q 180 208 342 486 q 169 190 178 204 q 155 167 160 176 q 143 145 150 158 q 130 100 130 118 q 161 77 130 77 q 225 98 192 77 q 283 145 259 119 q 356 214 347 214 q 374 153 374 214 m 336 660 q 336 648 336 660 q 316 637 336 637 q 284 642 297 637 q 262 659 271 648 q 249 678 254 670 q 238 701 244 686 q 223 734 233 715 q 191 787 213 754 q 158 835 169 819 q 146 863 146 851 q 179 893 146 876 q 230 911 211 911 q 253 910 248 911 q 262 903 258 908 q 269 892 267 898 q 276 876 272 887 q 282 854 279 864 q 311 758 298 795 q 336 660 336 683 z "},"":{"ha":281,"x_min":7,"x_max":580,"o":"m 374 153 q 370 123 374 132 q 264 14 336 56 q 138 -28 191 -28 q 45 8 84 -28 q 7 81 7 44 q 44 190 7 119 q 119 321 81 261 q 156 387 156 382 q 142 407 156 392 q 128 429 128 422 q 156 466 128 436 q 225 526 184 496 q 287 555 265 555 q 325 536 308 555 q 342 502 342 517 q 180 208 342 486 q 169 190 178 204 q 155 167 160 176 q 143 145 150 158 q 130 100 130 118 q 161 77 130 77 q 225 98 192 77 q 283 145 259 119 q 356 214 347 214 q 374 153 374 214 m 523 748 q 421 684 505 730 q 318 637 338 637 q 298 654 298 637 q 301 667 298 661 q 346 739 316 707 q 410 800 375 771 q 472 847 446 828 q 509 875 498 865 q 523 897 519 884 q 541 909 528 909 q 567 885 555 909 q 580 841 580 862 q 523 748 580 785 z "},"":{"ha":281,"x_min":7,"x_max":542,"o":"m 374 153 q 370 123 374 132 q 264 14 336 56 q 138 -28 191 -28 q 45 8 84 -28 q 7 81 7 44 q 44 190 7 119 q 119 321 81 261 q 156 387 156 382 q 142 407 156 392 q 128 429 128 422 q 156 466 128 436 q 225 526 184 496 q 287 555 265 555 q 325 536 308 555 q 342 502 342 517 q 180 208 342 486 q 169 190 178 204 q 155 167 160 176 q 143 145 150 158 q 130 100 130 118 q 161 77 130 77 q 225 98 192 77 q 283 145 259 119 q 356 214 347 214 q 374 153 374 214 m 542 655 q 542 646 542 655 q 522 637 542 637 q 487 642 502 637 q 462 658 473 647 q 444 680 452 669 q 429 708 436 690 q 418 738 422 726 q 409 771 414 750 q 400 801 403 791 q 281 702 357 758 q 174 647 206 647 q 159 662 159 647 q 165 690 159 677 q 188 719 172 703 q 215 745 203 735 q 251 776 226 755 q 384 898 341 848 q 420 912 391 912 q 468 893 450 912 q 492 851 486 873 q 501 803 497 829 q 507 772 505 776 q 515 752 509 768 q 524 727 521 736 q 532 704 528 718 q 542 655 542 674 z "},"":{"ha":281,"x_min":7,"x_max":574,"o":"m 374 153 q 370 123 374 132 q 264 14 336 56 q 138 -28 191 -28 q 45 8 84 -28 q 7 81 7 44 q 44 190 7 119 q 119 321 81 261 q 156 387 156 382 q 142 407 156 392 q 128 429 128 422 q 156 466 128 436 q 225 526 184 496 q 287 555 265 555 q 325 536 308 555 q 342 502 342 517 q 180 208 342 486 q 169 190 178 204 q 155 167 160 176 q 143 145 150 158 q 130 100 130 118 q 161 77 130 77 q 225 98 192 77 q 283 145 259 119 q 356 214 347 214 q 374 153 374 214 m 519 824 q 531 824 519 824 q 558 811 543 824 q 574 765 574 799 q 539 694 574 730 q 458 657 504 657 q 420 672 433 657 q 407 705 407 687 q 414 740 407 722 q 435 777 422 758 q 472 810 448 796 q 519 824 495 824 m 350 767 q 350 750 350 767 q 318 695 350 734 q 245 657 286 657 q 204 714 204 657 q 230 789 204 750 q 301 828 256 828 q 335 814 320 828 q 350 767 350 800 z "},"":{"ha":528,"x_min":9,"x_max":776,"o":"m 525 728 q 506 721 515 723 q 359 727 378 674 q 358 736 358 730 q 365 751 358 743 q 396 769 371 760 q 443 784 420 778 q 510 806 465 789 q 496 846 505 821 q 480 887 486 871 q 469 925 475 903 q 463 962 463 947 q 466 993 463 977 q 512 1038 473 1023 q 543 1019 525 1043 q 607 850 581 966 q 696 890 669 880 q 776 879 763 915 q 725 821 786 854 q 621 768 664 787 q 625 702 625 724 q 524 293 625 481 q 276 22 419 96 q 121 -18 199 -18 q 41 15 73 -18 q 9 100 9 47 q 37 217 9 153 q 110 336 64 281 q 213 437 156 392 q 458 535 337 535 q 508 524 492 535 q 525 728 525 602 m 466 404 q 481 439 477 427 q 452 435 469 435 q 344 401 405 437 q 233 314 283 365 q 148 209 182 264 q 112 129 113 155 q 140 82 111 82 q 296 161 209 82 q 466 404 383 241 z "},"":{"ha":543,"x_min":-45,"x_max":731,"o":"m 396 104 q 437 75 396 75 q 491 96 458 75 q 551 144 524 118 q 631 214 621 214 q 648 163 648 214 q 616 93 648 112 q 467 -14 519 5 q 401 -23 437 -24 q 330 8 365 -22 q 294 82 294 39 q 317 182 294 126 q 365 277 340 237 q 424 369 389 317 q 461 435 459 422 l 460 436 q 349 348 437 434 q 203 198 260 262 q 65 28 145 134 q 28 -1 43 -1 q -10 8 14 -1 q -39 21 -34 17 q -45 33 -45 25 q -40 53 -45 41 q -31 73 -35 65 q -16 97 -26 81 q 24 166 -6 113 q 117 323 54 218 q 191 449 179 427 q 233 514 217 494 q 336 553 264 553 q 353 532 353 553 q 294 412 353 500 l 265 370 q 463 534 382 500 q 534 551 503 551 q 584 534 566 551 q 603 497 603 517 q 589 447 603 476 q 560 396 574 418 q 522 338 545 373 q 496 301 498 304 q 485 284 494 298 q 473 265 477 271 q 459 244 469 259 q 444 218 450 229 q 430 193 438 208 q 416 168 421 178 q 406 144 411 157 q 396 104 396 120 m 511 794 q 517 787 511 794 q 539 767 524 780 q 578 755 555 755 q 624 766 602 755 q 656 789 647 777 q 699 823 684 823 q 723 807 715 823 q 731 773 731 790 q 726 745 731 756 q 659 673 703 700 q 574 646 615 646 q 507 659 532 646 q 468 686 481 671 q 410 727 431 727 q 374 719 390 727 q 346 697 358 710 q 323 673 334 685 q 271 644 295 644 q 260 652 265 644 q 256 671 256 660 q 289 751 256 712 q 361 812 322 791 q 427 834 401 834 q 476 822 453 834 q 511 794 499 809 z "},"":{"ha":509,"x_min":14,"x_max":566,"o":"m 503 517 q 513 517 503 517 q 544 498 523 517 q 566 443 566 480 q 539 345 566 405 q 467 223 513 285 q 365 106 420 161 q 246 17 310 52 q 130 -18 182 -18 q 46 15 77 -18 q 14 106 14 47 q 43 236 14 165 q 117 362 72 307 q 216 460 163 416 q 410 549 326 549 q 466 530 447 549 q 473 519 473 524 l 473 515 q 503 517 482 517 m 434 427 l 429 427 q 406 461 406 427 q 302 404 356 445 q 205 308 248 363 q 117 120 118 197 q 144 82 117 82 q 227 119 172 82 q 336 223 282 155 q 417 341 390 291 q 444 409 444 391 q 434 427 444 427 m 465 652 q 465 641 465 652 q 446 629 465 629 q 413 635 427 629 q 392 651 400 640 q 378 671 383 663 q 368 693 374 679 q 352 727 362 707 q 320 779 342 747 q 287 828 298 812 q 276 856 276 844 q 308 886 276 868 q 359 904 340 904 q 383 902 378 904 q 392 896 388 901 q 399 885 396 890 q 405 868 401 880 q 412 846 409 857 q 440 750 427 788 q 465 652 465 675 z "},"":{"ha":509,"x_min":14,"x_max":709,"o":"m 503 517 q 513 517 503 517 q 544 498 523 517 q 566 443 566 480 q 539 345 566 405 q 467 223 513 285 q 365 106 420 161 q 246 17 310 52 q 130 -18 182 -18 q 46 15 77 -18 q 14 106 14 47 q 43 236 14 165 q 117 362 72 307 q 216 460 163 416 q 410 549 326 549 q 466 530 447 549 q 473 519 473 524 l 473 515 q 503 517 482 517 m 434 427 l 429 427 q 406 461 406 427 q 302 404 356 445 q 205 308 248 363 q 117 120 118 197 q 144 82 117 82 q 227 119 172 82 q 336 223 282 155 q 417 341 390 291 q 444 409 444 391 q 434 427 444 427 m 652 741 q 551 676 634 723 q 447 629 467 629 q 427 647 427 629 q 431 660 427 653 q 475 731 446 699 q 540 792 505 764 q 602 839 575 821 q 638 867 628 858 q 652 889 648 877 q 671 901 657 901 q 697 878 684 901 q 709 833 709 854 q 652 741 709 778 z "},"":{"ha":509,"x_min":14,"x_max":671,"o":"m 503 517 q 513 517 503 517 q 544 498 523 517 q 566 443 566 480 q 539 345 566 405 q 467 223 513 285 q 365 106 420 161 q 246 17 310 52 q 130 -18 182 -18 q 46 15 77 -18 q 14 106 14 47 q 43 236 14 165 q 117 362 72 307 q 216 460 163 416 q 410 549 326 549 q 466 530 447 549 q 473 519 473 524 l 473 515 q 503 517 482 517 m 434 427 l 429 427 q 406 461 406 427 q 302 404 356 445 q 205 308 248 363 q 117 120 118 197 q 144 82 117 82 q 227 119 172 82 q 336 223 282 155 q 417 341 390 291 q 444 409 444 391 q 434 427 444 427 m 671 648 q 671 639 671 648 q 651 629 671 629 q 617 634 631 629 q 592 650 602 640 q 573 672 581 661 q 559 701 566 683 q 548 731 552 719 q 538 763 544 743 q 530 793 532 784 q 411 695 486 750 q 303 640 336 640 q 288 654 288 640 q 295 683 288 669 q 317 712 301 696 q 344 738 333 728 q 380 768 355 748 q 513 890 471 841 q 550 905 521 905 q 597 885 579 905 q 621 844 616 866 q 631 795 627 822 q 636 764 635 768 q 644 744 638 760 q 654 720 650 728 q 662 696 657 711 q 671 648 671 667 z "},"":{"ha":509,"x_min":14,"x_max":728,"o":"m 503 517 q 513 517 503 517 q 544 498 523 517 q 566 443 566 480 q 539 345 566 405 q 467 223 513 285 q 365 106 420 161 q 246 17 310 52 q 130 -18 182 -18 q 46 15 77 -18 q 14 106 14 47 q 43 236 14 165 q 117 362 72 307 q 216 460 163 416 q 410 549 326 549 q 466 530 447 549 q 473 519 473 524 l 473 515 q 503 517 482 517 m 434 427 l 429 427 q 406 461 406 427 q 302 404 356 445 q 205 308 248 363 q 117 120 118 197 q 144 82 117 82 q 227 119 172 82 q 336 223 282 155 q 417 341 390 291 q 444 409 444 391 q 434 427 444 427 m 509 792 q 515 785 509 792 q 536 765 521 778 q 575 753 552 753 q 622 764 599 753 q 654 787 644 774 q 696 821 681 821 q 720 805 712 821 q 728 771 728 788 q 724 743 728 754 q 656 671 701 698 q 574 644 612 644 q 514 652 536 644 q 479 672 493 661 q 453 696 465 684 q 406 725 425 725 q 371 716 387 725 q 343 695 355 708 q 320 671 332 683 q 268 642 292 642 q 258 650 262 642 q 253 669 253 658 q 286 749 253 710 q 359 810 319 789 q 424 832 398 832 q 473 820 450 832 q 509 792 496 807 z "},"":{"ha":509,"x_min":14,"x_max":703,"o":"m 503 517 q 513 517 503 517 q 544 498 523 517 q 566 443 566 480 q 539 345 566 405 q 467 223 513 285 q 365 106 420 161 q 246 17 310 52 q 130 -18 182 -18 q 46 15 77 -18 q 14 106 14 47 q 43 236 14 165 q 117 362 72 307 q 216 460 163 416 q 410 549 326 549 q 466 530 447 549 q 473 519 473 524 l 473 515 q 503 517 482 517 m 434 427 l 429 427 q 406 461 406 427 q 302 404 356 445 q 205 308 248 363 q 117 120 118 197 q 144 82 117 82 q 227 119 172 82 q 336 223 282 155 q 417 341 390 291 q 444 409 444 391 q 434 427 444 427 m 649 817 q 661 817 649 817 q 688 804 673 817 q 703 757 703 791 q 668 686 703 723 q 588 650 633 650 q 550 665 563 650 q 536 697 536 680 q 544 732 536 715 q 565 769 551 750 q 601 803 578 789 q 649 817 625 817 m 479 759 q 479 743 479 759 q 448 688 479 726 q 375 650 416 650 q 334 707 334 650 q 359 782 334 743 q 431 821 385 821 q 465 806 450 821 q 479 759 479 792 z "},"":{"ha":576,"x_min":148,"x_max":642,"o":"m 343 383 l 182 380 q 158 389 168 380 q 148 403 148 397 q 153 418 148 410 q 165 450 157 427 q 181 480 174 472 q 204 488 189 488 q 331 484 271 488 q 421 480 391 481 q 519 477 452 479 q 614 475 585 475 q 642 461 642 474 q 633 440 642 454 q 620 417 625 426 q 613 403 615 408 q 605 392 610 399 q 594 382 600 386 q 561 375 581 375 l 343 383 m 304 163 q 260 211 260 163 q 288 297 260 260 q 354 334 316 334 q 401 272 401 334 q 372 195 401 228 q 304 163 342 163 m 479 694 q 526 633 526 694 q 497 556 526 589 q 438 524 467 524 q 385 576 385 524 q 413 658 385 621 q 479 694 441 694 z "},"":{"ha":509,"x_min":-43,"x_max":675,"o":"m 675 689 q 646 635 675 678 q 534 506 616 592 q 566 446 566 487 q 539 345 566 405 q 467 223 513 285 q 365 106 420 161 q 246 17 310 52 q 125 -18 182 -18 q 83 -10 105 -18 q -3 -145 3 -127 q -13 -166 -10 -163 q -22 -170 -16 -170 q -43 -128 -43 -170 q -40 -74 -43 -87 q -21 -40 -37 -61 q 34 29 -4 -18 q 14 111 14 57 q 43 236 14 165 q 117 362 72 307 q 216 460 163 416 q 410 549 326 549 q 468 528 450 549 q 647 718 550 616 q 663 729 659 729 q 675 689 675 729 m 338 225 q 417 341 390 291 q 444 413 444 391 q 151 82 258 223 q 233 123 181 86 q 338 225 285 159 m 203 306 q 117 131 126 207 q 406 460 249 290 l 406 461 q 302 404 356 445 q 203 306 248 363 z "},"":{"ha":549,"x_min":0,"x_max":635,"o":"m 616 213 q 632 193 629 213 q 635 153 635 174 q 631 123 635 132 q 545 31 611 85 q 418 -24 478 -24 q 351 -2 382 -24 q 319 75 319 20 q 349 183 319 130 q 85 -28 180 -28 q 23 -1 47 -28 q 0 55 0 26 q 8 115 0 84 q 25 170 16 146 q 53 231 35 195 q 79 283 71 267 q 107 332 88 299 q 158 420 127 365 q 211 503 190 476 q 251 530 231 530 q 286 514 271 530 q 300 488 300 498 q 255 396 300 477 q 121 113 121 153 q 128 103 121 103 q 290 244 161 103 q 440 425 420 385 q 480 492 460 465 q 509 525 499 519 q 584 545 538 544 q 595 545 591 545 q 605 533 600 544 q 610 516 610 522 q 556 415 604 497 q 503 322 509 333 q 423 106 423 157 q 445 78 423 78 q 540 141 484 83 q 580 184 560 162 q 605 209 600 205 q 616 213 610 213 m 444 644 q 444 632 444 644 q 425 621 444 621 q 392 626 406 621 q 371 643 379 631 q 357 662 362 654 q 347 684 353 670 q 331 718 341 699 q 299 770 321 738 q 266 819 277 803 q 255 847 255 835 q 287 877 255 859 q 338 895 319 895 q 362 893 357 895 q 371 887 367 892 q 378 876 375 882 q 384 859 380 871 q 391 838 388 848 q 419 741 406 779 q 444 644 444 667 z "},"":{"ha":549,"x_min":0,"x_max":688,"o":"m 616 213 q 632 193 629 213 q 635 153 635 174 q 631 123 635 132 q 545 31 611 85 q 418 -24 478 -24 q 351 -2 382 -24 q 319 75 319 20 q 349 183 319 130 q 85 -28 180 -28 q 23 -1 47 -28 q 0 55 0 26 q 8 115 0 84 q 25 170 16 146 q 53 231 35 195 q 79 283 71 267 q 107 332 88 299 q 158 420 127 365 q 211 503 190 476 q 251 530 231 530 q 286 514 271 530 q 300 488 300 498 q 255 396 300 477 q 121 113 121 153 q 128 103 121 103 q 290 244 161 103 q 440 425 420 385 q 480 492 460 465 q 509 525 499 519 q 584 545 538 544 q 595 545 591 545 q 605 533 600 544 q 610 516 610 522 q 556 415 604 497 q 503 322 509 333 q 423 106 423 157 q 445 78 423 78 q 540 141 484 83 q 580 184 560 162 q 605 209 600 205 q 616 213 610 213 m 631 732 q 530 667 613 714 q 426 621 446 621 q 406 638 406 621 q 410 651 406 644 q 454 723 425 690 q 519 783 484 755 q 581 830 554 812 q 617 859 607 849 q 631 880 627 868 q 650 892 636 892 q 676 869 663 892 q 688 825 688 846 q 631 732 688 769 z "},"":{"ha":549,"x_min":0,"x_max":650,"o":"m 616 213 q 632 193 629 213 q 635 153 635 174 q 631 123 635 132 q 545 31 611 85 q 418 -24 478 -24 q 351 -2 382 -24 q 319 75 319 20 q 349 183 319 130 q 85 -28 180 -28 q 23 -1 47 -28 q 0 55 0 26 q 8 115 0 84 q 25 170 16 146 q 53 231 35 195 q 79 283 71 267 q 107 332 88 299 q 158 420 127 365 q 211 503 190 476 q 251 530 231 530 q 286 514 271 530 q 300 488 300 498 q 255 396 300 477 q 121 113 121 153 q 128 103 121 103 q 290 244 161 103 q 440 425 420 385 q 480 492 460 465 q 509 525 499 519 q 584 545 538 544 q 595 545 591 545 q 605 533 600 544 q 610 516 610 522 q 556 415 604 497 q 503 322 509 333 q 423 106 423 157 q 445 78 423 78 q 540 141 484 83 q 580 184 560 162 q 605 209 600 205 q 616 213 610 213 m 650 639 q 650 630 650 639 q 630 621 650 621 q 596 626 610 621 q 571 642 581 631 q 552 663 560 652 q 538 692 545 674 q 527 722 531 710 q 517 754 523 734 q 509 785 511 775 q 390 686 465 741 q 282 631 315 631 q 267 646 267 631 q 274 674 267 661 q 296 703 280 687 q 323 729 312 719 q 359 760 334 739 q 492 882 450 832 q 529 896 500 896 q 576 877 558 896 q 600 835 595 857 q 610 786 606 813 q 615 755 614 760 q 623 735 617 751 q 633 711 629 720 q 641 688 636 702 q 650 639 650 658 z "},"":{"ha":549,"x_min":0,"x_max":682,"o":"m 616 213 q 632 193 629 213 q 635 153 635 174 q 631 123 635 132 q 545 31 611 85 q 418 -24 478 -24 q 351 -2 382 -24 q 319 75 319 20 q 349 183 319 130 q 85 -28 180 -28 q 23 -1 47 -28 q 0 55 0 26 q 8 115 0 84 q 25 170 16 146 q 53 231 35 195 q 79 283 71 267 q 107 332 88 299 q 158 420 127 365 q 211 503 190 476 q 251 530 231 530 q 286 514 271 530 q 300 488 300 498 q 255 396 300 477 q 121 113 121 153 q 128 103 121 103 q 290 244 161 103 q 440 425 420 385 q 480 492 460 465 q 509 525 499 519 q 584 545 538 544 q 595 545 591 545 q 605 533 600 544 q 610 516 610 522 q 556 415 604 497 q 503 322 509 333 q 423 106 423 157 q 445 78 423 78 q 540 141 484 83 q 580 184 560 162 q 605 209 600 205 q 616 213 610 213 m 628 808 q 640 808 628 808 q 667 795 652 808 q 682 748 682 783 q 647 677 682 714 q 567 641 612 641 q 529 656 542 641 q 515 688 515 671 q 523 724 515 706 q 544 761 530 741 q 580 794 557 780 q 628 808 604 808 m 458 750 q 458 734 458 750 q 427 679 458 718 q 354 641 395 641 q 313 698 313 641 q 338 773 313 734 q 410 812 364 812 q 444 798 429 812 q 458 750 458 783 z "},"":{"ha":542,"x_min":-5,"x_max":674,"o":"m 248 -225 q 227 -259 244 -229 q 190 -322 210 -290 q 141 -382 170 -353 q 93 -413 113 -410 q 68 -415 74 -415 q 6 -352 6 -415 q 83 -179 6 -278 q 156 -99 112 -142 q 204 -50 200 -56 q 306 140 208 -44 q 185 25 241 69 q 78 -25 130 -20 l 73 -25 q 21 -8 47 -25 q -5 53 -5 9 q 30 178 -5 117 q 72 249 42 199 q 128 346 102 299 q 178 433 153 383 q 218 504 204 482 q 243 525 231 525 q 275 510 256 525 q 294 473 294 494 q 205 291 294 452 q 117 107 117 130 q 122 102 117 102 q 203 154 140 102 q 342 287 266 205 q 475 452 427 377 q 485 466 481 461 q 494 480 488 471 q 504 493 500 488 q 512 504 507 498 q 522 514 517 511 q 530 521 526 517 q 547 528 538 528 q 575 524 556 528 q 597 515 593 519 q 605 506 601 510 q 612 492 612 498 q 606 475 612 486 q 543 368 601 465 q 310 -50 374 81 q 600 207 413 37 q 615 213 608 213 q 636 149 636 213 q 629 123 636 130 q 248 -225 427 -33 m 617 719 q 515 654 599 701 q 412 608 432 608 q 392 625 392 608 q 395 638 392 631 q 440 710 410 677 q 505 770 469 742 q 566 818 540 799 q 603 846 593 836 q 617 867 613 855 q 635 880 622 880 q 662 856 649 880 q 674 812 674 833 q 617 719 674 756 z "},"":{"ha":543,"x_min":-271,"x_max":601,"o":"m 566 962 l 578 963 q 595 945 589 963 q 601 921 601 927 q 587 899 601 916 l 247 364 q 454 513 349 466 q 527 530 494 530 q 580 509 560 530 q 600 456 600 488 q 583 377 600 424 q 535 277 565 330 q 461 171 505 224 q 371 74 418 117 q 269 3 324 31 q 171 -24 213 -24 q 86 54 86 -24 q -97 -233 7 -67 q -208 -409 -201 -399 q -221 -418 -216 -418 q -236 -412 -226 -418 q -258 -392 -247 -406 q -270 -351 -270 -378 q -254 -296 -271 -323 q 175 403 -157 -134 q 529 954 507 940 q 553 962 541 962 l 566 962 m 479 410 q 465 424 479 424 q 310 311 429 424 q 122 106 192 199 q 174 84 140 84 q 264 121 209 84 q 366 210 319 159 q 446 317 412 261 q 479 410 479 374 z "},"":{"ha":542,"x_min":-5,"x_max":668,"o":"m 248 -225 q 227 -259 244 -229 q 190 -322 210 -290 q 141 -382 170 -353 q 93 -413 113 -410 q 68 -415 74 -415 q 6 -352 6 -415 q 83 -179 6 -278 q 156 -99 112 -142 q 204 -50 200 -56 q 306 140 208 -44 q 185 25 241 69 q 78 -25 130 -20 l 73 -25 q 21 -8 47 -25 q -5 53 -5 9 q 30 178 -5 117 q 72 249 42 199 q 128 346 102 299 q 178 433 153 383 q 218 504 204 482 q 243 525 231 525 q 275 510 256 525 q 294 473 294 494 q 205 291 294 452 q 117 107 117 130 q 122 102 117 102 q 203 154 140 102 q 342 287 266 205 q 475 452 427 377 q 485 466 481 461 q 494 480 488 471 q 504 493 500 488 q 512 504 507 498 q 522 514 517 511 q 530 521 526 517 q 547 528 538 528 q 575 524 556 528 q 597 515 593 519 q 605 506 601 510 q 612 492 612 498 q 606 475 612 486 q 543 368 601 465 q 310 -50 374 81 q 600 207 413 37 q 615 213 608 213 q 636 149 636 213 q 629 123 636 130 q 248 -225 427 -33 m 613 795 q 625 795 613 795 q 653 782 637 795 q 668 735 668 770 q 633 665 668 701 q 553 628 598 628 q 514 643 528 628 q 501 675 501 658 q 509 711 501 693 q 529 748 516 728 q 566 781 543 767 q 613 795 589 795 m 444 738 q 444 721 444 738 q 412 666 444 705 q 339 628 380 628 q 298 685 298 628 q 324 760 298 721 q 395 799 350 799 q 429 785 414 799 q 444 738 444 770 z "},"":{"ha":576,"x_min":136,"x_max":648,"o":"m 198 361 l 189 361 q 153 370 170 361 q 136 390 136 378 q 146 411 136 401 q 158 427 156 421 q 194 460 163 441 q 243 481 226 479 q 508 494 422 494 q 602 490 594 494 q 621 473 610 487 q 640 452 631 459 q 648 431 648 445 q 631 407 648 418 q 588 393 613 396 q 502 387 562 391 q 415 380 441 382 q 349 372 388 378 q 198 361 271 361 z "},"":{"ha":694,"x_min":115,"x_max":726,"o":"m 631 410 q 726 359 726 410 q 631 308 726 322 q 302 287 490 288 q 115 361 115 286 q 126 384 115 371 q 177 397 138 397 q 252 393 216 397 q 344 391 287 390 q 493 401 401 391 q 631 410 585 410 z "},"":{"ha":1389,"x_min":60,"x_max":1482,"o":"m 1482 400 l 1479 361 q 1472 320 1479 329 q 1453 310 1466 311 q 989 296 1374 302 q 368 290 605 290 q 64 313 132 290 q 60 338 60 315 q 65 383 60 361 q 78 404 70 404 l 503 395 l 1463 415 q 1482 400 1482 415 z "},"":{"ha":416,"x_min":217,"x_max":466,"o":"m 331 563 q 404 589 336 589 q 448 568 429 589 q 466 512 466 546 q 443 432 466 479 q 378 355 420 386 q 298 323 337 323 q 238 350 258 323 q 217 407 217 376 q 251 513 217 467 q 331 563 286 559 z "},"":{"ha":347,"x_min":113,"x_max":400,"o":"m 118 318 q 113 332 113 323 q 140 372 113 355 q 192 405 168 390 q 226 427 216 420 q 254 446 235 433 q 334 507 310 485 q 361 532 359 529 q 376 538 369 538 q 400 467 400 538 q 396 428 400 440 q 370 401 392 415 q 292 361 347 388 q 214 319 237 334 q 250 212 229 239 q 269 156 269 189 q 251 87 269 122 q 212 53 234 53 q 183 61 189 53 q 173 99 176 69 q 165 150 169 130 q 160 186 162 170 q 153 217 157 202 q 145 240 148 233 q 118 318 143 249 z "},"":{"ha":347,"x_min":30,"x_max":314,"o":"m 306 278 q 314 253 314 267 q 279 201 314 222 q 174 146 205 166 q 90 85 142 127 q 53 52 65 52 q 30 122 30 52 q 68 192 30 170 q 108 212 87 203 q 222 269 184 244 q 196 336 211 303 q 164 419 165 405 q 181 496 164 456 q 221 536 199 536 q 245 528 240 536 q 254 498 252 515 q 306 278 266 378 z "},"":{"ha":555,"x_min":304,"x_max":688,"o":"m 688 622 q 688 612 688 622 q 668 603 688 603 q 633 608 648 603 q 608 624 618 613 q 590 646 597 635 q 575 674 582 656 q 564 704 568 692 q 554 737 560 716 q 546 767 549 758 q 427 668 503 724 q 319 613 352 613 q 304 628 304 613 q 311 656 304 643 q 333 685 317 669 q 360 711 349 701 q 397 742 372 722 q 530 864 487 814 q 566 878 537 878 q 614 859 595 878 q 637 818 632 840 q 647 769 643 795 q 653 738 651 742 q 661 718 654 734 q 670 693 667 702 q 678 670 673 684 q 688 622 688 640 z "},"":{"ha":444,"x_min":327,"x_max":630,"o":"m 481 873 q 551 886 481 886 q 608 863 586 886 q 630 804 630 840 q 602 719 630 768 q 511 628 574 670 q 426 603 474 603 q 352 630 377 603 q 327 692 327 658 q 481 873 327 819 m 404 717 q 445 687 404 687 q 516 716 486 687 q 547 775 547 746 q 540 788 547 784 q 530 795 534 793 q 518 801 526 798 q 507 806 511 804 q 486 814 500 809 q 437 791 471 814 q 404 717 404 767 z "},"":{"ha":555,"x_min":305,"x_max":726,"o":"m 393 771 q 411 791 400 779 q 426 808 421 802 q 438 821 431 813 q 448 833 445 829 q 454 844 451 838 q 461 864 460 852 q 483 876 463 876 q 516 850 503 876 q 530 807 530 825 q 492 732 530 769 q 407 656 473 709 q 321 603 340 603 q 309 609 313 603 q 305 621 305 615 q 393 771 305 671 m 669 700 q 581 642 650 682 q 492 603 511 603 q 472 621 472 603 q 481 649 472 625 q 600 778 498 696 q 636 815 619 793 q 662 849 652 838 q 686 861 672 861 q 713 838 701 861 q 726 793 726 814 q 669 700 726 739 z "},"":{"ha":444,"x_min":-33,"x_max":233,"o":"m 41 -269 q -9 -239 16 -269 q -33 -178 -33 -209 q -8 -101 -33 -148 q 51 -16 16 -54 q 110 22 85 22 q 144 21 135 22 q 153 15 153 20 q 127 -22 153 9 q 50 -147 50 -116 q 58 -164 50 -158 q 152 -140 94 -164 q 224 -117 210 -117 q 233 -139 233 -117 q 229 -175 233 -161 q 157 -243 207 -217 q 41 -269 106 -269 z "},"":{"ha":555,"x_min":385,"x_max":758,"o":"m 385 859 q 407 878 385 878 q 449 861 436 878 q 469 836 463 844 q 483 806 475 827 q 494 777 490 785 q 512 714 497 767 q 722 868 669 868 q 744 852 730 868 q 758 826 758 836 q 752 808 758 817 q 733 787 746 799 q 708 765 720 775 q 675 739 695 755 q 638 709 654 722 q 593 664 623 695 q 544 618 563 633 q 505 603 524 603 q 444 636 460 603 l 447 652 q 446 663 447 659 q 385 859 385 819 z "},"":{"ha":555,"x_min":334,"x_max":749,"o":"m 334 815 q 342 838 334 827 q 366 850 351 850 q 393 837 380 850 q 418 795 405 825 q 438 754 432 765 q 462 734 445 743 q 504 726 479 726 q 556 740 528 726 q 603 771 583 753 q 640 808 623 790 q 713 854 683 854 q 735 838 722 854 q 749 812 749 821 q 736 781 749 802 q 700 731 724 759 q 648 677 677 703 q 507 616 580 616 q 384 676 435 616 q 334 815 334 735 z "},"":{"ha":555,"x_min":413,"x_max":593,"o":"m 536 805 q 576 787 559 805 q 593 731 593 769 q 561 655 593 694 q 473 616 528 616 q 430 635 446 616 q 413 689 413 654 q 446 765 413 724 q 536 805 479 805 z "},"":{"ha":555,"x_min":304,"x_max":779,"o":"m 559 766 q 566 759 559 766 q 587 739 572 751 q 626 726 603 726 q 672 737 650 726 q 705 761 695 748 q 747 795 732 795 q 771 778 763 795 q 779 745 779 762 q 774 717 779 728 q 707 644 751 671 q 622 617 663 617 q 555 630 581 617 q 516 658 530 643 q 458 699 479 699 q 422 690 438 699 q 394 669 406 682 q 371 644 382 656 q 319 615 343 615 q 309 623 313 615 q 304 643 304 631 q 337 723 304 684 q 410 784 370 762 q 475 806 449 806 q 524 793 501 806 q 559 766 547 781 z "},"":{"ha":596,"x_min":115,"x_max":711,"o":"m 256 465 q 199 498 199 465 q 209 515 199 505 q 221 530 219 525 q 257 564 226 545 q 306 585 289 583 q 486 593 393 591 l 603 746 q 621 760 616 760 q 635 699 635 760 q 621 659 635 678 q 572 595 579 605 l 612 595 q 665 591 657 595 q 684 574 673 587 q 703 553 694 560 q 711 532 711 546 q 694 508 711 518 q 657 496 677 498 l 492 481 q 436 400 465 441 l 501 400 q 554 397 546 400 q 572 379 562 393 q 591 359 583 366 q 600 338 600 353 q 583 313 600 324 q 552 301 565 302 q 510 298 538 300 q 437 290 481 295 q 354 282 393 286 q 193 46 328 241 q 190 37 192 43 q 186 27 187 31 q 172 18 181 18 q 151 40 159 18 q 143 91 143 61 q 147 137 143 121 q 165 176 151 152 l 239 272 q 178 271 217 271 l 172 271 q 134 278 152 271 q 115 304 115 286 q 125 320 115 310 q 139 340 136 330 q 174 370 142 351 q 222 390 205 389 q 335 397 304 396 l 392 471 q 261 465 297 465 l 256 465 z "},"":{"ha":175,"x_min":-113,"x_max":93,"o":"m 24 100 q 42 100 24 100 q 76 81 60 100 q 93 29 93 61 q 70 -33 93 -3 q 2 -97 47 -64 q -64 -131 -43 -131 q -95 -123 -86 -131 q -108 -113 -103 -115 q -113 -101 -113 -112 q -107 -87 -113 -91 q -80 -51 -102 -83 q -54 -9 -58 -20 q -64 23 -64 1 q -38 73 -64 46 q 24 100 -12 100 z "},"":{"ha":370,"x_min":-113,"x_max":288,"o":"m 24 100 q 42 100 24 100 q 76 81 60 100 q 93 29 93 61 q 70 -33 93 -3 q 2 -97 47 -64 q -64 -131 -43 -131 q -95 -123 -86 -131 q -108 -113 -103 -115 q -113 -101 -113 -112 q -107 -87 -113 -91 q -80 -51 -102 -83 q -54 -9 -58 -20 q -64 23 -64 1 q -38 73 -64 46 q 24 100 -12 100 m 221 98 q 238 98 221 98 q 271 77 255 98 q 288 25 288 56 q 267 -36 288 -5 q 204 -100 245 -67 q 143 -134 163 -134 q 115 -125 123 -134 q 102 -116 106 -117 q 98 -104 98 -115 q 103 -90 98 -94 q 128 -54 108 -85 q 151 -12 148 -22 q 140 22 140 -1 q 163 71 140 45 q 221 98 187 98 z "},"":{"ha":401,"x_min":292,"x_max":692,"o":"m 429 907 q 447 907 429 907 q 481 888 465 907 q 498 836 498 868 q 475 774 498 804 q 407 710 452 743 q 340 676 362 676 q 310 684 319 676 q 297 694 302 692 q 292 706 292 695 q 298 720 292 716 q 325 756 303 724 q 351 798 347 787 q 340 830 340 808 q 367 880 340 853 q 429 907 393 907 m 626 905 q 643 905 626 905 q 676 884 660 905 q 692 832 692 863 q 671 771 692 802 q 609 707 650 740 q 548 673 568 673 q 520 682 528 673 q 507 691 511 690 q 503 703 503 692 q 508 718 503 713 q 533 753 513 722 q 555 794 553 785 q 545 828 545 805 q 568 878 545 852 q 626 905 592 905 z "},"":{"ha":401,"x_min":298,"x_max":699,"o":"m 562 673 q 544 673 562 673 q 509 693 526 673 q 492 745 492 713 q 515 807 492 777 q 583 870 538 837 q 659 904 629 904 q 681 897 674 904 q 693 888 687 890 q 699 876 699 886 q 693 861 699 865 q 666 825 688 857 q 640 783 644 793 q 650 750 650 773 q 624 700 650 727 q 562 673 597 673 m 364 675 q 347 675 364 675 q 314 696 330 675 q 298 749 298 718 q 319 811 298 781 q 381 873 340 840 q 443 907 422 907 q 471 899 463 907 q 484 890 479 891 q 488 878 488 888 q 483 863 488 867 q 458 828 477 859 q 435 786 438 796 q 446 752 446 776 q 422 702 446 729 q 364 675 398 675 z "},"":{"ha":207,"x_min":298,"x_max":505,"o":"m 368 673 q 350 673 368 673 q 315 693 332 673 q 298 744 298 713 q 321 807 298 776 q 390 871 345 838 q 465 904 435 904 q 487 897 481 904 q 499 888 493 890 q 505 876 505 886 q 499 861 505 865 q 472 825 494 857 q 446 783 450 793 q 456 750 456 772 q 430 700 456 727 q 368 673 404 673 z "},"":{"ha":207,"x_min":292,"x_max":498,"o":"m 429 907 q 447 907 429 907 q 481 888 465 907 q 498 836 498 868 q 475 774 498 804 q 407 710 452 743 q 340 676 362 676 q 310 684 319 676 q 297 694 302 692 q 292 706 292 695 q 298 720 292 716 q 325 756 303 724 q 351 798 347 787 q 340 830 340 808 q 367 880 340 853 q 429 907 393 907 z "},"":{"ha":576,"x_min":64,"x_max":787,"o":"m 109 -166 l 92 -172 q 77 -168 88 -172 q 65 -160 66 -163 q 64 -143 64 -156 q 64 -127 64 -130 q 193 142 72 -92 q 444 614 313 376 q 336 610 383 610 l 327 610 q 291 618 308 610 q 274 638 274 627 q 284 659 274 649 q 296 675 294 669 q 333 709 301 690 q 381 729 364 728 q 510 736 460 734 q 635 940 618 926 q 654 947 642 947 l 690 945 l 719 946 q 733 935 733 946 q 711 892 733 932 q 627 739 688 853 l 688 739 q 741 735 732 739 q 759 718 749 732 q 778 698 770 705 q 787 677 787 691 q 769 652 787 663 q 732 640 751 642 l 566 624 q 172 -131 319 166 q 153 -152 164 -147 q 109 -166 123 -166 z "},"":{"ha":576,"x_min":40,"x_max":786,"o":"m 76 -168 q 71 -165 76 -168 q 64 -160 65 -163 q 63 -132 63 -156 q 182 122 63 -108 q 102 119 123 119 l 93 119 q 57 128 74 119 q 40 148 40 136 q 50 169 40 159 q 62 184 60 179 q 98 218 67 199 q 147 239 130 237 q 244 244 204 243 q 443 614 365 474 q 336 610 383 610 l 326 610 q 290 618 307 610 q 273 638 273 627 q 283 659 273 649 q 296 675 294 669 q 332 709 300 690 q 380 729 363 728 q 509 736 460 734 q 635 940 616 924 q 653 947 641 947 l 689 945 l 718 946 q 732 935 732 946 q 710 892 732 932 q 626 739 688 853 l 687 739 q 740 735 732 739 q 758 718 748 732 q 777 697 768 705 q 786 677 786 690 q 768 652 786 663 q 732 640 751 642 l 565 624 l 365 249 l 426 249 q 479 245 471 249 q 497 228 487 241 q 516 207 507 214 q 525 186 525 200 q 507 162 525 173 q 471 150 490 151 l 305 132 q 171 -131 271 66 q 153 -152 163 -147 q 109 -166 122 -166 l 92 -172 q 76 -168 87 -172 z "},"":{"ha":644,"x_min":136,"x_max":728,"o":"m 480 616 q 487 608 480 616 q 512 585 494 600 q 553 571 530 571 q 598 579 576 571 q 632 598 620 587 q 654 621 645 609 q 692 648 675 648 q 719 629 709 648 q 728 591 728 611 q 723 560 728 571 q 648 477 698 509 q 554 446 597 446 q 487 456 511 446 q 448 479 463 465 q 418 506 432 492 q 365 539 387 539 q 325 529 343 539 q 293 506 307 519 q 267 479 280 492 q 210 445 237 445 q 197 454 203 445 q 191 487 191 463 q 214 547 191 511 q 268 606 237 582 q 376 661 338 661 q 441 647 415 661 q 480 616 467 633 m 425 409 q 432 401 425 409 q 456 378 439 393 q 497 364 474 364 q 542 372 520 364 q 577 391 564 380 q 598 414 589 402 q 637 441 620 441 q 664 423 654 441 q 673 385 673 405 q 667 353 673 364 q 592 270 643 301 q 499 239 542 239 q 432 249 456 239 q 392 272 408 258 q 363 300 376 286 q 309 332 331 332 q 269 322 288 332 q 238 299 251 313 q 212 271 224 285 q 154 238 181 238 q 141 247 147 238 q 136 280 136 256 q 158 340 136 304 q 212 399 181 375 q 321 454 282 454 q 385 440 359 454 q 425 409 411 426 z "},"":{"ha":281,"x_min":7,"x_max":374,"o":"m 374 153 q 370 123 374 132 q 264 14 336 56 q 138 -28 191 -28 q 45 8 84 -28 q 7 81 7 44 q 44 190 7 119 q 119 321 81 261 q 156 387 156 382 q 142 407 156 392 q 128 429 128 422 q 156 466 128 436 q 225 526 184 496 q 287 555 265 555 q 325 536 308 555 q 342 502 342 517 q 180 208 342 486 q 169 190 178 204 q 155 167 160 176 q 143 145 150 158 q 130 100 130 118 q 161 77 130 77 q 225 98 192 77 q 283 145 259 119 q 356 214 347 214 q 374 153 374 214 z "},"":{"ha":673,"x_min":45,"x_max":886,"o":"m 182 395 l 173 395 q 138 402 155 395 q 121 418 121 409 q 125 435 121 428 q 133 451 128 443 q 139 463 138 460 q 175 486 144 476 q 225 498 205 496 q 285 500 245 499 q 535 747 391 647 q 792 847 678 847 q 855 823 823 847 q 886 759 886 799 q 861 675 886 718 q 798 599 835 631 q 720 545 762 566 q 649 524 679 524 q 598 542 618 524 q 578 578 578 559 q 591 613 578 596 q 618 631 604 631 q 610 620 610 623 q 625 618 610 618 q 708 660 661 618 q 755 734 755 701 q 744 743 755 743 q 623 692 701 743 q 421 502 512 619 q 551 500 522 500 q 589 496 580 500 q 593 446 614 486 q 571 421 586 431 q 544 411 555 411 q 504 409 532 410 q 432 405 476 407 q 351 400 389 402 q 323 351 336 376 q 485 353 415 353 q 495 344 491 353 q 492 310 499 334 q 475 276 485 286 q 433 264 466 266 l 377 259 q 278 250 322 254 q 258 144 258 191 q 305 82 258 82 q 393 118 340 82 q 491 198 446 153 q 569 282 536 243 q 603 330 602 321 q 625 338 605 338 q 635 318 635 338 q 618 232 635 298 q 557 141 610 195 q 464 55 505 87 q 372 1 423 23 q 273 -20 321 -20 q 185 27 224 -20 q 146 133 146 74 q 159 243 146 193 q 106 241 122 241 l 96 241 q 61 249 78 241 q 45 265 45 256 q 47 282 45 275 q 54 300 50 290 l 60 314 q 95 334 64 326 q 140 343 125 342 q 170 346 154 345 q 195 347 186 347 q 218 395 200 359 q 182 395 206 395 z "},"":{"ha":1310,"x_min":164,"x_max":1310,"o":"m 583 734 q 546 615 578 686 q 484 498 515 544 q 419 415 454 453 q 253 328 343 330 q 190 354 215 326 q 164 435 164 382 q 198 562 164 488 q 282 698 232 635 q 394 805 332 761 q 508 848 456 848 q 559 811 536 848 q 583 734 583 774 m 259 448 q 273 422 259 422 q 349 460 308 422 q 421 549 390 497 q 473 655 452 600 q 494 735 494 710 q 486 760 494 760 q 405 705 459 760 q 304 574 350 650 q 259 448 259 498 m 854 503 q 905 475 883 503 q 926 407 926 448 q 902 295 926 366 q 836 154 877 224 q 733 32 795 83 q 606 -18 671 -18 q 542 9 567 -18 q 517 90 517 37 q 550 216 517 142 q 631 352 583 290 q 741 459 680 415 q 854 503 802 503 m 612 102 q 625 77 612 77 q 718 138 666 77 q 805 277 770 200 q 840 400 840 354 q 831 414 840 414 q 752 359 805 414 q 655 228 699 304 q 612 102 612 152 m 894 847 q 906 825 906 847 q 905 796 906 803 q 903 782 904 789 q 902 772 903 775 q 899 762 901 770 q 895 750 897 755 q 748 574 884 726 q 283 15 488 283 q 275 1 280 12 q 251 -18 264 -18 q 224 43 224 -18 q 230 91 224 68 q 239 120 235 114 q 245 129 243 126 q 341 242 248 133 q 618 554 434 351 q 836 794 803 757 q 873 836 869 832 q 880 841 877 839 q 894 847 889 847 m 1310 387 q 1273 267 1304 338 q 1211 151 1241 196 q 1146 67 1180 105 q 979 -20 1069 -18 q 916 6 941 -22 q 890 87 890 35 q 924 214 890 140 q 1008 350 958 288 q 1121 457 1059 413 q 1234 500 1183 500 q 1286 463 1262 500 q 1310 387 1310 426 m 985 100 q 999 75 985 75 q 1075 112 1034 75 q 1147 201 1116 149 q 1200 307 1179 252 q 1221 387 1221 362 q 1212 412 1221 412 q 1131 357 1185 412 q 1031 226 1076 302 q 985 100 985 150 z "},"":{"ha":1496,"x_min":115,"x_max":1637,"o":"m 971 908 q 1069 859 1033 908 q 1266 952 1154 917 q 1468 987 1377 987 q 1581 975 1539 987 q 1622 940 1606 962 q 1637 902 1637 918 q 1633 873 1637 886 q 1619 853 1629 861 q 1589 838 1606 843 q 1569 831 1572 832 q 1478 808 1516 808 q 1404 826 1411 808 q 1419 867 1406 844 q 1286 841 1355 864 q 1166 786 1217 817 q 1083 720 1116 754 q 1050 663 1050 686 q 1204 619 1050 619 q 1261 627 1242 619 q 1379 650 1309 650 q 1449 614 1449 650 q 1437 573 1449 600 q 1420 539 1426 545 q 1376 523 1414 533 q 1321 510 1339 512 q 1283 505 1303 508 q 1255 505 1263 501 q 946 262 1030 394 q 908 159 908 202 q 1001 92 908 92 q 1185 149 1074 92 q 1384 287 1297 206 q 1470 428 1470 368 q 1499 447 1470 447 q 1565 369 1565 447 q 1533 282 1565 332 q 1444 179 1501 231 q 1317 83 1387 127 q 1162 9 1247 38 q 1018 -19 1077 -19 q 923 -8 959 -19 q 854 26 886 3 q 785 172 785 74 q 814 279 785 224 q 888 378 842 334 q 1070 518 973 463 q 990 549 1021 529 q 694 174 876 343 q 504 39 606 90 q 309 -12 402 -12 q 222 14 260 -12 q 163 64 184 39 q 115 224 115 122 q 183 464 115 326 q 369 726 250 602 q 622 926 488 850 q 885 1003 756 1003 q 934 991 911 1003 q 957 965 957 980 q 949 940 957 949 q 935 919 942 930 q 924 903 928 907 q 971 908 946 908 m 729 595 q 720 581 729 581 q 680 614 710 581 q 650 669 650 647 q 721 788 650 722 q 877 889 791 854 q 665 809 783 884 q 452 629 547 735 q 302 408 357 523 q 247 218 247 292 q 267 143 247 174 q 333 111 286 111 q 445 143 380 111 q 570 229 509 176 q 765 435 680 328 q 897 636 850 543 q 945 765 945 728 q 935 779 945 779 q 857 744 907 779 q 766 665 806 708 q 727 604 727 623 l 729 595 z "},"":{"ha":771,"x_min":14,"x_max":839,"o":"m 839 507 q 803 429 839 463 q 720 395 766 395 q 701 402 705 395 q 696 420 696 409 q 699 443 696 432 q 644 418 674 435 q 571 368 614 401 q 528 318 528 334 q 544 313 528 313 q 593 324 559 313 q 639 335 626 335 q 656 334 652 335 q 675 313 665 329 q 686 288 686 297 q 668 264 686 279 q 628 241 650 249 q 598 229 606 233 q 455 119 455 149 q 545 66 455 66 q 661 103 603 66 q 750 166 711 134 q 801 206 790 199 q 817 214 811 214 q 834 174 834 214 q 829 122 834 135 q 802 92 825 110 q 528 -26 657 -26 q 420 -8 462 -26 q 341 94 344 25 q 125 -18 228 -18 q 46 15 77 -18 q 14 106 14 47 q 43 236 14 165 q 117 362 72 307 q 216 460 163 416 q 410 549 326 549 q 466 530 447 549 q 473 519 473 524 l 473 515 q 498 517 482 517 q 522 506 515 517 q 531 468 530 494 q 653 527 585 505 q 756 549 720 549 q 816 538 793 549 q 839 507 839 527 m 434 427 l 429 427 q 406 461 406 427 q 302 404 356 445 q 205 308 248 363 q 117 120 118 197 q 144 82 117 82 q 227 119 172 82 q 336 223 282 155 q 417 341 390 291 q 444 409 444 391 q 434 427 444 427 m 473 271 q 450 231 467 258 q 511 260 481 250 q 473 271 483 268 z "},"":{"ha":553,"x_min":-238,"x_max":828,"o":"m 285 383 q 194 379 229 379 q 136 404 136 379 q 157 438 153 425 q 187 469 161 450 q 229 489 213 487 q 334 498 288 496 q 597 812 448 748 q 708 838 658 838 q 778 832 758 838 q 808 821 798 827 q 822 804 817 814 q 828 779 828 793 q 791 697 828 728 q 703 665 753 665 q 682 672 687 665 q 671 682 676 680 q 666 692 666 684 q 673 708 666 700 q 682 726 680 717 q 552 668 608 726 q 446 503 496 610 q 519 503 473 503 q 571 500 565 503 q 588 480 578 496 q 603 460 598 465 q 608 446 608 456 q 595 427 608 435 q 566 417 581 419 q 401 394 446 399 q 352 259 384 349 q 298 117 319 170 q 260 26 277 64 q 218 -56 243 -12 q 170 -133 193 -101 q 116 -195 146 -164 q 53 -245 85 -226 q -100 -287 -18 -287 q -221 -238 -182 -287 q -238 -203 -238 -218 q -194 -141 -238 -168 q -113 -115 -150 -115 q -92 -122 -97 -115 q -81 -131 -86 -129 q -76 -140 -76 -133 q -90 -162 -76 -148 q -92 -176 -103 -176 q 85 -69 11 -176 q 164 72 134 1 q 209 181 194 143 q 247 282 223 219 q 285 383 271 346 z "},"":{"ha":966,"x_min":102,"x_max":899,"o":"m 102 7 q 134 80 102 48 q 198 113 167 113 q 254 66 254 113 q 222 -7 254 28 q 151 -43 191 -43 q 102 7 102 -43 m 424 7 q 456 80 424 48 q 521 113 489 113 q 576 66 576 113 q 545 -7 576 28 q 473 -43 513 -43 q 424 7 424 -43 m 746 7 q 779 80 746 48 q 842 113 811 113 q 899 66 899 113 q 867 -7 899 28 q 795 -43 835 -43 q 746 7 746 -43 z "},"":{"ha":1042,"x_min":326,"x_max":1331,"o":"m 440 935 l 496 935 q 546 936 533 935 q 575 938 558 937 q 602 941 591 939 q 655 951 638 947 q 781 1004 726 1004 q 821 991 803 1004 q 838 955 838 979 q 800 914 838 931 q 711 888 762 897 q 572 683 623 766 q 504 574 522 600 q 464 517 487 547 q 378 458 418 458 q 343 475 361 458 q 326 511 326 492 q 346 561 326 530 q 378 603 366 592 q 401 614 391 614 q 418 608 412 614 q 514 749 457 661 q 588 863 571 837 q 467 848 516 848 q 355 905 355 848 q 375 950 355 932 q 421 969 396 969 q 447 951 447 969 q 440 935 447 943 m 1174 619 l 1177 600 q 1090 503 1177 568 q 1009 463 1036 463 q 964 480 981 463 q 947 514 947 498 q 953 544 947 530 q 970 578 958 557 q 992 617 982 600 q 1022 664 1003 635 q 1052 709 1041 693 q 1083 755 1062 725 q 1109 794 1103 786 q 1004 680 1070 753 q 829 490 842 501 q 800 479 817 479 q 767 493 784 479 q 751 518 751 507 q 760 549 751 529 q 788 603 770 569 q 823 669 806 637 q 863 744 840 701 q 898 810 886 787 q 755 613 834 730 q 638 418 676 496 q 616 399 629 399 q 588 404 602 399 q 548 445 548 414 q 629 582 548 463 q 811 828 709 701 q 962 986 913 956 q 987 996 978 996 q 1001 993 996 996 q 1026 998 1012 998 q 1056 988 1040 998 q 1073 967 1073 979 q 1047 918 1073 956 q 907 682 950 777 q 1029 803 958 729 q 1227 999 1197 978 q 1243 1004 1234 1004 q 1269 1000 1252 1004 q 1307 995 1286 995 q 1323 985 1316 993 q 1331 970 1331 978 q 1326 956 1331 962 q 1259 863 1322 949 q 1052 565 1097 642 q 1137 651 1104 604 q 1162 659 1150 670 q 1174 619 1169 652 z "},"":{"ha":228,"x_min":-105,"x_max":577,"o":"m 565 847 q 577 825 577 847 q 576 796 577 803 q 574 782 575 789 q 573 772 574 775 q 570 762 572 770 q 566 750 568 755 q 419 574 555 726 q -46 15 159 283 q -54 1 -49 12 q -78 -18 -64 -18 q -105 43 -105 -18 q -99 91 -105 68 q -90 120 -94 114 q -84 129 -86 126 q 12 242 -81 133 q 290 554 105 351 q 507 794 474 757 q 544 836 541 832 q 551 841 548 839 q 565 847 560 847 z "},"":{"ha":781,"x_min":-181,"x_max":983,"o":"m 4 218 l -1 237 q 4 247 -1 243 q 18 262 9 250 q 30 277 26 273 q 41 287 34 280 q 53 297 48 293 q 72 310 66 309 q 91 316 77 312 q 162 335 133 330 q 440 787 335 624 q 559 967 545 950 q 611 998 574 985 q 666 1011 648 1012 q 683 996 683 1011 q 679 980 683 990 q 604 860 674 970 q 273 335 346 455 l 290 329 q 454 358 448 358 q 487 349 460 358 q 521 338 513 340 q 536 313 536 336 q 522 288 536 290 q 467 274 511 286 q 397 257 423 263 q 433 166 433 214 q 390 39 433 118 q 281 -117 347 -40 q 141 -263 214 -195 q 1 -374 68 -332 q -98 -416 -66 -416 q -156 -399 -130 -416 q -181 -348 -181 -382 q -167 -269 -181 -314 q -137 -186 -153 -224 q -81 -78 -121 -149 q 71 182 -39 -2 q 41 178 52 178 q 22 183 31 178 q 10 195 14 188 q 4 218 4 209 m 195 -74 q 220 -44 195 -74 q 280 50 245 -15 q 315 156 315 115 q 275 228 315 197 l 199 211 q 164 151 188 192 q 124 84 140 110 q 85 18 109 58 q 46 -51 62 -23 q 11 -114 30 -79 q -21 -173 -9 -149 q -45 -222 -34 -198 q -68 -284 -68 -270 q -60 -298 -68 -298 q -4 -268 -47 -298 q 91 -185 38 -237 q 195 -74 144 -133 m 983 745 q 947 667 983 706 q 872 628 911 628 q 833 669 833 628 q 868 746 833 709 q 943 783 902 783 q 972 773 962 783 q 983 745 983 763 m 873 153 q 869 123 873 132 q 764 14 836 56 q 637 -28 691 -28 q 545 8 584 -28 q 507 81 507 44 q 544 190 507 119 q 618 321 581 261 q 656 387 656 382 q 642 407 656 392 q 628 429 628 422 q 656 466 628 436 q 725 526 684 496 q 786 555 765 555 q 825 536 808 555 q 842 502 842 517 q 680 208 842 486 q 669 190 678 204 q 655 167 660 176 q 643 145 650 158 q 629 100 629 118 q 661 77 629 77 q 725 98 692 77 q 783 145 759 119 q 856 214 847 214 q 873 153 873 214 z "},"":{"ha":858,"x_min":-181,"x_max":1186,"o":"m 4 218 l -1 237 q 4 247 -1 243 q 18 262 9 250 q 30 277 26 273 q 41 287 34 280 q 53 297 48 293 q 72 310 66 309 q 91 316 77 312 q 162 335 133 330 q 440 787 335 624 q 559 967 545 950 q 611 998 574 985 q 666 1011 648 1012 q 683 996 683 1011 q 679 980 683 990 q 604 860 674 970 q 273 335 346 455 l 290 329 q 454 358 448 358 q 487 349 460 358 q 521 338 513 340 q 536 313 536 336 q 522 288 536 290 q 467 274 511 286 q 397 257 423 263 q 433 166 433 214 q 390 39 433 118 q 281 -117 347 -40 q 141 -263 214 -195 q 1 -374 68 -332 q -98 -416 -66 -416 q -156 -399 -130 -416 q -181 -348 -181 -382 q -167 -269 -181 -314 q -137 -186 -153 -224 q -81 -78 -121 -149 q 71 182 -39 -2 q 41 178 52 178 q 22 183 31 178 q 10 195 14 188 q 4 218 4 209 m 195 -74 q 220 -44 195 -74 q 280 50 245 -15 q 315 156 315 115 q 275 228 315 197 l 199 211 q 164 151 188 192 q 124 84 140 110 q 85 18 109 58 q 46 -51 62 -23 q 11 -114 30 -79 q -21 -173 -9 -149 q -45 -222 -34 -198 q -68 -284 -68 -270 q -60 -298 -68 -298 q -4 -268 -47 -298 q 91 -185 38 -237 q 195 -74 144 -133 m 1104 1018 q 1161 999 1137 1018 q 1186 941 1186 979 q 1144 822 1186 903 q 1043 657 1102 741 q 909 477 984 572 q 683 207 791 327 q 677 177 682 199 q 672 132 672 155 q 693 92 672 110 q 744 74 713 74 q 809 96 774 74 q 870 144 844 117 q 954 214 938 214 q 970 164 970 214 l 970 151 q 960 112 970 124 q 833 8 904 42 q 698 -26 762 -26 q 601 13 634 -26 q 568 119 568 52 q 638 430 568 252 q 798 734 709 609 q 1104 1018 998 1018 m 1074 905 q 1067 916 1074 916 q 942 780 1043 916 q 796 564 841 644 q 711 361 751 483 q 932 657 791 456 q 1074 905 1074 858 z "},"":{"ha":475,"x_min":22,"x_max":508,"o":"m 484 705 q 508 634 508 705 q 504 597 508 609 q 477 567 499 585 q 394 524 454 549 q 285 466 333 498 q 359 347 296 410 q 384 321 382 324 q 386 298 386 318 q 372 227 386 277 q 345 177 357 177 q 324 187 330 177 q 316 201 318 197 q 304 226 311 211 q 274 283 298 241 q 189 465 216 387 q 184 478 184 470 q 214 520 184 501 q 277 560 243 539 q 331 593 311 581 q 422 658 385 627 q 465 694 459 689 q 484 705 475 705 m 180 60 l 54 57 q 22 89 22 57 q 36 142 22 121 q 75 163 50 163 q 184 160 142 163 q 408 151 292 151 q 425 136 418 151 q 431 101 431 121 q 414 66 431 81 q 364 51 397 51 l 180 60 z "},"":{"ha":475,"x_min":7,"x_max":458,"o":"m 304 667 q 307 673 304 667 q 323 697 310 679 q 346 715 337 715 q 356 711 354 715 q 359 696 359 707 q 363 673 359 685 q 399 585 368 661 q 458 416 458 443 q 427 369 458 389 q 312 310 351 333 q 194 230 274 288 q 176 211 188 226 q 158 196 164 196 q 134 288 134 196 q 163 335 134 312 q 229 373 193 358 q 370 437 343 418 q 317 517 353 477 q 278 565 281 558 q 275 575 276 571 q 274 583 275 580 q 275 592 274 587 q 277 600 276 597 q 279 609 277 603 q 282 618 281 615 q 287 627 283 621 q 291 636 290 634 q 295 647 292 639 q 304 667 299 654 m 165 66 l 39 64 q 7 96 7 64 q 21 149 7 127 q 60 170 35 170 q 170 167 127 170 q 393 158 277 158 q 410 143 404 158 q 416 107 416 127 q 399 73 416 87 q 349 58 382 58 l 165 66 z "},"":{"ha":307,"x_min":-339,"x_max":389,"o":"m 358 207 q 377 212 369 215 q 388 197 386 210 q 387 123 397 153 q 337 92 384 118 q 230 31 290 65 q 96 -58 170 -4 q -25 -165 23 -113 q -106 -286 -54 -222 q -274 -408 -207 -408 q -320 -391 -301 -408 q -339 -347 -339 -373 q -326 -297 -339 -320 q -281 -244 -313 -275 q -228 -194 -250 -214 q -157 -135 -205 -174 q -91 -81 -109 -96 q -15 49 -61 -31 q 58 174 31 128 q 180 367 136 303 q 165 366 177 368 q 146 365 154 365 q 130 373 138 366 q 119 397 121 381 q 196 477 115 421 q 307 533 278 533 q 358 482 358 533 q 353 461 358 477 q 236 266 347 446 q 83 21 125 86 q 120 48 89 25 q 186 96 152 71 q 258 147 221 121 q 358 207 345 207 z "},"":{"ha":1001,"x_min":-102,"x_max":1204,"o":"m 298 309 l 283 306 q 258 331 267 304 q 297 435 227 427 q 498 455 321 437 q 605 614 566 557 q 704 743 644 671 q 830 873 764 815 q 1095 993 964 993 q 1179 963 1153 993 q 1204 893 1204 934 q 1167 800 1204 853 q 1082 705 1131 746 q 986 634 1034 663 q 912 606 939 606 q 865 629 885 606 q 846 673 846 652 q 851 703 846 694 q 863 711 857 711 q 871 704 869 711 q 940 746 892 711 q 1027 821 988 782 q 1067 869 1067 859 q 1055 879 1067 879 q 1023 871 1043 879 q 968 837 1002 863 q 895 772 935 812 q 684 503 800 677 q 673 488 680 497 q 663 473 667 478 q 810 502 767 488 q 865 517 852 515 q 886 507 877 518 q 901 478 895 495 q 898 442 906 460 q 867 411 890 423 q 821 389 844 398 q 762 374 798 380 q 642 356 694 362 q 581 349 589 351 q 463 179 500 228 q 960 87 810 87 q 1057 105 1029 87 q 1070 111 1067 111 q 1074 106 1074 111 q 1067 90 1074 100 q 1037 43 1061 79 q 1002 1 1013 8 q 889 -18 968 -18 q 737 -7 809 -18 q 621 16 665 5 q 490 52 576 27 q 376 85 404 77 q 75 -28 250 -28 q -76 17 -31 -28 q -102 103 -102 41 q 43 226 -102 198 q 152 235 88 235 q 326 211 216 235 q 415 327 366 256 q 298 309 368 320 m 129 126 q 40 105 40 126 q 55 91 40 97 q 92 85 71 85 q 218 119 157 85 q 129 126 166 126 z "},"":{"ha":358,"x_min":-5,"x_max":686,"o":"m 359 260 q 351 258 359 260 q 334 253 342 255 q 296 240 326 250 q 182 205 265 231 q 172 137 172 164 q 193 92 172 110 q 244 74 214 74 q 310 96 275 74 q 370 144 345 117 q 454 214 438 214 q 471 164 471 214 l 471 151 q 461 112 471 124 q 333 8 404 42 q 198 -26 262 -26 q 101 13 134 -26 q 68 119 68 52 q 70 168 68 143 q 34 155 40 157 q 25 151 28 153 q -5 165 9 143 q 12 256 -42 239 q 90 279 66 273 q 177 521 119 397 q 298 734 235 646 q 604 1018 498 1018 q 662 999 637 1018 q 686 943 686 979 q 653 840 686 907 q 576 708 621 773 q 469 564 532 644 q 277 336 381 453 q 340 358 296 343 q 446 399 416 384 q 458 404 450 404 q 476 399 467 408 q 490 381 486 391 q 496 361 495 372 q 492 342 497 351 q 481 325 488 333 q 462 309 474 317 q 440 294 450 300 q 414 281 429 288 q 387 270 398 275 q 359 260 376 266 m 574 905 q 567 916 574 916 q 442 780 543 916 q 296 564 341 644 q 211 361 251 483 q 432 657 291 456 q 574 905 574 858 z "},"":{"ha":1042,"x_min":118,"x_max":1371,"o":"m 444 567 q 314 564 328 566 q 302 591 302 564 q 350 683 302 683 q 522 681 397 683 q 617 818 567 747 q 418 745 528 745 q 330 769 367 745 q 292 832 292 794 q 321 892 292 870 q 375 914 349 914 q 401 906 401 914 q 394 900 401 903 q 387 893 387 897 q 410 874 387 882 q 464 865 434 865 q 536 883 493 865 q 627 927 580 900 q 730 990 692 965 q 770 1001 751 1001 q 798 997 789 1001 q 810 988 806 992 q 819 976 814 983 q 828 965 824 969 q 833 957 833 962 q 826 939 833 952 q 656 679 820 926 q 887 676 844 676 q 1040 679 930 676 q 1208 938 1193 917 q 1235 966 1223 960 q 1263 972 1246 972 l 1323 968 l 1332 968 q 1337 967 1336 968 q 1340 966 1338 966 q 1343 964 1341 966 q 1352 958 1346 962 q 1360 944 1360 952 q 1346 913 1360 936 q 1197 683 1215 711 q 1334 691 1320 688 q 1356 695 1347 695 q 1371 659 1371 695 q 1152 568 1371 568 l 1123 568 q 954 290 1036 427 q 781 5 783 7 q 779 1 779 3 q 773 -3 778 -3 l 764 -1 l 745 -5 l 734 -3 l 723 -5 l 719 -5 l 681 -11 q 647 12 647 -11 q 849 376 647 47 q 602 373 724 373 l 456 374 q 361 214 418 314 q 229 -4 237 -1 q 215 -5 220 -5 q 205 1 210 -5 q 198 7 200 7 q 191 5 197 7 q 176 2 186 2 l 160 3 l 154 7 q 152 5 153 7 q 147 3 151 3 q 118 27 118 3 q 130 70 118 43 q 156 121 141 96 q 198 189 171 146 q 267 294 226 232 q 318 372 307 355 q 304 374 310 372 q 293 377 298 376 q 285 382 289 378 q 279 389 281 387 q 275 399 277 391 q 272 410 273 407 q 268 425 271 414 q 261 453 265 436 q 257 478 256 469 q 273 496 257 496 q 303 490 279 496 q 352 484 328 484 l 391 486 q 444 567 437 557 m 924 497 q 968 568 944 530 l 583 568 q 532 490 547 513 q 924 497 713 490 z "},"":{"ha":546,"x_min":-35,"x_max":665,"o":"m 302 677 q 216 673 243 676 q 203 700 203 673 q 252 792 203 792 q 366 788 287 792 q 410 865 371 798 q 490 987 448 933 q 591 1026 520 1026 q 608 1017 606 1026 q 610 998 610 1008 q 607 981 610 988 q 588 950 604 974 q 542 878 573 926 q 483 785 511 829 q 606 795 570 787 q 650 804 641 804 q 665 768 665 804 q 501 680 665 680 l 418 680 q 208 307 285 462 q 414 506 314 436 q 506 550 475 550 q 562 540 537 550 q 587 493 587 530 q 543 393 587 479 q 411 103 411 132 q 435 75 411 75 q 541 142 469 75 q 610 207 595 193 q 625 213 618 213 q 639 200 637 213 q 644 151 644 169 q 637 120 644 133 q 609 82 631 106 q 556 34 587 58 q 404 -25 481 -25 q 292 74 292 -25 q 441 417 292 160 q 449 431 447 427 q 249 231 397 394 q 53 0 102 68 q 33 -14 49 -6 q 7 -21 16 -21 q -13 -15 -2 -21 q -26 -9 -23 -9 q -35 -4 -35 -9 q -32 9 -35 2 q 302 677 98 311 z "},"":{"ha":787,"x_min":224,"x_max":1194,"o":"m 554 444 q 345 439 364 441 q 333 466 333 439 q 382 558 333 558 q 625 552 387 558 q 651 593 631 562 q 679 637 671 625 q 705 676 687 650 q 734 718 722 702 q 791 793 763 760 q 504 747 608 747 q 355 760 400 747 q 295 790 309 773 q 281 824 281 806 q 282 857 281 841 q 323 913 285 891 q 387 935 361 935 q 412 927 412 935 q 400 907 412 920 q 389 890 389 895 q 546 868 389 868 q 906 909 703 868 q 1107 1004 1023 1004 q 1182 972 1164 1004 q 1194 935 1194 954 q 1172 897 1194 916 q 1113 864 1150 878 q 953 825 1045 840 q 843 671 914 776 q 764 555 772 567 q 960 577 933 570 q 995 584 986 584 q 1010 553 1010 584 q 992 503 1010 522 q 949 472 974 483 q 891 456 924 462 q 787 446 841 446 q 692 445 734 446 q 631 348 668 408 q 571 249 595 288 q 515 162 547 211 q 459 82 484 113 q 406 23 434 52 q 302 -33 352 -33 q 247 -16 270 -33 q 224 39 224 1 q 266 135 224 77 q 328 208 309 192 q 355 224 348 224 q 361 216 361 224 l 358 201 q 362 194 358 197 q 371 191 366 191 q 378 194 376 191 q 391 211 380 197 q 416 245 401 224 q 452 295 431 267 q 554 444 488 345 z "},"":{"ha":298,"x_min":11,"x_max":635,"o":"m 133 359 q 23 355 52 359 q 11 382 11 355 q 60 474 11 474 q 195 470 96 474 q 285 616 239 547 l 259 613 q 168 604 180 604 l 161 604 q 123 612 142 604 q 105 631 105 620 q 115 654 105 643 q 127 671 125 665 q 162 704 132 686 q 209 723 193 722 q 239 725 224 724 q 272 726 254 726 q 299 728 290 727 l 360 730 q 438 840 417 816 q 463 867 460 865 q 477 869 467 869 l 509 873 l 536 867 q 547 861 543 867 q 552 849 552 854 q 538 820 552 844 q 504 766 524 796 q 484 733 485 736 q 558 737 536 737 q 589 734 581 737 q 607 717 597 731 q 627 696 618 703 q 635 675 635 689 q 618 651 635 661 q 581 639 601 641 q 408 623 424 623 q 314 467 379 580 l 315 467 q 479 485 407 467 q 491 486 482 486 q 506 450 506 486 q 342 361 506 361 l 254 361 q 149 138 155 180 q 146 104 146 117 q 174 78 146 78 q 236 99 202 78 q 298 146 270 121 q 380 214 374 214 q 397 153 397 214 q 367 93 397 119 q 252 4 298 34 q 158 -26 205 -26 q 139 -24 148 -26 q 59 16 85 -14 q 34 111 34 45 q 133 359 35 177 z "},"":{"ha":899,"x_min":-24,"x_max":1224,"o":"m 663 964 l 713 975 q 743 966 732 975 q 755 951 755 958 q 744 899 755 944 q 620 292 733 854 q 935 741 879 650 q 1070 982 1055 933 q 1091 1019 1078 1006 q 1114 1034 1104 1031 q 1145 1036 1124 1036 q 1195 1027 1166 1036 q 1224 997 1224 1018 q 1165 859 1224 964 q 1020 628 1105 754 q 779 281 843 365 q 675 137 715 197 l 600 23 q 202 -314 374 -314 q 101 -281 139 -314 q 63 -204 63 -249 q 103 -104 63 -159 q 189 -50 143 -50 q 226 -55 208 -50 q 244 -67 244 -60 q 210 -118 244 -83 q 175 -159 175 -153 q 202 -187 175 -187 q 260 -169 230 -187 q 319 -119 290 -151 q 393 -30 364 -71 q 425 13 422 10 q 436 30 427 16 q 452 53 446 43 q 583 758 465 189 q 311 354 471 613 q 122 22 144 86 q 94 -23 110 -17 q 71 -28 83 -28 l 18 -34 q -11 -25 2 -34 q -24 -7 -24 -16 q 51 155 -24 20 q 225 449 125 290 q 435 757 326 607 q 604 958 544 907 q 631 969 616 969 l 663 964 z "},"":{"ha":543,"x_min":-97,"x_max":631,"o":"m 534 551 q 550 551 534 551 q 584 534 566 551 q 603 493 603 517 q 562 402 603 468 q 447 225 520 337 q 325 21 374 113 q 362 48 331 25 q 429 96 394 71 q 500 147 463 121 q 600 207 587 207 q 620 212 611 215 q 631 197 628 210 q 629 123 639 153 q 579 92 626 118 q 472 31 532 65 q 338 -58 412 -4 q 217 -165 265 -113 q 136 -286 189 -222 q -32 -408 35 -408 q -78 -391 -59 -408 q -97 -347 -97 -373 q -84 -297 -97 -320 q -39 -244 -71 -275 q 14 -194 -8 -214 q 85 -135 37 -174 q 151 -81 134 -96 q 269 119 205 8 q 464 433 387 321 q 461 436 465 436 q 351 350 439 436 q 204 199 263 264 q 65 28 145 134 q 28 -1 43 -1 q -10 8 14 -1 q -39 21 -34 17 q -45 33 -45 25 q -40 53 -45 41 q -31 73 -35 65 q -16 97 -26 81 q 24 166 -6 113 q 117 323 54 218 q 191 449 179 427 q 233 514 217 494 q 336 553 264 553 q 353 532 353 553 q 294 412 353 500 l 265 370 q 463 534 382 500 q 534 551 503 551 z "}}}
